<?xml version="1.0" encoding="UTF-8" standalone="no"?>
<svg
   xmlns:dc="http://purl.org/dc/elements/1.1/"
   xmlns:cc="http://creativecommons.org/ns#"
   xmlns:rdf="http://www.w3.org/1999/02/22-rdf-syntax-ns#"
   xmlns:svg="http://www.w3.org/2000/svg"
   xmlns="http://www.w3.org/2000/svg"
   xmlns:sodipodi="http://sodipodi.sourceforge.net/DTD/sodipodi-0.dtd"
   xmlns:inkscape="http://www.inkscape.org/namespaces/inkscape"
   version="1.1"
   id="Ebene_1"
   x="0px"
   y="0px"
   width="83.621277"
   height="64"
   viewBox="0 0 83.621274 63.999998"
   enable-background="new 0 0 255.667 206.626"
   xml:space="preserve"
   sodipodi:docname="bowling_chemnitz_logo.svg"
   inkscape:version="1.0.1 (3bc2e813f5, 2020-09-07)"><metadata
   id="metadata14031"><rdf:RDF><cc:Work
       rdf:about=""><dc:format>image/svg+xml</dc:format><dc:type
         rdf:resource="http://purl.org/dc/dcmitype/StillImage" /><dc:title></dc:title></cc:Work></rdf:RDF></metadata><defs
   id="defs14029">
	
	
	
	
	
	

		
		
		
		
	
		
		
		
		
	
		
		
		
	
		
		
		
		
	
		
		
		
	
		
		
		
		
	
			
			
		
			
			
		
			
			
		
			
			
		
			
			
			
		
			
			
		
			
			
		
			
			
		
			
		
				
				
			
				
			
				
				
				
				
				
				
			
				
				
			
					
					
					
					
					
					
					
					
				
					
					
					
					
					
					
				</defs><sodipodi:namedview
   pagecolor="#ffffff"
   bordercolor="#666666"
   borderopacity="1"
   objecttolerance="10"
   gridtolerance="10"
   guidetolerance="10"
   inkscape:pageopacity="0"
   inkscape:pageshadow="2"
   inkscape:window-width="1920"
   inkscape:window-height="1017"
   id="namedview14027"
   showgrid="false"
   showguides="false"
   inkscape:zoom="0.24763657"
   inkscape:cx="-678.73622"
   inkscape:cy="70.998465"
   inkscape:window-x="-8"
   inkscape:window-y="-8"
   inkscape:window-maximized="1"
   inkscape:current-layer="Ebene_1"
   inkscape:document-rotation="0"
   fit-margin-top="0"
   fit-margin-left="0"
   fit-margin-right="0"
   fit-margin-bottom="0" />




<g
   id="g13376"
   transform="matrix(0.36132767,0,0,0.36132767,-5.2186555,-3.9843017)">
	<g
   id="g13250">
		<g
   id="g13238">
			<path
   fill="#e95212"
   d="m 198.865,50.807 c -2.535,-2.132 -5.928,-3.278 -9.54,-2.691 -1.114,0.182 -2.984,0.968 -3.725,1.449 -3.894,2.509 -6.946,8.945 -9.76,13.063 -4.568,6.689 -9.364,9.68 -15.267,12.178 -5.85,2.471 -11.314,4.021 -16.646,9.35 -1.077,1.071 -3.021,3.313 -4.112,4.88 -4.605,6.593 -7.606,14.67 -9.512,21.188 -0.842,2.89 -1.978,5.747 -1.88,7.184 0.188,2.75 3.297,7.112 6.815,10.081 0.609,0.516 1.243,0.994 1.866,1.407 2.897,1.935 6.202,2.551 7.91,2.497 2.573,-0.078 4.353,-1.2 7.253,-2.662 2.007,-1.005 4.172,-2.118 6.062,-3.23 8.547,-5.015 19.55,-14.629 22.162,-24.313 1.771,-6.909 1.045,-14.453 8.254,-22.677 3.512,-4 9.063,-7.202 12.153,-11.445 4.203,-5.763 2.399,-12.522 -2.033,-16.259 z"
   id="path13234" />
			<path
   fill="#010202"
   d="m 195.78,54.474 v 0 c 2.502,2.104 3.961,6.063 1.257,9.763 -1.363,1.859 -3.516,3.644 -5.806,5.529 -2.097,1.727 -4.26,3.514 -6.08,5.591 -6.316,7.203 -7.451,14.171 -8.365,19.773 -0.281,1.729 -0.541,3.349 -0.914,4.813 -2.137,7.926 -11.849,16.661 -19.966,21.433 -1.834,1.076 -3.953,2.16 -5.79,3.084 -0.424,0.207 -0.825,0.42 -1.217,0.62 -2.064,1.063 -2.948,1.497 -4.023,1.53 -0.804,0.02 -3.106,-0.365 -5.118,-1.7 -0.465,-0.309 -0.947,-0.672 -1.433,-1.079 -3.02,-2.547 -4.874,-5.606 -5.109,-6.639 0.105,-0.624 0.578,-2.113 0.9,-3.12 0.261,-0.811 0.537,-1.659 0.778,-2.506 2.379,-8.131 5.355,-14.793 8.851,-19.795 0.879,-1.263 2.606,-3.273 3.568,-4.23 3.748,-3.749 7.641,-5.305 12.149,-7.113 0.977,-0.396 1.968,-0.79 2.971,-1.215 5.748,-2.424 11.828,-5.784 17.361,-13.88 0.818,-1.209 1.609,-2.508 2.448,-3.887 1.789,-2.943 4.014,-6.607 5.93,-7.84 0.374,-0.229 1.489,-0.685 1.92,-0.767 2.742,-0.444 4.737,0.829 5.688,1.635 m 3.085,-3.667 c -2.535,-2.132 -5.928,-3.278 -9.54,-2.691 -1.114,0.182 -2.984,0.968 -3.725,1.449 -3.894,2.509 -6.946,8.945 -9.76,13.063 -4.568,6.689 -9.364,9.68 -15.267,12.178 -5.85,2.471 -11.314,4.021 -16.646,9.35 -1.077,1.071 -3.021,3.313 -4.112,4.88 -4.605,6.593 -7.606,14.67 -9.512,21.188 -0.842,2.89 -1.978,5.747 -1.88,7.184 0.188,2.75 3.297,7.112 6.815,10.081 0.609,0.516 1.243,0.994 1.866,1.407 2.897,1.935 6.202,2.551 7.91,2.497 2.573,-0.078 4.353,-1.2 7.253,-2.662 2.007,-1.005 4.172,-2.118 6.062,-3.23 8.547,-5.015 19.55,-14.629 22.162,-24.313 1.771,-6.909 1.045,-14.453 8.254,-22.677 3.512,-4 9.063,-7.202 12.153,-11.445 4.203,-5.763 2.399,-12.522 -2.033,-16.259 z"
   id="path13236" />
		</g>
		<polygon
   fill="#010202"
   points="184.395,79.917 172.715,70.076 174.877,67.518 186.555,77.358 "
   id="polygon13240" />
		<polygon
   fill="#010202"
   points="179.817,85.35 168.137,75.512 170.297,72.946 181.972,82.787 "
   id="polygon13242" />
		<g
   id="g13248">
			<path
   fill="#ffffff"
   d="m 174.568,97.792 c 0.89,-1.862 2.16,-5.209 0.904,-7.167 -0.883,-1.381 -2.299,-0.898 -3.344,-0.039 -1.535,1.014 -2.99,4.298 -3.379,5.25 -1.326,3.249 -3.168,6.192 -5.31,8.964 -2.294,2.971 -4.872,6.191 -7.75,8.61 -0.555,0.466 -0.029,1.373 0.626,0.975 6.929,-4.205 14.636,-9.015 18.253,-16.593 z"
   id="path13244" />
			<path
   fill="#ffffff"
   d="m 197.191,61.506 c 0.844,-2.551 -0.869,-4.704 -2.615,-6.339 -0.007,0.182 0.002,0.365 0.011,0.553 0.158,0.167 0.287,0.371 0.369,0.613 0.449,1.377 0.632,2.948 0.061,4.306 -0.025,0.195 -0.05,0.392 -0.099,0.584 -0.162,0.633 -0.481,1.245 -0.85,1.849 -0.42,1.084 -1.034,2.046 -1.786,2.964 -0.106,0.246 -0.197,0.491 -0.259,0.74 0.136,0.035 0.285,0.021 0.44,-0.067 2.115,-1.2 3.948,-2.845 4.728,-5.203 z"
   id="path13246" />
		</g>
	</g>
	<g
   id="g13268">
		<g
   id="g13256">
			<path
   fill="#e95212"
   d="m 154.127,21.948 c -3.087,-1.201 -6.668,-1.185 -9.893,0.54 -0.998,0.536 -2.512,1.88 -3.058,2.577 -2.873,3.633 -3.676,10.71 -5.009,15.519 -2.153,7.809 -5.722,12.191 -10.501,16.466 -4.736,4.232 -9.401,7.464 -12.722,14.234 -0.67,1.362 -1.785,4.109 -2.311,5.947 -2.221,7.729 -2.448,16.34 -2.138,23.125 0.134,3.011 -0.014,6.078 0.545,7.409 1.068,2.538 5.42,5.661 9.712,7.329 0.743,0.294 1.498,0.536 2.219,0.729 3.368,0.891 6.693,0.407 8.295,-0.199 2.408,-0.908 3.729,-2.543 5.997,-4.864 1.576,-1.602 3.266,-3.354 4.692,-5.022 6.466,-7.513 13.763,-20.169 13.097,-30.177 -0.561,-7.107 -3.687,-14.014 0.471,-24.127 2.027,-4.922 6.244,-9.748 7.798,-14.766 2.109,-6.809 -1.786,-12.624 -7.194,-14.72 z"
   id="path13252" />
			<path
   fill="#010202"
   d="m 152.395,26.417 v 0 c 3.051,1.178 5.711,4.45 4.353,8.826 -0.686,2.202 -2.149,4.587 -3.704,7.111 -1.423,2.313 -2.893,4.703 -3.94,7.26 -3.646,8.859 -2.464,15.82 -1.511,21.416 0.287,1.729 0.565,3.348 0.688,4.848 0.543,8.195 -5.814,19.601 -11.949,26.746 -1.39,1.611 -3.048,3.324 -4.483,4.791 -0.335,0.339 -0.642,0.664 -0.946,0.981 -1.615,1.675 -2.308,2.369 -3.314,2.749 -0.751,0.278 -3.058,0.66 -5.391,0.05 -0.54,-0.143 -1.114,-0.332 -1.71,-0.559 -3.673,-1.433 -6.424,-3.729 -6.979,-4.627 -0.104,-0.628 -0.141,-2.188 -0.161,-3.243 -0.014,-0.854 -0.026,-1.742 -0.074,-2.623 -0.38,-8.461 0.28,-15.73 1.969,-21.597 0.421,-1.479 1.405,-3.942 2.002,-5.157 2.339,-4.756 5.516,-7.491 9.197,-10.662 0.793,-0.688 1.605,-1.385 2.416,-2.113 4.651,-4.154 9.318,-9.301 11.933,-18.753 0.383,-1.404 0.712,-2.891 1.059,-4.464 0.74,-3.369 1.66,-7.553 3.071,-9.339 0.28,-0.339 1.191,-1.13 1.569,-1.346 2.442,-1.309 4.745,-0.751 5.905,-0.295 m 1.732,-4.469 c -3.087,-1.201 -6.668,-1.185 -9.893,0.54 -0.998,0.536 -2.512,1.88 -3.058,2.577 -2.873,3.633 -3.676,10.71 -5.009,15.519 -2.153,7.809 -5.722,12.191 -10.501,16.466 -4.736,4.232 -9.401,7.464 -12.722,14.234 -0.67,1.362 -1.785,4.109 -2.311,5.947 -2.221,7.729 -2.448,16.34 -2.138,23.125 0.134,3.011 -0.014,6.078 0.545,7.409 1.068,2.538 5.42,5.661 9.712,7.329 0.743,0.294 1.498,0.536 2.219,0.729 3.368,0.891 6.693,0.407 8.295,-0.199 2.408,-0.908 3.729,-2.543 5.997,-4.864 1.576,-1.602 3.266,-3.354 4.692,-5.022 6.466,-7.513 13.763,-20.169 13.097,-30.177 -0.561,-7.107 -3.687,-14.014 0.471,-24.127 2.027,-4.922 6.244,-9.748 7.798,-14.766 2.109,-6.809 -1.786,-12.624 -7.194,-14.72 z"
   id="path13254" />
		</g>
		<polygon
   fill="#010202"
   points="149.864,54.174 135.626,48.641 136.843,45.525 151.075,51.053 "
   id="polygon13258" />
		<polygon
   fill="#010202"
   points="147.288,60.794 133.051,55.268 134.266,52.141 148.498,57.673 "
   id="polygon13260" />
		<g
   id="g13266">
			<path
   fill="#ffffff"
   d="m 145.644,73.754 c 0.014,-2.064 -0.26,-5.632 -2.229,-6.872 -1.386,-0.872 -2.461,0.165 -3.043,1.389 -0.956,1.57 -0.878,5.161 -0.823,6.188 0.184,3.505 -0.233,6.952 -0.994,10.371 -0.811,3.665 -1.771,7.675 -3.351,11.087 -0.301,0.66 0.56,1.26 0.983,0.618 4.48,-6.753 9.41,-14.386 9.457,-22.781 z"
   id="path13262" />
			<path
   fill="#ffffff"
   d="m 155.076,31.137 c -0.322,-2.667 -2.79,-3.887 -5.065,-4.623 0.07,0.165 0.158,0.331 0.246,0.495 0.216,0.085 0.416,0.213 0.596,0.399 0.993,1.052 1.824,2.398 1.885,3.87 0.062,0.188 0.121,0.375 0.161,0.569 0.124,0.643 0.093,1.331 0.015,2.035 0.082,1.157 -0.062,2.292 -0.354,3.443 0.009,0.266 0.033,0.527 0.082,0.778 0.135,-0.027 0.268,-0.102 0.371,-0.247 1.399,-1.984 2.358,-4.254 2.063,-6.719 z"
   id="path13264" />
		</g>
	</g>
	<g
   id="g13286">
		<g
   id="g13280">
			<path
   fill="#e95212"
   d="m 98.318,11.04 c -3.308,0.147 -6.578,1.606 -8.837,4.487 -0.694,0.894 -1.536,2.733 -1.754,3.594 -1.162,4.482 0.963,11.282 1.687,16.219 1.179,8.014 -0.314,13.463 -2.964,19.304 -2.626,5.784 -5.587,10.623 -5.891,18.157 -0.065,1.516 0.022,4.482 0.288,6.372 1.086,7.97 4.354,15.937 7.377,22.026 1.34,2.693 2.443,5.564 3.488,6.556 2.006,1.892 7.246,2.989 11.845,2.785 0.798,-0.031 1.59,-0.112 2.328,-0.231 3.438,-0.542 6.288,-2.332 7.504,-3.526 1.839,-1.804 2.386,-3.836 3.527,-6.878 0.792,-2.1 1.631,-4.388 2.266,-6.484 2.877,-9.485 4.448,-24.012 -0.202,-32.898 -3.383,-6.276 -9.033,-11.329 -9.312,-22.264 -0.132,-5.321 1.778,-11.436 1.173,-16.655 -0.819,-7.085 -6.73,-10.829 -12.523,-10.564 z"
   id="path13270" />
			<g
   id="g13276">
				<path
   fill="#ffffff"
   d="m 111.312,62.389 c -0.586,-1.98 -1.878,-5.317 -4.12,-5.935 -1.579,-0.434 -2.311,0.869 -2.512,2.21 -0.463,1.78 0.651,5.193 1,6.161 1.188,3.304 1.784,6.723 2.048,10.214 0.282,3.744 0.521,7.862 0,11.584 -0.101,0.719 0.896,1.043 1.117,0.309 2.339,-7.76 4.846,-16.493 2.467,-24.543 z"
   id="path13272" />
				<path
   fill="#ffffff"
   d="m 103.857,20.283 c -1.078,-2.461 -3.792,-2.916 -6.184,-2.964 0.115,0.142 0.246,0.272 0.378,0.405 0.23,0.019 0.461,0.082 0.687,0.209 1.255,0.721 2.438,1.769 2.923,3.159 0.112,0.162 0.226,0.324 0.318,0.5 0.304,0.579 0.474,1.248 0.604,1.942 0.412,1.086 0.599,2.214 0.656,3.399 0.083,0.253 0.181,0.495 0.303,0.723 0.12,-0.064 0.225,-0.175 0.28,-0.344 0.772,-2.306 1.034,-4.757 0.035,-7.029 z"
   id="path13274" />
			</g>
			<path
   fill="#010202"
   d="m 98.537,15.825 v 0 c 3.267,-0.152 7.022,1.771 7.547,6.323 0.263,2.287 -0.115,5.06 -0.521,7.998 -0.366,2.693 -0.744,5.472 -0.674,8.233 0.245,9.576 4.135,15.465 7.265,20.203 0.959,1.464 1.869,2.832 2.585,4.16 3.807,7.274 2.592,20.277 -0.136,29.291 -0.622,2.035 -1.443,4.271 -2.165,6.194 -0.172,0.44 -0.321,0.868 -0.473,1.278 -0.797,2.183 -1.151,3.102 -1.919,3.853 -0.576,0.561 -2.529,1.843 -4.912,2.221 -0.554,0.091 -1.156,0.149 -1.789,0.179 -3.941,0.176 -7.385,-0.815 -8.256,-1.411 -0.347,-0.535 -1.01,-1.949 -1.453,-2.904 -0.36,-0.775 -0.731,-1.584 -1.13,-2.369 -3.768,-7.589 -6.096,-14.504 -6.917,-20.551 -0.212,-1.525 -0.306,-4.176 -0.251,-5.528 0.222,-5.298 2.022,-9.082 4.106,-13.468 0.453,-0.953 0.914,-1.915 1.364,-2.908 2.578,-5.679 4.771,-12.273 3.344,-21.971 -0.216,-1.446 -0.515,-2.939 -0.831,-4.516 -0.686,-3.384 -1.531,-7.581 -0.965,-9.785 0.12,-0.421 0.635,-1.516 0.896,-1.864 1.711,-2.187 4.042,-2.604 5.285,-2.658 M 98.318,11.04 c -3.308,0.147 -6.578,1.606 -8.837,4.487 -0.694,0.894 -1.536,2.733 -1.754,3.594 -1.162,4.482 0.963,11.282 1.687,16.219 1.179,8.014 -0.314,13.463 -2.964,19.304 -2.626,5.784 -5.587,10.623 -5.891,18.157 -0.065,1.516 0.022,4.482 0.288,6.372 1.086,7.97 4.354,15.937 7.377,22.026 1.34,2.693 2.443,5.564 3.488,6.556 2.006,1.892 7.246,2.989 11.845,2.785 0.798,-0.031 1.59,-0.112 2.328,-0.231 3.438,-0.542 6.288,-2.332 7.504,-3.526 1.839,-1.804 2.386,-3.836 3.527,-6.878 0.792,-2.1 1.631,-4.388 2.266,-6.484 2.877,-9.485 4.448,-24.012 -0.202,-32.898 -3.383,-6.276 -9.033,-11.329 -9.312,-22.264 -0.132,-5.321 1.778,-11.436 1.173,-16.655 -0.819,-7.085 -6.73,-10.829 -12.523,-10.564 z"
   id="path13278" />
		</g>
		<polygon
   fill="#010202"
   points="105.888,42.243 90.627,42.928 90.482,39.587 105.736,38.898 "
   id="polygon13282" />
		<polygon
   fill="#010202"
   points="106.205,49.341 90.946,50.033 90.797,46.681 106.049,45.997 "
   id="polygon13284" />
	</g>
	<g
   id="g13304">
		<g
   id="g13292">
			<path
   fill="#e95212"
   d="m 46.659,43.276 c -3.064,1.257 -5.646,3.738 -6.796,7.214 -0.353,1.072 -0.521,3.091 -0.435,3.975 0.423,4.611 4.726,10.289 7.076,14.69 3.819,7.141 4.258,12.775 3.743,19.169 -0.513,6.329 -1.661,11.889 0.602,19.076 0.452,1.45 1.539,4.213 2.429,5.9 3.719,7.132 9.489,13.524 14.396,18.228 2.172,2.083 4.182,4.409 5.503,4.988 2.525,1.102 7.83,0.359 12.089,-1.387 0.74,-0.299 1.457,-0.643 2.111,-1.005 3.055,-1.678 5.127,-4.322 5.867,-5.859 1.12,-2.318 0.948,-4.417 0.991,-7.664 0.036,-2.244 0.052,-4.68 -0.064,-6.868 C 93.67,103.835 90.233,89.632 82.849,82.845 77.542,78.083 70.514,75.239 66.552,65.045 64.626,60.082 64.355,53.681 62.017,48.977 58.849,42.59 52.021,41.067 46.659,43.276 Z"
   id="path13288" />
			<path
   fill="#010202"
   d="m 48.484,47.704 v 0 c 3.021,-1.248 7.207,-0.71 9.24,3.396 1.021,2.063 1.606,4.801 2.22,7.702 0.565,2.658 1.151,5.399 2.149,7.976 3.474,8.931 9.126,13.152 13.674,16.553 1.401,1.054 2.718,2.031 3.843,3.038 6.042,5.56 9.3,18.206 9.784,27.608 0.104,2.124 0.089,4.507 0.06,6.563 -0.012,0.472 -0.007,0.924 -0.012,1.36 -0.011,2.324 -0.033,3.308 -0.503,4.277 -0.353,0.723 -1.755,2.588 -3.871,3.752 -0.488,0.271 -1.036,0.531 -1.623,0.771 -3.647,1.501 -7.223,1.735 -8.245,1.466 -0.507,-0.384 -1.609,-1.491 -2.352,-2.241 -0.6,-0.606 -1.224,-1.242 -1.862,-1.846 -6.114,-5.865 -10.646,-11.584 -13.466,-16.997 -0.716,-1.361 -1.702,-3.824 -2.106,-5.115 -1.584,-5.058 -1.17,-9.231 -0.693,-14.063 0.103,-1.05 0.211,-2.113 0.297,-3.199 0.504,-6.216 0.338,-13.163 -4.287,-21.806 -0.694,-1.287 -1.481,-2.592 -2.312,-3.967 -1.79,-2.952 -4.007,-6.616 -4.22,-8.883 -0.027,-0.438 0.086,-1.641 0.215,-2.057 0.864,-2.632 2.919,-3.817 4.07,-4.288 m -1.825,-4.428 c -3.064,1.257 -5.646,3.738 -6.796,7.214 -0.353,1.072 -0.521,3.091 -0.435,3.975 0.423,4.611 4.726,10.289 7.076,14.69 3.819,7.141 4.258,12.775 3.743,19.169 -0.513,6.329 -1.661,11.889 0.602,19.076 0.452,1.45 1.539,4.213 2.429,5.9 3.719,7.132 9.489,13.524 14.396,18.228 2.172,2.083 4.182,4.409 5.503,4.988 2.525,1.102 7.83,0.359 12.089,-1.387 0.74,-0.299 1.457,-0.643 2.111,-1.005 3.055,-1.678 5.127,-4.322 5.867,-5.859 1.12,-2.318 0.948,-4.417 0.991,-7.664 0.036,-2.244 0.052,-4.68 -0.064,-6.868 C 93.67,103.835 90.233,89.632 82.849,82.845 77.542,78.083 70.514,75.239 66.552,65.045 64.626,60.082 64.355,53.681 62.017,48.977 58.849,42.59 52.021,41.067 46.659,43.276 Z"
   id="path13290" />
		</g>
		<polygon
   fill="#010202"
   points="65.791,69.552 51.664,75.366 50.397,72.268 64.518,66.459 "
   id="polygon13294" />
		<polygon
   fill="#010202"
   points="68.493,76.126 54.368,81.941 53.095,78.836 67.212,73.033 "
   id="polygon13296" />
		<g
   id="g13302">
			<path
   fill="#ffffff"
   d="m 78.372,86.226 c -1.314,-1.594 -3.808,-4.159 -6.114,-3.852 -1.623,0.216 -1.784,1.704 -1.448,3.015 0.267,1.821 2.63,4.527 3.329,5.281 2.385,2.575 4.27,5.49 5.877,8.603 1.724,3.335 3.551,7.03 4.525,10.661 0.188,0.702 1.234,0.61 1.15,-0.153 -0.88,-8.057 -1.983,-17.074 -7.319,-23.555 z"
   id="path13298" />
			<path
   fill="#ffffff"
   d="m 55.057,50.38 c -1.955,-1.843 -4.63,-1.202 -6.853,-0.312 0.163,0.084 0.335,0.154 0.507,0.224 0.22,-0.07 0.457,-0.104 0.714,-0.074 1.437,0.174 2.937,0.675 3.925,1.766 0.168,0.104 0.336,0.211 0.489,0.337 0.507,0.412 0.924,0.962 1.314,1.551 0.806,0.839 1.419,1.803 1.933,2.873 0.177,0.199 0.362,0.385 0.562,0.546 0.086,-0.106 0.138,-0.249 0.125,-0.427 -0.194,-2.423 -0.911,-4.781 -2.716,-6.484 z"
   id="path13300" />
		</g>
	</g>
	<g
   id="g13312">
		<path
   fill-rule="evenodd"
   clip-rule="evenodd"
   fill="#e95212"
   d="m 238.382,183.776 c 7.198,-5.076 -0.849,-13.82 -18.228,-21.247 -1.738,0.132 23.855,10.553 12.925,18.271 -10.178,7.191 -72.696,-7.644 -71.016,-6.994 24.413,9.31 67.623,16.104 76.319,9.97 z"
   id="path13306" />
		<path
   fill-rule="evenodd"
   clip-rule="evenodd"
   fill="#e95212"
   d="m 218.099,163.062 c 3.627,2.721 19.821,13.398 4.893,16.762 -2.226,0.504 -8.921,0.803 -13.833,0.228 4.245,1.092 11.441,1.94 17.08,0.951 11.835,-2.07 5.541,-12.089 -8.14,-17.941 z"
   id="path13308" />
		<path
   fill-rule="evenodd"
   clip-rule="evenodd"
   fill="#e95212"
   d="m 241.26,187.34 c 6.18,-1.851 4.811,-4.4 3.457,-6.313 1.768,8.417 -20.726,6.04 -26.327,5.806 8.102,1.608 16.938,1.706 22.87,0.507 z"
   id="path13310" />
	</g>
	<g
   id="g13374">
		<circle
   fill-rule="evenodd"
   clip-rule="evenodd"
   cx="73.969002"
   cy="118.06"
   r="25.472"
   id="circle13314" />
		<path
   d="m 241.475,133.367 c -0.548,-0.199 -1.103,-0.397 -1.656,-0.598 l 3.927,-2.485 -2.827,-4.413 c -1.495,-2.336 -4.543,-6.292 -9.274,-8.819 l -0.085,-0.257 -2.296,-0.884 c -4.854,-1.866 -9.498,-1.533 -13.475,0.888 0.021,-0.42 0.047,-0.839 0.068,-1.259 l 0.241,-4.269 -4.141,-1.071 c -2.511,-0.651 -5.028,-1.285 -7.549,-1.904 l -6.116,-1.5 -0.335,6.289 c -0.092,1.809 -0.191,3.617 -0.289,5.426 -4.414,-4.78 -21.617,-23.747 -21.617,-23.747 l -0.338,7.317 c -2.125,-0.409 -12.258,-2.25 -12.258,-2.25 0,0 -15.492,-2.303 -16.853,-2.481 l -19.108,-2.129 -1.482,3.542 c -0.736,1.762 -1.479,3.544 -2.222,5.343 -0.67,-2.017 -1.34,-4.041 -2.01,-6.073 l -4.495,-13.641 -5.301,13.35 c -0.752,1.894 -1.509,3.809 -2.266,5.737 -0.652,-2.001 -1.305,-4.012 -1.961,-6.026 l -1.14,-3.514 -19.179,-0.201 1.328,4.095 c -2.564,-1.364 -5.296,-2.289 -8.181,-2.765 -1.35,-0.26 -4.966,-0.509 -5.417,-0.509 -6.919,0 -13.137,2.343 -18.478,6.962 l -0.183,0.166 c -0.422,0.401 -0.842,0.805 -1.258,1.209 l -0.183,0.186 c -2.117,2.275 -3.762,4.721 -4.988,7.348 -1.003,-2.811 -2.689,-5.285 -5.024,-7.291 -3.893,-3.315 -8.517,-4.578 -13.563,-3.64 l -0.116,0.022 c -1.013,0.188 -9.438,1.865 -12.503,2.538 l -4.429,0.972 4.751,61.953 6.303,-2.05 c 5.354,-1.74 10.774,-3.387 16.094,-4.886 5.011,-1.395 9.172,-4.483 12.339,-9.136 0.993,-1.428 1.795,-2.9 2.446,-4.408 l 4.338,2.008 c 2.06,1.223 4.521,2.324 7.254,3.29 l -3.005,0.681 c -3.855,0.873 -7.117,3.288 -9.718,7.205 -2.356,3.607 -3.578,7.583 -3.626,11.821 -0.049,4.68 1.331,8.459 4.14,11.265 2.192,2.155 4.925,3.294 7.901,3.294 1.154,0 2.334,-0.245 3.564,-0.517 4.587,-1.007 37.333,-9.612 83.492,-11.145 34.848,-1.159 75.694,2.774 75.694,2.774 l 0.826,-13.293 -3.125,-0.403 c 0.869,-1.233 1.726,-2.438 2.578,-3.623 l 1.418,-1.972 c 0.184,0.007 0.369,0.018 0.552,0.018 0.003,0 0,0 0.003,0 3.43,0 6.605,-1.021 9.413,-3.028 4.532,-3.204 6.831,-8.12 6.831,-14.612 v -3.651 z"
   id="path13316" />
		<g
   id="g13352">
			<g
   id="g13336">
				<g
   id="g13334">
					<path
   fill="#ffffff"
   d="m 65.389,178.113 c -2.517,0.709 -4.644,0.234 -6.393,-1.482 -1.752,-1.752 -2.611,-4.251 -2.578,-7.492 0.037,-3.226 0.964,-6.249 2.776,-9.021 1.824,-2.75 3.994,-4.405 6.505,-4.974 -0.008,0.021 -0.01,0.038 -0.013,0.057 2.789,-0.625 4.989,0.448 6.459,1.905 -0.88,1.249 -1.759,2.504 -2.639,3.771 -1.072,-1.084 -2.357,-1.457 -3.861,-1.102 -1.52,0.36 -2.823,1.358 -3.897,2.988 -1.091,1.656 -1.646,3.452 -1.668,5.357 -0.025,1.928 0.493,3.424 1.545,4.481 1.046,1.048 2.322,1.359 3.834,0.942 1.521,-0.415 2.826,-1.426 3.924,-3.037 0.842,0.852 1.69,1.696 2.534,2.546 -1.505,2.191 -3.72,4.264 -6.528,5.061 z"
   id="path13318" />
					<path
   fill="#ffffff"
   d="m 85.209,151.566 c -0.052,2.872 -0.105,5.743 -0.157,8.609 2.026,-0.365 4.047,-0.714 6.073,-1.049 0.058,-2.824 0.114,-5.647 0.168,-8.474 1.216,-0.173 2.433,-0.336 3.655,-0.491 -0.147,6.991 -0.295,13.988 -0.442,20.983 -1.21,0.226 -2.42,0.454 -3.629,0.694 0.053,-2.832 0.111,-5.66 0.165,-8.488 -2.023,0.354 -4.043,0.725 -6.069,1.115 -0.049,2.874 -0.106,5.751 -0.158,8.626 -1.207,0.266 -2.417,0.533 -3.627,0.813 0.127,-7.246 0.252,-14.492 0.378,-21.732 1.211,-0.21 2.427,-0.412 3.643,-0.606 z"
   id="path13320" />
					<path
   fill="#ffffff"
   d="m 116.056,148.044 c -0.034,1.324 -0.071,2.652 -0.102,3.977 -2.451,0.19 -4.9,0.407 -7.343,0.647 -0.034,1.359 -0.066,2.722 -0.1,4.079 1.833,-0.2 3.665,-0.39 5.498,-0.559 -0.033,1.331 -0.07,2.663 -0.102,3.994 -1.834,0.194 -3.666,0.398 -5.496,0.62 -0.034,1.36 -0.067,2.719 -0.101,4.078 2.44,-0.322 4.882,-0.617 7.32,-0.888 -0.033,1.318 -0.066,2.645 -0.104,3.963 -3.656,0.445 -7.317,0.947 -10.971,1.512 0.161,-6.837 0.322,-13.672 0.48,-20.511 3.672,-0.357 7.345,-0.664 11.021,-0.912 z"
   id="path13322" />
					<path
   fill="#ffffff"
   d="m 134.063,159.544 c 3.113,-4.357 6.23,-8.598 9.35,-12.721 -0.216,6.276 -0.435,12.554 -0.649,18.83 -1.218,0.055 -2.438,0.12 -3.659,0.189 0.083,-2.566 0.173,-5.133 0.257,-7.705 -1.834,2.539 -3.667,5.115 -5.497,7.735 -1.676,-2.39 -3.358,-4.794 -5.036,-7.218 -0.081,2.646 -0.16,5.29 -0.242,7.93 -1.217,0.105 -2.44,0.216 -3.66,0.332 0.194,-6.599 0.387,-13.195 0.576,-19.791 2.856,4.19 5.709,8.329 8.56,12.419 z"
   id="path13324" />
					<path
   fill="#ffffff"
   d="m 164.086,157.457 c 0.133,-3.204 0.266,-6.413 0.396,-9.617 1.224,0.065 2.448,0.136 3.672,0.212 -0.249,5.844 -0.494,11.687 -0.745,17.528 -3.507,-3.342 -7.024,-6.721 -10.547,-10.142 -0.128,3.275 -0.257,6.546 -0.382,9.821 -1.219,0.015 -2.439,0.038 -3.656,0.067 0.229,-6.092 0.457,-12.188 0.686,-18.279 3.53,3.509 7.06,6.979 10.576,10.41 z"
   id="path13326" />
					<path
   fill="#ffffff"
   d="m 178.196,148.829 c 1.217,0.102 2.43,0.208 3.643,0.321 -0.255,5.482 -0.513,10.968 -0.774,16.451 -1.206,-0.049 -2.417,-0.097 -3.631,-0.136 0.256,-5.544 0.509,-11.091 0.762,-16.636 z"
   id="path13328" />
					<path
   fill="#ffffff"
   d="m 203.658,151.621 c -0.055,1.019 -0.111,2.044 -0.169,3.064 -1.466,-0.185 -2.935,-0.36 -4.408,-0.532 -0.222,4.166 -0.445,8.331 -0.668,12.496 -1.202,-0.097 -2.413,-0.184 -3.619,-0.268 0.221,-4.214 0.439,-8.425 0.656,-12.639 -1.476,-0.162 -2.958,-0.318 -4.44,-0.468 0.055,-1.062 0.107,-2.123 0.159,-3.187 4.173,0.461 8.339,0.969 12.489,1.534 z"
   id="path13330" />
					<path
   fill="#ffffff"
   d="m 222.042,154.395 c -2.518,3.505 -5.03,7.096 -7.555,10.771 2.286,0.266 4.56,0.549 6.836,0.844 -0.06,0.968 -0.119,1.938 -0.179,2.903 -4.159,-0.508 -8.329,-0.963 -12.512,-1.366 2.52,-3.796 5.043,-7.504 7.561,-11.129 -2.285,-0.34 -4.578,-0.664 -6.87,-0.974 0.061,-1.002 0.113,-2.008 0.173,-3.012 4.196,0.605 8.379,1.259 12.546,1.963 z"
   id="path13332" />
				</g>
			</g>
			<g
   id="g13350">
				<path
   fill="#ffffff"
   d="m 44.105,122.344 c 1.132,0.372 2.714,1.066 3.62,1.771 2.935,2.42 4.548,5.69 4.835,9.82 0.29,4.148 -0.821,7.979 -3.324,11.575 -2.49,3.658 -5.642,6.029 -9.458,7.091 -5.465,1.541 -10.898,3.192 -16.308,4.949 -1.299,-16.942 -2.595,-33.882 -3.896,-50.824 3.106,-0.682 6.223,-1.324 9.353,-1.937 1.037,-0.204 2.073,-0.397 3.11,-0.591 3.477,-0.647 6.551,0.208 9.222,2.483 2.564,2.203 3.979,5.067 4.231,8.602 0.166,2.319 -0.675,5.299 -1.385,7.061 z m -11.35,-8.463 c -1.171,0.242 -2.347,0.492 -3.52,0.746 0.23,3.045 0.46,6.092 0.687,9.135 0.788,-0.226 1.896,-0.565 3.319,-1.015 2.101,-0.748 3.782,-2.881 3.597,-5.381 -0.164,-2.28 -1.994,-3.913 -4.083,-3.485 z m 11.052,21.994 c -0.233,-3.229 -2.83,-5.238 -5.599,-4.804 -2.662,0.466 -4.935,1.149 -7.602,1.828 0.3,4.036 0.603,8.073 0.902,12.108 0.586,-0.163 1.166,-0.326 1.753,-0.488 1.936,-0.53 3.869,-1.048 5.813,-1.555 2.886,-0.748 4.96,-3.917 4.733,-7.089 z"
   id="path13338" />
				<path
   fill="#ffffff"
   d="m 102.384,98.637 c 2.18,6.717 4.355,13.357 6.519,19.922 2.499,-6.56 5.002,-12.997 7.511,-19.317 2.163,6.562 4.321,13.042 6.475,19.453 2.501,-6.229 5.005,-12.344 7.517,-18.342 2.743,0.262 5.489,0.551 8.23,0.871 -5.48,12.613 -10.937,25.763 -16.368,39.46 -2.162,-6.592 -4.332,-13.265 -6.507,-20.021 -2.478,6.781 -4.944,13.69 -7.408,20.727 -4.693,-13.928 -9.414,-28.212 -14.158,-42.857 2.731,0.003 5.46,0.039 8.189,0.104 z"
   id="path13340" />
				<path
   fill="#ffffff"
   d="m 149.534,102.629 c -0.358,9.941 -0.715,19.882 -1.071,29.826 5.04,0.291 10.074,0.668 15.098,1.133 -0.097,2.376 -0.191,4.754 -0.289,7.13 -7.526,-0.541 -15.07,-0.88 -22.624,-1.021 0.422,-12.693 0.852,-25.386 1.275,-38.078 2.537,0.315 5.074,0.648 7.611,1.01 z"
   id="path13342" />
				<path
   fill="#ffffff"
   d="m 167.998,105.592 c 2.524,0.453 5.049,0.929 7.569,1.419 -0.512,11.536 -1.021,23.069 -1.532,34.599 -2.501,-0.234 -5.007,-0.453 -7.512,-0.647 0.494,-11.79 0.985,-23.58 1.475,-35.371 z"
   id="path13344" />
				<path
   fill="#ffffff"
   d="m 201.798,130.639 c 0.316,-5.9 0.638,-11.802 0.951,-17.702 2.499,0.612 4.996,1.242 7.485,1.886 -0.598,10.622 -1.2,21.247 -1.804,31.869 -7.077,-7.243 -14.206,-14.67 -21.386,-22.271 -0.299,6.179 -0.597,12.352 -0.897,18.529 -2.491,-0.302 -4.985,-0.58 -7.483,-0.838 0.53,-11.626 1.063,-23.257 1.597,-34.887 7.227,7.986 14.409,15.791 21.537,23.414 z"
   id="path13346" />
				<path
   fill="#ffffff"
   d="m 226.987,120.416 c 4.069,1.539 7.155,4.771 9.123,7.843 -1.337,0.848 -2.679,1.721 -4.025,2.62 -1.473,-2.282 -3.291,-3.828 -5.457,-4.596 -2.216,-0.791 -4.164,-0.557 -5.847,0.711 -1.692,1.268 -2.623,3.193 -2.785,5.717 -0.166,2.53 0.485,4.905 1.947,7.109 1.438,2.187 3.263,3.558 5.485,4.172 3.415,0.93 6.194,-0.572 7.528,-2.856 -2.481,-0.8 -4.977,-1.572 -7.481,-2.309 1.723,-1.38 3.431,-2.713 5.144,-4.006 2.901,0.974 5.789,1.979 8.659,3.024 0,5.237 -1.86,8.398 -4.626,10.354 -2.791,1.992 -6.008,2.558 -9.673,1.654 -3.692,-0.928 -6.752,-3.109 -9.161,-6.705 -2.444,-3.63 -3.538,-7.632 -3.265,-11.973 0.266,-4.292 1.82,-7.604 4.654,-9.775 2.81,-2.132 6.071,-2.467 9.765,-1.046 0.008,0.02 0.013,0.041 0.015,0.062 z"
   id="path13348" />
			</g>
		</g>
		<g
   id="g13372">
			<g
   id="g13370">
				<g
   id="g13366">
					<path
   fill-rule="evenodd"
   clip-rule="evenodd"
   d="m 93.172,118.73 c 0.361,0.358 0.523,1.069 0.516,1.52 -0.011,0.599 -0.337,1.661 -0.928,2.245 -1.012,0.998 -2.227,0.625 -2.491,-0.731 -0.157,-0.8 0.19,-2.03 0.751,-2.683 0.657,-0.772 1.544,-0.958 2.152,-0.351 z"
   id="path13354" />
					<path
   fill-rule="evenodd"
   clip-rule="evenodd"
   d="m 87.73,116.746 c 1.031,0.943 0.521,2.921 -0.321,3.773 -1.35,1.378 -2.629,0.192 -2.571,-1.334 0.023,-0.775 0.629,-2.559 1.949,-2.759 0.3,-0.043 0.652,0.059 0.943,0.32 z"
   id="path13356" />
					<path
   fill-rule="evenodd"
   clip-rule="evenodd"
   d="m 88.689,123.322 c 0.069,0.059 0.323,0.316 0.418,0.513 0.474,0.993 0.154,2.799 -1.096,3.647 -0.604,0.405 -1.374,0.426 -1.882,-0.369 -0.566,-0.898 -0.251,-2.596 0.609,-3.474 0.626,-0.634 1.398,-0.797 1.951,-0.317 z"
   id="path13358" />
					<path
   fill-rule="evenodd"
   clip-rule="evenodd"
   d="m 59.492,100.484 c 5.948,-4.311 12.006,-5.233 17.592,-4.505 5.581,0.727 11.212,3.355 15.997,9.478 0.103,0.145 5.734,8.506 9.14,12.69 3.408,4.204 7.31,7.357 10.754,10.08 -5.166,-2.345 -10.202,-5.971 -15.182,-10.137 -0.125,0.181 -0.021,0.409 -0.012,0.594 0.139,3.132 -0.443,6.342 -1.493,9.382 5.096,3.983 10.081,7.241 15.296,9.723 5.197,2.474 10.419,4.492 15.619,6.62 -11.407,-1.771 -22.8,-4.952 -33.839,-10.945 -0.313,0.37 -0.548,0.754 -0.887,1.122 3.318,2.2 6.797,4.084 10.201,6.013 3.408,1.93 6.788,3.964 10.158,5.782 -7.485,-1.354 -15.256,-4.004 -22.679,-7.426 -0.429,-0.196 -1.223,-0.735 -1.478,-0.653 -0.304,0.102 -0.906,0.677 -1.157,0.853 -0.424,0.288 -0.779,0.534 -1.121,0.729 5.943,3.48 11.983,6.083 18.048,8.392 -1.974,0.009 -3.681,-0.253 -5.485,-0.64 -5.376,-1.163 -10.743,-3.267 -15.968,-6.113 -1.304,0.654 -2.678,1.016 -3.994,1.306 -3.871,0.85 -7.729,0.625 -11.463,-0.394 -4.808,-1.31 -10.244,-4.513 -13.962,-10.581 -3.261,-5.314 -4.036,-10.734 -3.276,-15.697 0.78,-5.139 2.831,-10.055 7.807,-14.55 0.458,-0.374 0.921,-0.752 1.384,-1.123 z m 35.036,45.071 c 0.849,0.287 1.8,0.676 2.646,0.872 0.382,0.088 -0.088,-0.125 -0.254,-0.199 -3.271,-1.475 -6.571,-3.1 -9.755,-5.069 -3.427,-2.125 -7.006,-4.378 -9.998,-8.476 2.694,3.133 5.525,4.909 8.367,6.688 1.015,-0.591 2.035,-1.266 3.077,-2.095 6.184,3.022 12.572,5.386 18.828,6.901 -4.766,-2.304 -9.423,-4.752 -14.029,-8.046 -1.538,-1.105 -3.19,-2.317 -4.482,-4.076 0.916,0.919 1.872,1.501 2.819,2.134 0.311,-0.378 0.584,-0.749 0.89,-1.126 -1.561,-0.776 -3.104,-2.306 -4.622,-3.467 -0.195,-0.146 -0.528,-0.291 -0.513,-0.573 2.389,1.436 4.891,2.698 7.396,3.826 2.504,1.127 4.95,2.329 7.438,3.386 4.997,2.104 9.966,4.08 15.024,5.162 -3.532,-1.507 -7,-3.181 -10.47,-5.115 -2.589,-1.444 -5.24,-2.998 -7.754,-4.938 -1.92,-1.479 -4.01,-3.066 -5.728,-5.274 0.699,0.384 1.359,1.113 2.044,1.636 1.326,-3.342 1.706,-6.993 1.224,-10.604 -1.643,-1.501 -3.815,-3.498 -4.869,-5.608 3.28,3.178 6.661,5.377 10.003,7.934 -3.543,-4.048 -6.532,-8.391 -8.814,-12.465 -0.09,-0.144 -0.237,0.169 -0.313,-0.057 -3.141,-4.245 -6.76,-6.601 -10.378,-7.999 -3.542,-1.367 -7.44,-1.744 -11.144,-1.226 -3.629,0.507 -8.031,2.079 -11.771,5.501 -3.673,3.358 -5.579,6.865 -6.599,10.593 -0.988,3.583 -1.125,7.43 -0.171,11.234 0.947,3.788 3.104,8.071 6.99,11.55 3.361,3.012 7.071,4.566 10.733,5.272 3.716,0.715 7.438,0.506 11.358,-0.791 -1.818,-1.203 -3.774,-2.343 -5.51,-3.556 6.108,2.95 12.172,5.985 18.337,8.071 z"
   id="path13360" />
					<path
   fill-rule="evenodd"
   clip-rule="evenodd"
   fill="#e95212"
   d="m 76.192,137.485 c 1.735,1.213 3.691,2.353 5.51,3.556 -3.92,1.297 -7.643,1.506 -11.358,0.791 -3.662,-0.706 -7.372,-2.261 -10.733,-5.272 -3.887,-3.479 -6.043,-7.762 -6.99,-11.55 -0.954,-3.805 -0.817,-7.651 0.171,-11.234 1.02,-3.728 2.926,-7.234 6.599,-10.593 3.739,-3.422 8.142,-4.994 11.771,-5.501 3.703,-0.519 7.602,-0.142 11.144,1.226 3.618,1.398 7.237,3.754 10.378,7.999 0.076,0.226 5.585,8.474 9.128,12.521 -3.342,-2.557 -6.723,-4.756 -10.003,-7.934 1.054,2.11 3.227,4.107 4.869,5.608 0.482,3.61 0.103,7.262 -1.224,10.604 -0.685,-0.522 -1.345,-1.252 -2.044,-1.636 1.718,2.208 3.808,3.796 5.728,5.274 2.514,1.939 5.165,3.493 7.754,4.938 3.47,1.935 6.938,3.608 10.47,5.115 -5.059,-1.082 -10.027,-3.058 -15.024,-5.162 -2.487,-1.057 -4.934,-2.259 -7.438,-3.386 -2.505,-1.128 -5.007,-2.391 -7.396,-3.826 -0.016,0.282 0.317,0.427 0.513,0.573 1.519,1.161 3.062,2.69 4.622,3.467 -0.306,0.377 -0.579,0.748 -0.89,1.126 -0.947,-0.633 -1.903,-1.215 -2.819,-2.134 1.292,1.759 2.944,2.971 4.482,4.076 4.606,3.294 9.264,5.742 14.029,8.046 -6.256,-1.516 -12.645,-3.879 -18.828,-6.901 -1.042,0.829 -2.063,1.504 -3.077,2.095 -2.842,-1.778 -5.673,-3.555 -8.367,-6.688 2.992,4.098 6.571,6.351 9.998,8.476 3.184,1.97 6.484,3.595 9.755,5.069 0.166,0.074 0.636,0.287 0.254,0.199 -0.846,-0.196 -1.797,-0.585 -2.646,-0.872 -6.167,-2.086 -12.231,-5.121 -18.338,-8.07 z M 91.02,119.081 c -0.561,0.652 -0.908,1.883 -0.751,2.683 0.265,1.356 1.479,1.729 2.491,0.731 0.591,-0.584 0.917,-1.646 0.928,-2.245 0.008,-0.45 -0.154,-1.161 -0.516,-1.52 -0.608,-0.607 -1.495,-0.421 -2.152,0.351 z M 67.684,104.34 c -5.132,2.513 -8.051,7.12 -9.133,10.979 -1.134,4.057 -0.869,8.483 1.246,12.699 1.147,2.278 3.078,4.533 5.049,6.047 1.806,1.387 3.748,2.383 5.604,2.897 0.063,0.019 0.217,0.133 0.293,0.029 -3.537,-1.944 -6.531,-6.422 -7.635,-9.899 -1.132,-3.571 -1.146,-7.188 -0.209,-10.479 0.954,-3.353 2.868,-6.904 6.681,-9.712 3.766,-2.772 7.262,-3.506 10.854,-3.629 0.016,0.018 0.05,0.013 0.027,-0.021 -4.138,-1.064 -8.379,-1.067 -12.777,1.089 z m 19.103,12.086 c -1.32,0.2 -1.926,1.983 -1.949,2.759 -0.058,1.526 1.222,2.712 2.571,1.334 0.842,-0.853 1.353,-2.83 0.321,-3.773 -0.291,-0.261 -0.643,-0.363 -0.943,-0.32 z m -0.048,7.213 c -0.86,0.878 -1.176,2.575 -0.609,3.474 0.508,0.795 1.277,0.774 1.882,0.369 1.25,-0.849 1.569,-2.654 1.096,-3.647 -0.095,-0.196 -0.349,-0.454 -0.418,-0.513 -0.554,-0.48 -1.326,-0.317 -1.951,0.317 z"
   id="path13362" />
					<path
   fill-rule="evenodd"
   clip-rule="evenodd"
   fill="#ffffff"
   d="m 80.461,103.251 c 0.022,0.033 -0.012,0.038 -0.027,0.021 -3.593,0.123 -7.089,0.856 -10.854,3.629 -3.813,2.808 -5.727,6.359 -6.681,9.712 -0.938,3.291 -0.923,6.908 0.209,10.479 1.104,3.478 4.098,7.955 7.635,9.899 -0.076,0.104 -0.23,-0.011 -0.293,-0.029 -1.855,-0.515 -3.798,-1.511 -5.604,-2.897 -1.971,-1.514 -3.901,-3.769 -5.049,-6.047 -2.115,-4.216 -2.38,-8.643 -1.246,-12.699 1.082,-3.858 4.001,-8.466 9.133,-10.979 4.398,-2.156 8.639,-2.153 12.777,-1.089 z"
   id="path13364" />
				</g>
				<path
   fill-rule="evenodd"
   clip-rule="evenodd"
   d="m 59,137.432 c 0.092,-0.118 0.171,-0.242 0.257,-0.365 0.095,0.034 0.19,0.068 0.287,0.102 0.579,0.295 1.171,0.558 1.785,0.771 6.08,5.738 22.085,9.405 27.097,10.918 -12.051,-1.396 -23.368,-5.286 -29.558,-9.719 -0.33,-0.311 -0.614,-0.611 -0.878,-0.91 0.377,-0.18 0.729,-0.437 1.01,-0.797 z"
   id="path13368" />
			</g>
		</g>
	</g>
</g>






















</svg>
