<?xml version="1.0" encoding="UTF-8" standalone="no"?>
<svg
   xmlns:dc="http://purl.org/dc/elements/1.1/"
   xmlns:cc="http://creativecommons.org/ns#"
   xmlns:rdf="http://www.w3.org/1999/02/22-rdf-syntax-ns#"
   xmlns:svg="http://www.w3.org/2000/svg"
   xmlns="http://www.w3.org/2000/svg"
   xmlns:sodipodi="http://sodipodi.sourceforge.net/DTD/sodipodi-0.dtd"
   xmlns:inkscape="http://www.inkscape.org/namespaces/inkscape"
   version="1.1"
   id="Ebene_1"
   x="0px"
   y="0px"
   width="61.223801"
   height="63.999992"
   viewBox="0 0 61.2238 63.999992"
   enable-background="new 0 0 463.785 481.91"
   xml:space="preserve"
   sodipodi:docname="lasergame_chemnitz_logo.svg"
   inkscape:version="1.0.1 (3bc2e813f5, 2020-09-07)"><metadata
   id="metadata19"><rdf:RDF><cc:Work
       rdf:about=""><dc:format>image/svg+xml</dc:format><dc:type
         rdf:resource="http://purl.org/dc/dcmitype/StillImage" /><dc:title></dc:title></cc:Work></rdf:RDF></metadata><defs
   id="defs17" /><sodipodi:namedview
   pagecolor="#ffffff"
   bordercolor="#666666"
   borderopacity="1"
   objecttolerance="10"
   gridtolerance="10"
   guidetolerance="10"
   inkscape:pageopacity="0"
   inkscape:pageshadow="2"
   inkscape:window-width="1920"
   inkscape:window-height="1017"
   id="namedview15"
   showgrid="false"
   fit-margin-top="0"
   fit-margin-left="0"
   fit-margin-right="0"
   fit-margin-bottom="0"
   inkscape:zoom="4.5685733"
   inkscape:cx="-0.67077261"
   inkscape:cy="42.939715"
   inkscape:window-x="-8"
   inkscape:window-y="-8"
   inkscape:window-maximized="1"
   inkscape:current-layer="Ebene_1" />





<path
   d="m 57.3339,60.412311 v 0.392288 h 3.1365 l -3.2393,2.783827 v 0.372544 h 3.9927 v -0.392289 h -3.2525 l 3.2525,-2.811836 v -0.344381 h -3.8899 z m -8.1073,0 v 0.392288 h 1.7937 v 3.156218 h 0.4807 v -3.156218 h 1.7937 v -0.392288 z m -4.7041,0 v 3.548506 h 0.4807 v -3.548506 z m -9.0263,0 v 3.548506 h 0.4801 v -3.116729 l 3.2495,3.116729 h 0.715 v -3.548506 h -0.4801 v 3.11734 l -3.249,-3.11734 z m -10.179,0 v 3.548506 h 0.4801 v -3.116729 h 0.01 l 2.1608,3.116729 h 0.3431 l 2.1613,-3.116729 h 0.01 v 3.116729 h 0.4802 v -3.548506 h -0.7503 l -2.0729,2.975149 -2.0728,-2.975149 z m -7.8525,0 v 3.548506 h 3.5042 v -0.392289 h -3.0235 v -1.240079 h 2.8866 v -0.391523 h -2.8866 v -1.13248 h 3.0038 v -0.392288 h -3.4845 z m -8.7622,0 v 3.548506 h 0.4802 v -1.632215 h 3.2052 v 1.632215 h 0.4801 v -3.548506 h -0.4801 v 1.524768 H 9.1827 V 60.412311 Z M 1.265,60.373431 c -0.2422,0 -0.4442,0.0277 -0.6081,0.08311 C 0.4972,60.509351 0.368,60.590467 0.2701,60.70174 0.1721,60.813014 0.1014,60.951685 0.059,61.118518 0.02,61.281832 0,61.476063 0,61.701671 v 0.97039 c 0,0.225302 0.02,0.42137 0.059,0.588204 0.042,0.163313 0.113,0.300147 0.2111,0.411421 0.098,0.111273 0.2271,0.194384 0.3868,0.250097 0.1637,0.0525 0.3659,0.07821 0.6081,0.07821 h 1.8134 c 0.2481,0 0.4508,-0.02082 0.6075,-0.06337 0.1566,-0.0424 0.2792,-0.104539 0.3676,-0.186425 0.088,-0.0851 0.1465,-0.189027 0.1764,-0.313311 0.032,-0.124436 0.049,-0.266169 0.049,-0.426268 V 62.770165 H 3.8282 v 0.22071 c 0,0.120763 -0.013,0.220404 -0.04,0.298923 -0.026,0.07821 -0.072,0.142191 -0.1375,0.191323 -0.062,0.04546 -0.1464,0.07821 -0.2546,0.09796 -0.1076,0.01913 -0.2416,0.02939 -0.4018,0.02939 H 1.3137 c -0.1142,0 -0.2224,-0.01026 -0.3234,-0.02939 -0.1016,-0.02326 -0.1895,-0.06214 -0.2648,-0.117855 -0.075,-0.05541 -0.1352,-0.131936 -0.1812,-0.230199 -0.042,-0.09811 -0.064,-0.224231 -0.064,-0.377902 v -1.332679 c 0,-0.153671 0.022,-0.279179 0.064,-0.377289 0.046,-0.09796 0.1064,-0.175099 0.1812,-0.230812 0.075,-0.05556 0.1632,-0.0926 0.2648,-0.112345 0.101,-0.0225 0.2092,-0.03459 0.3234,-0.03459 H 2.98 c 0.1107,0 0.2152,0.0054 0.3134,0.01485 0.098,0.01026 0.1829,0.03597 0.2546,0.07837 0.075,0.03964 0.1346,0.101631 0.177,0.186731 0.045,0.08479 0.068,0.202497 0.068,0.352647 v 0.161477 H 4.2145 V 61.25597 c 0,-0.117396 -0.018,-0.2302 -0.054,-0.3378 C 4.1285,60.809957 4.0695,60.717204 3.9842,60.638838 3.8992,60.556948 3.7845,60.492973 3.6411,60.447515 3.5006,60.398535 3.3212,60.374045 3.1018,60.374045 H 1.2644 Z m 25.3706,-8.437958 v 1.22707 h 2.1363 c 0.3186,-0.0049 0.5075,-0.0096 0.5661,-0.01454 0.2135,-0.01179 0.3485,-0.07714 0.4049,-0.196527 0.039,-0.08311 0.059,-0.223771 0.059,-0.420298 0,-0.170507 -0.017,-0.296628 -0.051,-0.379738 -0.051,-0.121988 -0.1741,-0.190099 -0.3683,-0.205099 -0.069,-0.0047 -0.2726,-0.0077 -0.6135,-0.01071 h -2.1327 z m 30.281,-0.07301 v 0.719987 h 4.2975 v 1.095133 h -4.2975 v 0.799577 h 4.3072 v -2.614697 z m -14.8239,-0.01071 -0.9608,1.888129 h 2.2235 l -0.9601,-1.888129 z m -33.6262,0 -0.9601,1.888129 H 9.7293 L 8.7696,51.851753 Z m 37.7993,-1.161101 h 2.7526 l 1.4829,3.235196 1.4828,-3.235196 h 2.7384 v 4.984041 h -1.4971 l 0.036,-3.731564 h -0.2481 l -1.8809,3.731564 h -1.2592 l -1.881,-3.731564 h -0.2666 l 0.037,3.731564 h -1.497 v -4.984041 z m -5.1919,0 h 2.3581 l 2.6073,4.984041 h -1.7231 l -0.4275,-0.843198 h -3.2974 l -0.4275,0.843198 H 38.43 Z m -15.9569,0 h 3.6692 c 0.867,0.0024 1.3776,0.01133 1.5337,0.0251 0.1775,0.01745 0.339,0.06934 0.4837,0.156119 0.1452,0.08617 0.2577,0.196068 0.3378,0.329994 0.083,0.143569 0.1333,0.292954 0.15,0.449227 0.022,0.182139 0.032,0.40285 0.032,0.661059 0,0.405911 -0.028,0.69014 -0.084,0.850393 -0.085,0.238465 -0.2456,0.404686 -0.4818,0.496827 -0.08,0.03168 -0.201,0.05969 -0.3611,0.08372 0.3187,0.02449 0.5471,0.115865 0.6864,0.274434 0.06,0.07056 0.104,0.151069 0.1297,0.242751 0.025,0.09076 0.042,0.224077 0.053,0.399176 0,0.09046 0,0.274434 0,0.551776 v 0.46346 h -1.497 V 55.40852 c 0,-0.297087 -0.013,-0.51045 -0.04,-0.639019 -0.039,-0.185354 -0.1375,-0.294944 -0.2955,-0.328923 -0.1053,-0.02204 -0.3258,-0.03291 -0.6618,-0.03291 H 26.632 v 1.267017 h -1.5186 z m -6.0256,0 h 5.5214 v 1.171815 h -4.0237 v 0.719987 h 3.8192 v 1.095133 h -3.8192 v 0.799577 h 4.0529 v 1.197529 h -5.5508 v -4.984041 z m 16.125,-0.07286 c 0.9542,0 1.6298,0.03765 2.0268,0.112804 0.4018,0.07531 0.684,0.209844 0.8472,0.401779 0.1435,0.173568 0.2314,0.4454 0.2631,0.818097 0.01,0.09903 0.011,0.252699 0.011,0.459788 h -1.5187 c 0,-0.135916 -0.01,-0.228976 -0.023,-0.277495 -0.034,-0.124284 -0.1424,-0.198517 -0.3253,-0.223007 -0.2403,-0.03107 -0.715,-0.04668 -1.4236,-0.04668 -0.6307,0 -1.0678,0.02036 -1.3106,0.06168 -0.2314,0.04163 -0.3719,0.167905 -0.4203,0.380044 -0.039,0.160252 -0.059,0.446625 -0.059,0.857587 0,0.472338 0.021,0.794985 0.062,0.967788 0.054,0.230965 0.2195,0.359993 0.4962,0.386779 0.137,0.01255 0.5483,0.02342 1.2346,0.03291 0.7497,-0.004 1.2329,-0.01913 1.4493,-0.04362 0.1973,-0.03168 0.3109,-0.117855 0.3397,-0.258669 0.017,-0.08801 0.026,-0.221935 0.026,-0.402391 h -1.9976 v -0.996869 h 3.4726 c 0,0.10959 0.01,0.180762 0.01,0.212445 0,0.652182 -0.017,1.155591 -0.054,1.511452 -0.059,0.573969 -0.3857,0.921717 -0.9788,1.043705 -0.3073,0.06092 -0.6427,0.09765 -1.008,0.110202 -0.3868,0.01485 -0.8466,0.02143 -1.3763,0.02143 -0.9423,0 -1.6162,-0.03398 -2.0196,-0.102243 -0.5602,-0.0926 -0.9065,-0.35035 -1.0404,-0.773557 -0.066,-0.207088 -0.1041,-0.444329 -0.1136,-0.712181 -0.012,-0.335963 -0.018,-0.69412 -0.018,-1.073705 0,-0.642845 0.03,-1.094214 0.091,-1.355026 0.088,-0.362289 0.2392,-0.618203 0.4532,-0.766516 0.1117,-0.08005 0.2522,-0.141579 0.4215,-0.18413 0.1691,-0.04301 0.4083,-0.07775 0.718,-0.104079 0.4354,-0.03918 1.0242,-0.05832 1.7669,-0.05832 z m -19.5532,-0.0043 c 0.7204,0 1.2292,0.02097 1.5264,0.06275 0.3917,0.05571 0.6738,0.153058 0.8466,0.291882 0.2343,0.192548 0.351,0.536929 0.351,1.033144 0,0.05372 0,0.138518 0,0.255914 h -1.4713 c -0.01,-0.119692 -0.014,-0.20219 -0.026,-0.24872 -0.034,-0.135916 -0.1459,-0.213057 -0.336,-0.229587 -0.1675,-0.01515 -0.5764,-0.02235 -1.2263,-0.02235 -0.6427,0 -1.0237,0.01852 -1.1426,0.05495 -0.1339,0.04439 -0.201,0.156579 -0.201,0.339637 0,0.175405 0.071,0.282239 0.2117,0.321116 0.1189,0.03168 0.6553,0.06214 1.6102,0.09168 0.864,0.02449 1.4152,0.05418 1.6538,0.09138 0.2409,0.03643 0.4328,0.09092 0.5752,0.163773 0.1423,0.07347 0.2565,0.177088 0.3413,0.311014 0.1292,0.196527 0.1938,0.514583 0.1938,0.95233 0,0.489787 -0.063,0.849015 -0.1895,1.077378 -0.1267,0.226526 -0.3337,0.381575 -0.6213,0.464073 -0.2822,0.0825 -1.0601,0.123671 -2.3329,0.123671 -0.7743,0 -1.3327,-0.02082 -1.6758,-0.06214 -0.4185,-0.04821 -0.7192,-0.142957 -0.9023,-0.283771 -0.1973,-0.151375 -0.3133,-0.364126 -0.3504,-0.639172 -0.019,-0.133926 -0.029,-0.292341 -0.029,-0.47494 v -0.263107 h 1.4714 c 0,0.245658 0.047,0.404227 0.1495,0.474787 0.054,0.03429 0.1142,0.0574 0.1829,0.06934 0.068,0.01194 0.1872,0.02097 0.3582,0.0251 0.085,0.0032 0.3635,0.0054 0.8358,0.0078 0.6475,-0.0024 1.0224,-0.006 1.1247,-0.01117 0.1925,-0.01454 0.3187,-0.04026 0.3796,-0.07653 0.085,-0.05342 0.1279,-0.172956 0.1279,-0.357697 0,-0.126579 -0.027,-0.215659 -0.081,-0.266475 -0.073,-0.07056 -0.2469,-0.108212 -0.5213,-0.11311 -0.1901,0 -0.5872,-0.01485 -1.191,-0.04423 -0.6229,-0.02923 -1.0272,-0.04592 -1.2119,-0.05082 -0.4818,-0.01485 -0.8221,-0.07056 -1.0194,-0.167905 -0.2528,-0.124437 -0.4184,-0.336117 -0.4962,-0.635652 -0.044,-0.164997 -0.066,-0.382034 -0.066,-0.650498 0,-0.564327 0.1064,-0.961972 0.3217,-1.193397 0.1603,-0.175711 0.4042,-0.290505 0.7301,-0.346677 0.2943,-0.04928 0.995,-0.07377 2.1029,-0.07377 z M 4e-4,48.475591 v 2.215061 h 1.3859 v 3.713504 h 3.5455 v 1.030083 l 2.5154,-4.743587 h 2.3592 l 2.6067,4.984041 H 10.69 L 10.2625,54.831495 H 6.9658 L 6.5389,55.674693 H 4.8038 4.8044 4e-4 v 2.425517 h 61.2234 v -2.425517 h -5.8043 v -4.984041 h 5.8043 v -2.215061 z m 0,-24.318381 v 22.044545 h 10.8994 l 0.017,-9.385389 c 1.0093,1.642164 2.205,3.130963 3.5969,4.460122 2.1769,2.077768 4.7987,3.715187 7.855,4.92542 h 23.538 c 3.0468,-1.21008 5.6823,-2.847499 7.8957,-4.92542 2.3671,-2.221031 4.1984,-4.8919 5.494,-8.012149 1.148,-2.765306 1.7865,-5.801373 1.9174,-9.107129 H 52.508 c -0.1232,1.806396 -0.5207,3.481467 -1.2041,5.020622 -0.8328,1.878333 -2.0358,3.490345 -3.61,4.839248 -1.5724,1.348751 -3.4965,2.399803 -5.7708,3.153616 -2.2737,0.753966 -4.8524,1.13003 -7.7348,1.13003 -2.9351,0 -5.5262,-0.369483 -7.7743,-1.110898 -2.2475,-0.738966 -4.1451,-1.784049 -5.6924,-3.132952 -1.5467,-1.348292 -2.7168,-2.961375 -3.5102,-4.839248 -0.6553,-1.550329 -1.0356,-3.238104 -1.1498,-5.060571 H 4e-4 Z M 32.1254,1.53e-4 V 21.681184 H 41.169 V 10.094356 h 8.5007 c 0.7126,1.033144 2.5919,3.989161 2.8626,11.73407 h 8.6915 c -0.013,-3.751768 -0.3821,-9.919563 -2.7491,-11.73407 h 2.7491 V 1.53e-4 Z m -32.125,0 v 21.82812 h 16.0502 c 0.1458,-2.967343 0.8634,-5.436635 2.1524,-7.406037 1.4547,-2.221643 3.53,-3.63575 6.2271,-4.243851 V 0.103621 c -2.6181,0.449073 -4.9835,1.33574 -7.0994,2.656328 -2.1152,1.32319 -3.9202,2.995354 -5.4144,5.018633 -0.3353,0.45443 -0.6511,0.924932 -0.9519,1.407372 L 10.9824,0 H 4e-4 Z"
   id="path12"
   style="stroke-width:0.153058" />
</svg>
