<?xml version="1.0" encoding="UTF-8" standalone="no"?>
<svg
   xmlns:dc="http://purl.org/dc/elements/1.1/"
   xmlns:cc="http://creativecommons.org/ns#"
   xmlns:rdf="http://www.w3.org/1999/02/22-rdf-syntax-ns#"
   xmlns:svg="http://www.w3.org/2000/svg"
   xmlns="http://www.w3.org/2000/svg"
   xmlns:xlink="http://www.w3.org/1999/xlink"
   xmlns:sodipodi="http://sodipodi.sourceforge.net/DTD/sodipodi-0.dtd"
   xmlns:inkscape="http://www.inkscape.org/namespaces/inkscape"
   version="1.1"
   x="0px"
   y="0px"
   width="57.805233"
   height="64"
   viewBox="0 0 57.805233 64"
   enable-background="new 0 0 420.034 468.862"
   xml:space="preserve"
   id="svg7282"
   sodipodi:docname="minigolf_chemnitz_logo.svg"
   inkscape:version="1.0.1 (3bc2e813f5, 2020-09-07)"><metadata
   id="metadata7288"><rdf:RDF><cc:Work
       rdf:about=""><dc:format>image/svg+xml</dc:format><dc:type
         rdf:resource="http://purl.org/dc/dcmitype/StillImage" /><dc:title></dc:title></cc:Work></rdf:RDF></metadata><defs
   id="defs7286">
	
	
	
	
	
	
	
	
	
	
	
	
	
	
	
	
	
	
	
	
	
	
	
	
	
	
	
	
	
	
	
	
	
	
	
	
	
	
		
	
	
	
	
	
	
	
	
	
	
	
	
	
	
	
	
	
	
	
	
	
	
</defs><sodipodi:namedview
   pagecolor="#ffffff"
   bordercolor="#666666"
   borderopacity="1"
   objecttolerance="10"
   gridtolerance="10"
   guidetolerance="10"
   inkscape:pageopacity="0"
   inkscape:pageshadow="2"
   inkscape:window-width="1920"
   inkscape:window-height="1017"
   id="namedview7284"
   showgrid="false"
   fit-margin-top="0"
   fit-margin-left="0"
   fit-margin-right="0"
   fit-margin-bottom="0"
   inkscape:zoom="6.4609375"
   inkscape:cx="30.605476"
   inkscape:cy="29.32031"
   inkscape:window-x="-8"
   inkscape:window-y="-8"
   inkscape:window-maximized="1"
   inkscape:current-layer="svg7282" />
<g
   id="Ebene_2"
   display="none"
   transform="translate(-993.917,-588.174)">
	
		<image
   display="inline"
   overflow="visible"
   width="800"
   height="513"
   xlink:href="file:///Z:/Mediengestaltung/Projektdaten/Logos/Minigolf/BA3AAA9E.jpg"
   transform="translate(1518.8345,749.2715)"
   id="image2">
	</image>
</g>
<g
   id="g1575"
   transform="translate(-993.917,-588.174)">
		<g
   id="g1457">
			<g
   id="g1439">
				<path
   fill="#ffffff"
   d="m 1933.699,3917.399 c 0.255,-0.035 0.345,-0.605 0.312,-1.444 -1.007,-44.481 -1.817,-107.84 -1.749,-150.279 1.666,0.239 5.969,1.94 13.106,5.062 10.674,45.414 25.084,104.063 34.638,140.658 1.487,0.147 2.975,0.293 4.462,0.442 0.751,6.061 1.475,12.56 2.257,18.813 -2.839,0.528 -6.931,1.312 -10.021,1.926 -4.343,0.852 -9.601,1.927 -13.523,2.761 -0.977,-7.12 -1.832,-14.031 -2.77,-20.954 1.357,-0.416 2.717,-0.833 4.074,-1.243 0.256,-0.031 0.362,-0.537 0.18,-1.256 -0.916,-3.596 -2.73,-11.357 -3.738,-15.023 -0.216,-0.979 -0.51,-1.211 -0.77,-1.201 -5.32,0.425 -10.638,0.876 -15.952,1.346 0.459,5.816 0.716,13.242 1.15,18.794 1.597,0.051 3.193,0.105 4.791,0.159 0.969,6.957 2.015,14.395 2.94,21.56 -3.335,0.739 -7.589,1.698 -11.671,2.652 -2.835,0.663 -5.668,1.333 -8.168,1.937 -1.186,-7.999 -2.326,-15.768 -3.34,-23.313 1.265,-0.471 2.529,-0.933 3.792,-1.397 z m 7.934,-101.623 c 0.42,19.033 1.008,39.518 1.555,57.262 0.055,1.049 0.216,1.578 0.393,1.586 4.088,0.131 8.179,0.27 12.27,0.412 -3.977,-16.663 -8.891,-37.905 -13.753,-59.139 -0.157,-0.04 -0.311,-0.079 -0.465,-0.121 z"
   id="path1433" />
				<path
   fill="#ffffff"
   d="m 1994.281,3910.167 c 0.17,-0.016 0.206,-0.453 0.154,-0.885 -3.942,-33.736 -7.828,-67.966 -11.662,-102.754 -1.852,-0.734 -3.704,-1.474 -5.554,-2.219 -0.75,-6.587 -1.374,-12.935 -2.092,-19.334 7.098,2.392 15.584,5.501 23.624,8.556 10.072,3.832 17.235,9.467 22.535,16.443 8.848,11.396 16.299,30.854 17.761,49.871 1.923,25.01 -2.331,43.218 -8.398,53.649 -4.191,7.994 -11.389,11.779 -17.324,12.74 -2.76,0.445 -6.963,0.932 -9.805,1.416 -3.762,0.637 -8.024,1.389 -11.365,1.997 -0.721,-5.893 -1.516,-12.46 -2.205,-18.164 1.444,-0.441 2.887,-0.88 4.331,-1.316 z m 14.488,-3.981 c 0.285,2.637 1.312,4.178 2.592,4.062 3.242,-0.293 6.731,-2.379 9.403,-9.347 3.202,-8.342 3.353,-23.578 2.226,-35.888 -1.801,-19.69 -4.816,-31.746 -10.714,-43.004 -3.851,-7.451 -7.929,-10.501 -10.501,-11.313 -1.238,-0.391 -2.17,-0.48 -2.773,-0.066 3.212,32.243 6.467,64.08 9.767,95.556 z"
   id="path1435" />
				<path
   fill="#ffffff"
   d="m 2099.028,3841.142 c -2.574,9.08 -5.696,21.302 -8.617,32.014 -3.196,13.221 -6.84,30.535 -10.086,45.623 -0.826,0.381 -5.341,0.821 -11.693,1.53 -4.143,-16.194 -9.116,-35.575 -12.954,-52.807 -2.97,-13.002 -6.479,-27.898 -9.486,-41.354 -0.022,-0.34 -0.224,-0.568 -0.522,-0.817 -1.569,-0.578 -3.137,-1.156 -4.704,-1.736 -0.346,-4.864 -0.616,-10.052 -0.935,-14.577 3.597,1.276 8.949,3.166 13.138,4.631 5.843,2.049 12.759,4.295 17.933,6.09 0.151,4.101 0.23,8.776 0.391,13.023 -2.164,-0.48 -4.328,-0.96 -6.49,-1.441 1.154,6.961 3.972,22.625 5.025,27.993 2.059,10.644 4.098,21.875 6.561,33.966 0.203,0 0.407,0.011 0.611,0.016 1.466,-9.101 2.581,-16.475 3.658,-23.039 1.258,-7.917 4.6,-25.188 5.325,-32.043 -0.01,-0.429 -0.108,-0.74 -0.3,-0.795 -1.856,-0.641 -3.713,-1.279 -5.567,-1.919 -0.202,-4.109 -0.225,-8.745 -0.322,-12.539 4.103,1.42 9.577,3.302 14.665,5.059 3.034,1.046 6.658,2.161 9.5,3.146 0.057,3.548 0.01,7.582 -0.13,11.193 -1.669,-0.406 -3.335,-0.811 -5.001,-1.217 z"
   id="path1437" />
			</g>
			<g
   id="g1447">
				<path
   fill="#ffffff"
   d="m 2111.735,3908.047 c 0.146,0 0.293,-0.25 0.296,-0.501 0.155,-19.51 0.309,-38.961 0.458,-58.361 -1.348,-0.514 -2.693,-1.043 -4.034,-1.587 0.032,-3.546 0.07,-7.475 0.173,-10.859 2.598,1.063 6.272,2.465 9.332,3.522 2.175,0.928 15.025,4.705 16.711,4.959 2.963,0.727 5.504,1.271 7.175,1.605 0.288,6.381 0.503,12.945 0.646,19.384 -2.111,0.032 -4.658,0.093 -7.054,0.032 -0.384,-2.886 -0.766,-5.785 -1.147,-8.697 -0.144,-1.035 -0.432,-1.764 -1.444,-2.206 -1.012,-0.452 -3.11,-1.331 -7.568,-2.467 -0.144,-0.038 -0.503,-0.136 -0.72,-0.187 -0.027,7.34 -0.055,14.688 -0.081,22.037 2.241,0.236 4.269,0.534 6.3,0.709 0.436,0.059 0.873,-0.67 0.947,-2.02 0.148,-1.372 0.296,-2.742 0.444,-4.113 2.319,0.264 4.716,0.736 6.826,1.133 -0.075,3.51 -0.079,7.477 -0.081,11.441 -0.077,3.959 -0.08,7.927 -0.083,10.793 -2.116,-0.021 -4.524,0.047 -6.854,-0.112 -0.094,-1.513 -0.188,-3.028 -0.281,-4.546 -0.142,-1.711 -0.505,-2.426 -1.159,-2.491 -2.034,-0.315 -4.067,-0.643 -6.169,-0.878 -0.025,6.893 -0.053,13.791 -0.078,20.692 -0.01,2.224 0.5,2.572 3.785,2.586 2.92,0.015 4.75,-0.315 5.773,-0.639 0.731,-0.332 1.097,-0.886 1.392,-2.109 0.711,-2.965 1.42,-5.908 2.13,-8.829 2.48,0.68 4.965,1.552 7.158,2.281 -0.879,6.247 -1.758,12.649 -2.713,19.114 -3.736,0.083 -13.844,0.223 -24.018,0.792 -3.367,0.187 -7.027,0.552 -10.029,0.779 0.035,-3.57 0.145,-7.402 0.18,-10.842 1.261,-0.144 2.524,-0.28 3.787,-0.415 z"
   id="path1441" />
				<path
   fill="#ffffff"
   d="m 2153.679,3908.125 c 0.219,-0.101 0.293,-0.207 0.292,-0.419 -0.031,-16.564 -0.062,-33.129 -0.091,-49.687 -1.414,-0.229 -2.828,-0.473 -4.24,-0.733 -10e-4,-2.985 -10e-4,-6.187 0.07,-9.055 4.087,0.654 9.799,1.309 14.057,1.594 5.583,11.825 14.771,31.583 21.073,45.357 0.122,-10e-4 0.243,0 0.367,0 -0.071,-11.974 -0.068,-24.153 -0.214,-36.115 -1.762,0.01 -3.525,-0.01 -5.287,-0.042 0,-2.799 0,-6.116 0.073,-8.811 2.866,-0.063 6.318,-0.232 9.546,-0.494 2.566,-0.203 5.646,-0.631 7.839,-0.916 0,2.865 0,6.055 -0.147,9.041 -1.074,0.221 -2.148,0.429 -3.223,0.632 -0.146,0.017 -0.219,0.128 -0.22,0.544 -0.127,19.23 -0.254,38.452 -0.383,57.664 -1.466,1.021 -5.204,1.869 -8.869,1.806 -4.834,-8.364 -13.126,-23.173 -21.57,-41.331 -0.172,-0.01 -0.343,-0.018 -0.515,-0.026 -0.068,10.638 -0.063,20.647 -0.131,30.972 1.809,0.122 3.617,0.242 5.426,0.363 10e-4,2.802 -0.071,6.018 -0.144,8.921 -3.079,-0.01 -6.965,-0.105 -10.481,-0.08 -2.346,0.013 -4.838,0.147 -6.889,0.174 0,-2.989 0,-6.188 0.069,-9.173 1.198,-0.065 2.394,-0.121 3.592,-0.183 z"
   id="path1443" />
				<path
   fill="#ffffff"
   d="m 2216.544,3908.572 c 0.146,0.01 0.22,-0.224 0.22,-0.448 -0.026,-17.579 -0.053,-35.137 -0.079,-52.669 -2.754,0.555 -3.987,1.104 -5.006,1.507 -1.018,0.398 -1.234,1.315 -1.38,2.332 -0.46,3.641 -0.918,7.262 -1.378,10.867 -2.479,-0.032 -5.326,-0.058 -7.665,-0.156 0.293,-7.324 0.585,-14.662 0.877,-21.907 1.534,-0.237 4.378,-0.608 6.923,-1.116 1.9,-0.287 11.529,-2.566 14.176,-3.416 2.244,-0.551 11.455,-3.561 13.354,-4.469 2.764,-1.013 5.299,-2.025 6.704,-2.606 0.36,8.405 0.728,17.138 0.885,25.961 -2.272,0.96 -5.052,1.994 -7.557,3.032 -0.409,-3.897 -0.815,-7.768 -1.222,-11.611 -0.151,-1.318 -0.44,-1.974 -1.37,-1.954 -0.931,-0.108 -1.786,-0.089 -5.012,0.774 0.031,18.67 0.062,37.366 0.094,56.09 1.752,0.154 3.503,0.316 5.254,0.489 0.02,3.446 0.042,7.142 -0.011,10.585 -3.074,-0.268 -7.541,-0.72 -11.348,-0.957 -3.515,-0.227 -7.835,-0.345 -11.497,-0.514 0,-3.219 0,-6.321 0.067,-9.537 1.658,-0.091 3.315,-0.184 4.971,-0.277 z"
   id="path1445" />
			</g>
			<g
   id="g1455">
				<path
   fill="#ffffff"
   d="m 2267.465,3883.361 c -0.283,10.735 0.856,15.508 2.786,19.364 1.574,3.193 3.791,4.726 6.818,4.845 3.201,0.126 5.192,-2.073 6.789,-5.102 2.174,-3.995 3.506,-12.578 3.943,-22.906 0.546,-12.814 1.343,-31.786 1.688,-44.615 0.013,-0.31 -0.17,-0.415 -0.354,-0.512 -2.211,0.561 -4.424,1.124 -6.637,1.683 0.145,-4.25 0.396,-8.84 0.536,-12.945 3.573,-1.271 8.583,-2.916 12.824,-4.452 4.048,-1.464 8.007,-3.075 11.473,-4.354 -0.26,4.603 -0.642,9.743 -0.912,14.503 -1.525,0.632 -3.052,1.262 -4.577,1.892 -0.857,15.096 -1.721,30.143 -2.59,45.138 -1.152,19.841 -4.941,32.003 -8.432,37.72 -3.531,5.886 -7.969,9.849 -15.842,8.911 -7.365,-0.864 -12.677,-3.778 -16.807,-10.181 -4.918,-7.098 -6.178,-17.488 -6.227,-27.118 -0.063,-12.97 -0.128,-25.942 -0.192,-38.919 0,-0.521 -0.1,-0.752 -0.481,-0.64 -1.399,0.285 -2.8,0.57 -4.199,0.856 -0.041,-3.429 -0.089,-7.24 -0.033,-10.706 3.686,-1.284 9.111,-3.036 13.369,-4.526 5.034,-1.754 10.549,-3.836 14.994,-5.41 -0.102,3.957 -0.218,8.498 -0.512,12.508 -2.158,0.736 -4.316,1.478 -6.475,2.213 -0.313,14.268 -0.63,28.518 -0.95,42.753 z"
   id="path1449" />
				<path
   fill="#ffffff"
   d="m 2313.42,3826.88 c 0.412,-5.122 0.718,-10.053 1.022,-14.979 6.648,-2.649 14.734,-5.904 22.221,-8.831 5.567,-2.175 8.443,-3.332 13.857,-2.692 7.952,0.731 11.761,15.609 10.47,29.793 -1.69,18.53 -7.771,32.114 -14.718,38.802 -0.028,0.342 -0.059,0.684 -0.088,1.026 3.645,3.966 4.692,15.745 6.697,35.657 0.466,5.16 0.953,7.355 1.881,7.656 1.335,0.57 2.67,1.143 4.006,1.721 -0.582,5.878 -1.187,11.952 -1.793,18.016 -1.607,-0.306 -4.568,-0.849 -6.262,-1.155 -1.861,-0.344 -9.095,-1.205 -10.618,-1.463 -1.406,-9.373 -3.578,-32.472 -4.558,-41.681 -0.65,-6.029 -2.058,-8.267 -4.018,-8.153 -1.158,0.067 -1.887,0.297 -2.169,0.505 -0.831,10.204 -1.665,20.375 -2.504,30.51 1.536,0.319 3.071,0.645 4.607,0.967 -0.433,5.207 -0.967,10.587 -1.401,15.771 -3.305,-0.536 -7.879,-1.258 -12.116,-1.889 -3.56,-0.536 -7.555,-0.934 -10.69,-1.373 0.314,-4.836 0.63,-9.681 0.934,-14.354 1.45,-0.074 2.899,-0.148 4.349,-0.217 0.087,0.01 0.197,-0.345 0.222,-0.698 1.945,-27.84 3.865,-55.888 5.758,-84.164 -1.696,0.408 -3.393,0.817 -5.089,1.225 z m 17.2,38.027 c 0.348,0.143 0.98,0.059 2.156,-0.087 6.066,-0.755 10.562,-10.48 11.686,-23.869 1.24,-14.819 -2.101,-24.421 -7.111,-22.756 -1.514,0.495 -2.474,0.997 -3.07,1.566 -1.214,15.13 -2.432,30.177 -3.661,45.146 z"
   id="path1451" />
				<path
   fill="#ffffff"
   d="m 2368.902,3915.459 c 0.173,0.019 0.391,-0.417 0.438,-0.875 3.699,-35.687 7.344,-72.004 10.938,-109.018 -1.771,0.474 -3.545,0.944 -5.318,1.412 0.615,-6.466 1.296,-13.646 1.982,-19.962 3.535,-1.516 8.502,-3.68 12.605,-5.507 2.964,-1.249 20.03,-9.099 22.217,-10.203 3.906,-1.854 7.237,-3.473 9.428,-4.542 -1.337,16.129 -2.839,32.756 -4.422,48.997 -2.765,1.614 -6.109,3.616 -9.237,5.261 0.22,-6.574 0.438,-13.158 0.657,-19.755 0.064,-2.332 -0.143,-3.79 -1.398,-3.832 -1.258,-0.047 -3.869,-0.06 -9.691,2.087 -0.188,0.071 -0.657,0.243 -0.939,0.344 -1.621,15.935 -3.252,31.729 -4.893,47.387 2.842,-0.741 5.383,-1.189 7.951,-1.897 0.545,-0.095 1.283,-2.002 1.705,-5.122 0.525,-3.234 1.049,-6.479 1.574,-9.729 2.961,-0.966 5.956,-1.434 8.585,-1.813 -1.026,8.659 -2.083,18.331 -3.142,27.938 -1.148,9.615 -2.211,19.155 -2.982,26.018 -2.587,0.32 -5.559,0.896 -8.382,0.953 0.256,-3.393 0.509,-6.79 0.764,-10.195 0.241,-3.819 -0.039,-5.316 -0.842,-5.25 -2.474,-0.041 -4.948,-0.074 -7.539,0.15 -1.543,14.545 -3.095,28.974 -4.655,43.29 -0.501,4.608 0.021,5.401 3.89,5.874 3.439,0.425 5.675,-0.06 6.964,-0.675 0.947,-0.663 1.521,-1.888 2.186,-4.665 1.622,-6.799 3.24,-13.649 4.855,-20.551 2.831,1.363 5.596,3.296 8.034,5.002 -2.833,15.582 -5.685,31.124 -8.606,46.341 -4.305,-1.011 -15.927,-3.919 -27.678,-6.314 -3.889,-0.796 -8.141,-1.409 -11.607,-2.086 0.638,-6.206 1.403,-12.857 2.016,-18.882 1.513,-0.062 3.028,-0.12 4.542,-0.181 z"
   id="path1453" />
			</g>
		</g>
		<g
   id="g1477">
			<g
   id="g1475">
				<path
   fill="#ffffff"
   d="m 2045.561,3939.205 c 0.01,3.523 0.013,7.047 0.019,10.57 -1.609,0.102 -3.218,0.205 -4.826,0.31 0.018,10.493 0.034,20.987 0.052,31.481 1.609,-0.026 3.219,-0.052 4.828,-0.078 0.01,3.523 0.012,7.048 0.018,10.571 -6.439,0 -12.88,0 -19.319,0 0,-3.415 -0.01,-6.829 -0.014,-10.243 1.609,-0.029 3.22,-0.059 4.829,-0.087 -0.011,-7.378 -0.021,-14.757 -0.031,-22.136 -3.21,5.614 -6.42,11.145 -9.633,16.582 -3.224,-5.248 -6.446,-10.396 -9.666,-15.436 0.01,7.117 0.012,14.236 0.017,21.354 1.609,-0.032 3.219,-0.064 4.828,-0.096 0,3.354 0.01,6.707 0.01,10.062 -6.44,0 -12.88,0 -19.32,0 0,-3.22 0,-6.44 0,-9.66 1.609,-0.036 3.218,-0.071 4.827,-0.104 0,-9.766 -0.01,-19.529 -0.01,-29.295 -1.606,0.139 -3.213,0.277 -4.819,0.42 0,-3.221 0,-6.439 0,-9.66 4.861,-0.537 9.725,-1.051 14.589,-1.541 3.171,4.879 6.346,9.867 9.521,14.955 3.164,-5.5 6.326,-11.086 9.488,-16.75 4.867,-0.43 9.737,-0.836 14.61,-1.219 z"
   id="path1459" />
				<path
   fill="#ffffff"
   d="m 2068.401,3981.164 c 1.609,-0.02 3.22,-0.041 4.829,-0.06 0.01,3.651 0.013,7.304 0.02,10.955 -6.439,0 -12.88,0 -19.319,0 -0.01,-3.565 -0.013,-7.132 -0.019,-10.696 1.609,-0.023 3.22,-0.049 4.829,-0.07 -0.02,-10.766 -0.038,-21.531 -0.058,-32.297 -1.61,0.092 -3.22,0.182 -4.829,0.277 -0.01,-3.566 -0.013,-7.132 -0.019,-10.697 6.437,-0.471 12.875,-0.902 19.316,-1.291 0.01,3.651 0.013,7.303 0.02,10.955 -1.61,0.078 -3.22,0.158 -4.83,0.239 0.021,10.895 0.041,21.791 0.06,32.685 z"
   id="path1461" />
				<path
   fill="#ffffff"
   d="m 2129.362,3934.912 c 0,3.811 0.01,7.619 0.011,11.43 -1.612,0.03 -3.224,0.063 -4.835,0.099 0.016,15.206 0.031,30.413 0.047,45.619 -3.22,0 -6.44,0 -9.66,0 -6.293,-11.779 -12.591,-23.427 -18.891,-34.873 0.013,7.892 0.024,15.784 0.037,23.675 1.61,-0.014 3.22,-0.029 4.83,-0.042 0.01,3.747 0.011,7.493 0.017,11.24 -6.439,0 -12.88,0 -19.319,0 -0.01,-3.684 -0.013,-7.368 -0.02,-11.052 1.61,-0.018 3.221,-0.035 4.831,-0.052 -0.019,-11.103 -0.038,-22.207 -0.057,-33.31 -1.61,0.068 -3.221,0.135 -4.832,0.207 -0.01,-3.684 -0.013,-7.368 -0.019,-11.052 4.832,-0.266 9.664,-0.51 14.498,-0.73 6.302,11.338 12.602,22.893 18.897,34.593 -0.01,-7.998 -0.021,-15.994 -0.03,-23.99 -1.611,0.043 -3.223,0.088 -4.834,0.135 -0.01,-3.771 -0.01,-7.541 -0.015,-11.313 6.448,-0.235 12.896,-0.43 19.344,-0.584 z"
   id="path1463" />
				<path
   fill="#ffffff"
   d="m 2152.25,3980.555 c 1.61,0 3.22,0 4.83,-0.01 0,3.838 0,7.675 0,11.513 -6.439,0 -12.88,0 -19.319,0 0,-3.822 -0.01,-7.644 -0.01,-11.466 1.611,-0.01 3.222,-0.011 4.832,-0.016 -0.01,-11.48 -0.015,-22.963 -0.021,-34.443 -1.611,0.021 -3.224,0.042 -4.835,0.065 0,-3.821 -0.01,-7.644 -0.01,-11.466 6.449,-0.118 12.898,-0.196 19.348,-0.234 10e-4,3.838 0,7.675 0,11.512 -1.612,0.01 -3.224,0.018 -4.835,0.029 0,11.504 0.01,23.01 0.012,34.514 z"
   id="path1465" />
				<path
   fill="#ffffff"
   d="m 2194.438,3954.799 c 0,-0.956 10e-4,-1.91 0,-2.866 10e-4,-1.585 -0.47,-2.938 -1.413,-4.073 -0.942,-1.13 -2.083,-1.71 -3.418,-1.725 -3.224,-0.039 -6.447,-0.07 -9.671,-0.094 -1.337,-0.012 -2.477,0.545 -3.42,1.663 -0.944,1.12 -1.417,2.472 -1.417,4.063 0,7.675 0,15.35 -0.01,23.023 0,1.593 0.472,2.945 1.415,4.073 0.941,1.124 2.08,1.688 3.415,1.69 3.221,0.01 6.441,0.014 9.662,0.023 1.334,0 2.474,-0.552 3.418,-1.668 0.943,-1.116 1.417,-2.465 1.418,-4.049 0,-0.764 0,-1.528 0,-2.292 -3.222,-0.021 -6.443,-0.037 -9.665,-0.05 0,-3.832 0,-7.663 0,-11.495 6.445,0.042 12.891,0.106 19.335,0.192 0,4.568 -0.01,9.139 -0.013,13.707 0,2.395 -0.384,4.619 -1.146,6.687 -0.76,2.065 -1.797,3.872 -3.11,5.423 -1.313,1.55 -2.854,2.777 -4.626,3.676 -1.772,0.898 -3.646,1.351 -5.625,1.351 -3.22,0 -6.439,0 -9.659,0 -2.024,0 -3.91,-0.451 -5.658,-1.356 -1.748,-0.902 -3.277,-2.141 -4.589,-3.702 -1.31,-1.56 -2.346,-3.388 -3.104,-5.472 -0.758,-2.084 -1.139,-4.334 -1.139,-6.746 0,-7.678 0,-15.355 0,-23.033 0,-2.358 0.38,-4.597 1.141,-6.705 0.759,-2.113 1.796,-3.949 3.108,-5.509 1.313,-1.561 2.845,-2.79 4.596,-3.685 1.751,-0.892 3.64,-1.336 5.667,-1.316 3.225,0.029 6.449,0.068 9.674,0.118 1.981,0.028 3.857,0.513 5.631,1.448 1.771,0.932 3.314,2.189 4.626,3.77 1.312,1.582 2.347,3.424 3.103,5.535 0.76,2.111 1.136,4.333 1.134,6.673 0,0.952 0,1.903 0,2.855 -3.223,-0.05 -6.446,-0.095 -9.669,-0.134 z"
   id="path1467" />
				<path
   fill="#ffffff"
   d="m 2236.175,3936.071 c 1.98,0.091 3.854,0.62 5.625,1.581 1.771,0.961 3.311,2.227 4.62,3.796 1.309,1.569 2.342,3.386 3.097,5.446 0.756,2.061 1.132,4.222 1.128,6.484 -0.013,7.369 -0.026,14.734 -0.039,22.104 0,2.317 -0.387,4.467 -1.149,6.461 -0.761,1.994 -1.8,3.743 -3.114,5.242 -1.313,1.498 -2.856,2.687 -4.629,3.561 -1.772,0.876 -3.647,1.313 -5.626,1.313 -3.22,0 -6.439,0 -9.659,0 -2.024,10e-4 -3.911,-0.444 -5.656,-1.335 -1.748,-0.891 -3.275,-2.105 -4.585,-3.652 -1.308,-1.541 -2.342,-3.346 -3.099,-5.411 -0.757,-2.063 -1.134,-4.286 -1.131,-6.672 0.01,-7.587 0.017,-15.173 0.025,-22.76 0,-2.329 0.386,-4.528 1.147,-6.598 0.762,-2.065 1.8,-3.851 3.114,-5.353 1.314,-1.502 2.846,-2.666 4.598,-3.496 1.75,-0.83 3.64,-1.197 5.666,-1.123 3.222,0.128 6.444,0.265 9.667,0.412 z m 4.805,16.956 c 0,-1.537 -0.467,-2.869 -1.408,-3.996 -0.942,-1.124 -2.08,-1.714 -3.415,-1.762 -3.222,-0.117 -6.443,-0.227 -9.666,-0.329 -1.336,-0.044 -2.477,0.474 -3.42,1.551 -0.946,1.081 -1.419,2.399 -1.421,3.962 -0.011,7.545 -0.021,15.088 -0.03,22.632 0,1.563 0.469,2.901 1.41,4.014 0.94,1.109 2.078,1.672 3.413,1.681 3.221,0.026 6.44,0.054 9.661,0.082 1.334,0.012 2.474,-0.523 3.419,-1.602 0.944,-1.078 1.419,-2.388 1.421,-3.928 0.012,-7.436 0.025,-14.869 0.036,-22.305 z"
   id="path1469" />
				<path
   fill="#ffffff"
   d="m 2292.692,3976.352 c -0.01,5.235 -0.018,10.472 -0.025,15.708 -11.27,0 -22.54,0 -33.81,0 0.01,-3.652 0.013,-7.304 0.02,-10.956 1.61,0.02 3.22,0.04 4.83,0.061 0.02,-10.896 0.039,-21.792 0.06,-32.688 -1.61,-0.082 -3.221,-0.162 -4.831,-0.24 0.01,-3.65 0.014,-7.305 0.02,-10.955 6.441,0.389 12.88,0.82 19.316,1.29 -0.01,3.566 -0.013,7.132 -0.019,10.698 -1.609,-0.096 -3.219,-0.186 -4.828,-0.277 -0.02,10.768 -0.038,21.533 -0.058,32.301 3.22,0.045 6.438,0.092 9.658,0.141 0,-1.771 0.01,-3.541 0.01,-5.313 3.22,0.071 6.439,0.149 9.658,0.23 z"
   id="path1471" />
				<path
   fill="#ffffff"
   d="m 2334.826,3943.76 c 0,4.83 0,9.66 0,14.49 -3.213,-0.248 -6.427,-0.49 -9.642,-0.723 10e-4,-1.645 0,-3.289 0,-4.934 -3.213,-0.267 -6.427,-0.526 -9.642,-0.777 0,3.353 -0.01,6.706 -0.01,10.06 3.216,0.188 6.431,0.383 9.646,0.583 0,3.289 0,6.578 -0.01,9.867 -3.217,-0.134 -6.434,-0.263 -9.65,-0.389 0,3.354 -0.01,6.707 -0.01,10.061 1.609,0.031 3.218,0.064 4.827,0.096 0,3.322 0,6.645 -0.01,9.966 -6.439,0 -12.88,0 -19.319,0 0.01,-3.443 0.01,-6.887 0.015,-10.33 1.609,0.028 3.219,0.058 4.829,0.087 0.013,-10.244 0.026,-20.486 0.039,-30.729 -1.607,-0.117 -3.216,-0.232 -4.824,-0.346 0.01,-3.443 0.01,-6.887 0.016,-10.33 11.254,0.991 22.5,2.108 33.735,3.348 z"
   id="path1473" />
			</g>
		</g>
		<rect
   x="1985.933"
   y="4008.6909"
   fill-rule="evenodd"
   clip-rule="evenodd"
   fill="#ffffff"
   width="357.97101"
   height="7.5"
   id="rect1479" />
		<rect
   x="1991.709"
   y="4029.4409"
   fill-rule="evenodd"
   clip-rule="evenodd"
   fill="none"
   width="366.22198"
   height="43.497002"
   id="rect1481" />
		
			<text
   transform="translate(1991.709,4067.1934)"
   fill="#ffffff"
   font-family="SegoeUI-Bold"
   font-size="51px"
   letter-spacing="10"
   id="text1483">CHEMNITZ</text>
		<g
   id="g1509">
			<path
   fill="#ffffff"
   d="m 2048.794,3610.84 -4.169,-3.521 c 1.272,-0.22 2.44,-0.64 3.506,-1.258 1.065,-0.617 1.979,-1.378 2.742,-2.281 0.448,-0.53 0.791,-1.032 1.029,-1.509 0.238,-0.476 0.385,-0.918 0.438,-1.326 0.055,-0.407 0.022,-0.773 -0.099,-1.099 -0.119,-0.324 -0.314,-0.601 -0.584,-0.828 -0.364,-0.309 -0.778,-0.479 -1.241,-0.513 -0.462,-0.033 -0.968,0.027 -1.515,0.182 -0.548,0.155 -1.144,0.385 -1.788,0.689 -0.644,0.305 -1.325,0.644 -2.044,1.02 -1.84,0.945 -3.502,1.406 -4.984,1.381 -1.482,-0.024 -2.845,-0.561 -4.087,-1.61 -0.972,-0.821 -1.644,-1.723 -2.012,-2.704 -0.369,-0.981 -0.495,-1.999 -0.379,-3.054 0.117,-1.055 0.443,-2.115 0.979,-3.181 0.535,-1.065 1.221,-2.094 2.058,-3.084 0.821,-0.973 1.608,-1.785 2.36,-2.438 0.751,-0.651 1.517,-1.192 2.296,-1.621 l 3.895,3.291 c -0.48,0.129 -0.96,0.309 -1.437,0.538 -0.477,0.23 -0.935,0.494 -1.373,0.793 -0.439,0.3 -0.848,0.62 -1.227,0.963 -0.378,0.343 -0.715,0.688 -1.008,1.034 -0.403,0.479 -0.725,0.951 -0.964,1.419 -0.238,0.468 -0.39,0.906 -0.452,1.314 -0.063,0.409 -0.04,0.784 0.064,1.126 0.105,0.343 0.302,0.635 0.589,0.876 0.313,0.265 0.662,0.419 1.049,0.463 0.387,0.044 0.819,0.01 1.298,-0.109 0.479,-0.117 1.007,-0.303 1.587,-0.558 0.579,-0.254 1.213,-0.56 1.901,-0.916 0.943,-0.482 1.843,-0.873 2.696,-1.171 0.854,-0.298 1.683,-0.473 2.485,-0.523 0.803,-0.052 1.584,0.05 2.343,0.305 0.76,0.255 1.518,0.701 2.273,1.339 1.042,0.881 1.75,1.817 2.124,2.811 0.374,0.994 0.494,2.014 0.361,3.062 -0.134,1.048 -0.485,2.103 -1.054,3.162 -0.568,1.061 -1.273,2.091 -2.117,3.089 -0.866,1.025 -1.776,1.927 -2.731,2.705 -0.955,0.778 -1.889,1.358 -2.808,1.742 z"
   id="path1485" />
			<path
   fill="#ffffff"
   d="m 2078.062,3581.311 c -0.775,1.825 -2.246,3.685 -4.412,5.577 -2.824,2.469 -5.771,3.58 -8.841,3.334 -3.069,-0.247 -5.813,-1.753 -8.229,-4.518 -2.573,-2.945 -3.751,-6.128 -3.533,-9.55 0.218,-3.422 1.778,-6.401 4.68,-8.938 1.798,-1.571 3.511,-2.668 5.141,-3.292 l 3.49,3.993 c -1.876,0.342 -3.603,1.2 -5.177,2.577 -1.729,1.511 -2.649,3.274 -2.761,5.289 -0.112,2.015 0.645,3.951 2.269,5.809 1.556,1.78 3.297,2.762 5.223,2.943 1.925,0.183 3.735,-0.468 5.431,-1.949 1.617,-1.414 2.754,-3.102 3.41,-5.064 z"
   id="path1487" />
			<path
   fill="#ffffff"
   d="m 2102.712,3566.527 -4.729,2.858 -5.152,-8.522 -8.669,5.24 5.152,8.522 -4.714,2.85 -12.651,-20.928 4.714,-2.85 5.046,8.348 8.669,-5.24 -5.046,-8.348 4.729,-2.858 z"
   id="path1489" />
			<path
   fill="#ffffff"
   d="m 2132.77,3529.097 1.701,25.237 -5.784,1.953 -8.865,-13.566 c -0.467,-0.706 -0.883,-1.531 -1.25,-2.476 l -0.064,0.022 c 0.26,1.088 0.412,2.002 0.458,2.743 l 1.077,16.195 -6.026,2.035 -13.915,-21.112 5.703,-1.926 8.475,14.328 c 0.361,0.609 0.763,1.458 1.202,2.546 l 0.097,-0.033 c -0.237,-0.844 -0.387,-1.801 -0.448,-2.872 l -0.988,-16.784 5.591,-1.888 9.051,14.276 c 0.333,0.524 0.737,1.312 1.212,2.363 l 0.064,-0.022 c -0.244,-0.865 -0.422,-1.765 -0.533,-2.699 l -2.022,-16.543 z"
   id="path1491" />
			<path
   fill="#ffffff"
   d="m 2166.905,3549.354 -5.959,0.726 -2.384,-5.189 -8.634,1.051 -1.052,5.608 -5.926,0.722 5.881,-25.352 6.484,-0.789 z m -10.106,-8.509 -3.601,-7.842 c -0.267,-0.586 -0.49,-1.298 -0.673,-2.135 l -0.135,0.017 c 0.029,0.718 -0.025,1.44 -0.166,2.168 l -1.639,8.549 z"
   id="path1493" />
			<path
   fill="#ffffff"
   d="m 2193.651,3550.457 -6.319,-0.316 -3.483,-6.475 c -0.26,-0.491 -0.511,-0.931 -0.753,-1.318 -0.243,-0.389 -0.491,-0.722 -0.744,-1.002 -0.254,-0.28 -0.521,-0.499 -0.804,-0.655 -0.283,-0.156 -0.595,-0.243 -0.935,-0.261 l -1.482,-0.074 -0.468,9.351 -5.502,-0.275 1.224,-24.424 8.721,0.437 c 5.927,0.297 8.779,2.66 8.558,7.088 -0.042,0.852 -0.213,1.632 -0.51,2.34 -0.298,0.708 -0.699,1.339 -1.205,1.895 -0.506,0.555 -1.107,1.026 -1.804,1.412 -0.696,0.387 -1.465,0.678 -2.306,0.875 v 0.068 c 0.357,0.132 0.7,0.334 1.028,0.606 0.328,0.272 0.643,0.587 0.943,0.943 0.3,0.356 0.586,0.738 0.856,1.145 0.27,0.406 0.515,0.803 0.734,1.188 z m -13.971,-21.053 -0.341,6.796 2.385,0.119 c 1.181,0.06 2.146,-0.234 2.896,-0.879 0.762,-0.656 1.168,-1.496 1.219,-2.518 0.107,-2.135 -1.116,-3.267 -3.672,-3.395 z"
   id="path1495" />
			<path
   fill="#ffffff"
   d="m 2216.313,3555.225 -19.253,-4.158 0.67,-3.101 15.798,-13.772 -11.368,-2.455 0.946,-4.385 18.336,3.961 -0.651,3.017 -15.553,13.931 12.019,2.596 z"
   id="path1497" />
			<path
   fill="#ffffff"
   d="m 2236.51,3562.588 -13.626,-5.143 8.636,-22.879 5.153,1.944 -7.058,18.699 8.472,3.198 z"
   id="path1499" />
			<path
   fill="#ffffff"
   d="m 2247.455,3568.172 -4.894,-2.527 11.221,-21.729 4.895,2.527 z"
   id="path1501" />
			<path
   fill="#ffffff"
   d="m 2270.268,3581.749 c -1.96,-0.302 -4.124,-1.27 -6.491,-2.903 -3.088,-2.13 -4.891,-4.713 -5.407,-7.748 -0.517,-3.036 0.269,-6.065 2.354,-9.088 2.221,-3.22 5.016,-5.145 8.386,-5.775 3.37,-0.63 6.642,0.147 9.814,2.336 1.965,1.356 3.45,2.747 4.456,4.172 l -3.012,4.366 c -0.792,-1.734 -2.05,-3.195 -3.771,-4.384 -1.891,-1.304 -3.826,-1.762 -5.806,-1.374 -1.98,0.389 -3.671,1.598 -5.072,3.629 -1.343,1.946 -1.865,3.875 -1.567,5.786 0.298,1.911 1.373,3.506 3.226,4.784 1.77,1.22 3.685,1.906 5.748,2.059 z"
   id="path1503" />
			<path
   fill="#ffffff"
   d="m 2290.675,3602.004 -3.937,-3.877 6.988,-7.096 -7.218,-7.107 -6.988,7.095 -3.925,-3.864 17.16,-17.424 3.925,3.865 -6.845,6.95 7.217,7.107 6.845,-6.949 3.937,3.877 z"
   id="path1505" />
			<path
   fill="#ffffff"
   d="m 2322.436,3611.109 -4.077,-5.658 -16.201,11.675 -3.23,-4.482 16.201,-11.675 -4.059,-5.632 3.639,-2.622 11.366,15.772 z"
   id="path1507" />
		</g>
		<g
   id="g1573">
			<path
   fill-rule="evenodd"
   clip-rule="evenodd"
   fill="#ffffff"
   d="m 2171.064,3573.457 c 3.865,0 7.73,0 11.595,0 29.26,1.952 51.868,11.988 69.799,25.69 17.82,13.616 32.781,31.364 42.289,53.201 3.742,-0.502 7.439,-1.894 10.913,-0.908 3.631,1.03 7.33,6.188 9.549,9.548 2.797,4.235 4.352,9.143 5.002,13.869 0,1.82 0,3.639 0,5.456 -1.424,13.356 -6.157,23.399 -15.232,29.102 -2.001,38.367 -17.84,65.13 -38.196,85.486 -20.366,20.366 -46.692,36.616 -84.806,38.879 -4.016,0 -8.032,0 -12.048,0 -36.415,-1.562 -62.014,-15.996 -82.305,-34.104 -20.193,-18.022 -36.022,-42.221 -41.379,-74.799 -13.49,-7.277 -27.636,-13.896 -41.379,-20.918 -0.58,-18.896 -1.003,-37.951 -1.818,-56.611 0,-0.381 0,-0.758 0,-1.138 21.357,-5.699 42.592,-11.519 64.114,-17.052 22.559,-30.641 53.562,-52.842 103.902,-55.701 z m -4.32,9.32 c -28.554,1.656 -50.192,11.462 -67.524,25.236 -17.403,13.835 -30.515,32.382 -38.424,54.339 31.574,8.743 63.163,17.474 94.808,26.146 1.006,-3.186 7.81,-7.367 10.005,-2.5 -2.061,1.047 -3.84,2.374 -5.457,3.865 2.791,0.733 4.938,1.169 7.275,1.818 2.146,0.595 4.655,2.131 7.048,2.047 3.381,-0.12 4.629,-3.215 6.821,-4.547 2.184,-1.328 5.331,-1.851 7.729,-0.455 9.894,-3.445 19.883,-6.793 29.784,-10.23 -1.77,-1.617 -4.16,-3.859 -3.411,-7.73 1.029,-5.323 8.726,-8.641 14.097,-5.229 -3.409,3.032 -6.995,7.1 -7.729,12.049 5.918,-2.267 12.229,-4.139 18.188,-6.366 -0.979,-7.192 8.141,-6.999 8.867,-11.822 0.642,-4.254 -3.654,-7.141 -2.046,-12.504 1.166,-1.486 3.856,-1.448 5.457,-2.5 2.545,-3.492 -1.186,-7.656 -0.228,-11.597 4.652,-0.799 5.923,-6.109 5.002,-11.14 1.564,-0.45 2.893,0.532 4.319,-0.229 -1.758,-5.138 -5.426,-8.367 -10.686,-10.003 0.042,1.359 0.702,3.619 -0.227,4.547 -2.311,-0.769 -5.17,-3.424 -5.23,-6.366 -0.032,-1.64 0.772,-2.267 1.137,-3.411 -20.103,-13.853 -45.723,-25.381 -79.575,-23.418 z m 96.855,44.563 c -0.7,2.021 -1.604,4.352 -2.956,6.365 -1.24,1.851 -3.457,3.569 -3.864,5.23 -0.618,2.521 0.599,5.008 0.682,7.957 -5.297,3.045 -4.976,11.571 -4.548,19.78 3.92,-1.008 7.422,-2.432 11.141,-3.639 1.391,-5.077 -0.745,-9.819 -1.819,-13.868 1.248,0.035 2.45,0.025 3.412,-0.228 2.834,-1.974 1.209,-7.688 0.454,-10.686 0.761,-0.831 2.639,-0.544 3.865,-0.909 2.913,-4.418 -0.366,-12.488 -6.367,-10.002 z m -203.486,9.095 c -14.865,4.229 -29.814,8.38 -44.106,13.186 11.186,3.063 22.074,6.421 33.422,9.322 1.761,-9.304 6.131,-15.998 10.684,-22.508 z m 221.675,12.049 c -1.279,-2.813 -2.768,-7.389 -5.685,-9.322 -0.647,4.635 0.644,10.385 5.685,9.322 z m -6.82,2.728 c 0.884,-0.555 1.104,-1.774 1.817,-2.5 -0.68,-3.413 -2.748,-5.438 -4.773,-7.503 -1.534,3.445 -1.836,9.874 2.956,10.003 z m -266.236,2.502 c -0.296,16.512 1.539,30.896 1.59,47.063 12.102,6.249 25.698,13.185 39.788,18.188 4.089,1.452 11.063,4.691 15.688,3.182 7.922,-2.584 7.708,-19.66 15.006,-21.598 8.787,-2.334 12.595,7.961 15.005,13.868 2.265,5.553 4.28,14.007 7.502,18.188 3.1,4.024 8.76,6.098 14.324,8.412 17.064,7.101 34.154,10.171 54.565,13.643 -0.227,-18.864 0.4,-37.591 0,-55.931 -54.472,-15.177 -108.493,-30.801 -163.242,-45.698 -0.264,0.038 -0.245,0.36 -0.226,0.683 z m 266.007,0 c -3.715,0.302 -5.052,2.981 -4.774,7.274 2.337,-0.694 4.43,-1.632 6.82,-2.273 -0.242,-2.107 -1.359,-3.339 -2.046,-5.001 z m 7.503,3.182 c 0.521,-0.616 1.937,-0.336 2.273,-1.136 -0.444,-0.389 -1.271,-0.396 -1.819,-0.682 0.024,0.643 -0.901,1.502 -0.454,1.818 z m 29.557,34.332 c 1.548,-3.957 3.187,-9.05 2.955,-13.643 -0.473,-9.371 -6.236,-19.864 -13.642,-20.462 -2.185,-0.177 -5.985,1.158 -8.639,1.819 -8.232,2.053 -16.332,5.048 -23.418,7.503 -31.053,10.76 -62.993,20.987 -91.171,32.738 -0.424,17.311 -0.151,35.317 -0.228,52.975 26.217,-15.077 56.841,-34.863 84.123,-51.609 6.676,-4.098 14.618,-8.211 21.371,-12.732 2.355,-1.576 4.575,-3.609 7.049,-4.319 6.896,-1.982 12.86,2.399 14.095,7.503 0.75,3.094 -0.355,7.377 0.684,9.549 3.075,-1.053 5.216,-5.227 6.821,-9.322 z m -28.875,0.454 c -1.442,0.982 -2.962,1.888 -4.547,2.729 -0.869,2.769 -1.233,6.043 -2.273,8.639 6.72,4.079 10.189,-6.65 6.82,-11.368 z m 9.777,9.094 c 1.102,-1.804 3.382,-6.731 0,-7.73 -0.327,2.429 -3.739,6.618 0,7.73 z m -33.648,5.685 c 5.247,3.093 10.668,-1.971 10.685,-6.821 -3.394,2.439 -7.352,4.319 -10.685,6.821 z m -169.837,82.075 c 5.279,-5.684 10.433,3.729 15.915,4.092 2.756,0.183 5.202,-1.491 7.275,-1.364 3.891,0.239 4.806,3.482 8.868,4.548 3.887,1.02 9.011,0.044 10.23,-3.411 2.481,-7.029 -6.7,-11.554 -12.505,-8.867 -1.717,0.796 -1.832,3.578 -4.547,3.865 -2.69,0.285 -6.65,-2.388 -6.139,-5.684 0.35,-2.264 3.778,-3.827 6.139,-4.093 4.29,-0.481 7.116,1.053 10.002,2.274 1.864,0.788 5.233,2.875 6.822,2.728 2.214,-0.203 3.746,-3.952 6.593,-5.002 6.542,-2.412 13.048,5.436 19.326,2.502 3.859,-1.805 4.668,-6.531 9.32,-6.593 -0.596,-1.06 -2.158,-1.928 -2.728,-3.412 -2.298,-5.974 2.451,-10.637 6.366,-12.504 -22.49,-3.564 -43.193,-7.964 -60.478,-16.37 -2.068,1.038 -2.856,3.356 -5.229,4.093 -2.288,-1.292 -1.408,-6.029 0.454,-7.047 -10.418,-6.861 -9.402,-25.156 -18.644,-33.195 -6.655,4.064 -7.334,15.18 -15.006,18.643 -4.449,2.012 -10.791,2.661 -16.597,0.455 5.458,27.512 18.349,47.59 34.563,64.342 z m 160.514,-57.749 c 9.25,1.689 13.498,-9.969 9.094,-17.052 -6.887,1.905 -9.63,7.952 -11.368,15.006 1.852,-0.411 1.149,1.732 2.274,2.046 z m 24.782,-17.052 c -2.4,3.759 -6.052,7.41 -5.685,13.187 7.699,2.184 10.537,-9.518 5.685,-13.187 z m -43.199,9.777 c -1.713,1.063 -8.592,4.355 -9.093,5.912 -0.614,1.9 0.907,4.94 2.045,5.682 4.479,2.926 10.281,-2.31 12.96,-5.228 3.255,-3.546 5.168,-7.594 4.32,-12.505 -0.152,0 -0.304,0 -0.455,0 -3.077,1.856 -5.545,3.516 -9.777,6.139 z m 34.333,13.414 c -4.001,2.896 -7.7,6.093 -7.503,13.187 6.253,-0.253 10.544,-7.273 7.503,-13.187 z m -31.376,14.551 c 7.326,5.359 15.65,-2.547 14.551,-12.051 -8.146,-3.352 -11.942,6.213 -14.551,12.051 z m -11.141,-12.733 c -5.956,3.101 -19.08,9.665 -12.277,17.963 10.295,0.65 17.126,-4.083 16.143,-15.462 -1.606,-0.515 -2.286,-1.957 -3.866,-2.501 z m -45.244,17.735 c 3.728,0.289 5.914,2.119 7.048,5 -7.346,2.279 -14.208,5.042 -16.596,12.278 1.632,2.842 4.726,5.366 8.411,5.001 2.186,-0.216 8.307,-3.293 10.459,-6.139 2.119,-2.8 2.036,-7.482 0.455,-10.458 3.737,-4.447 10.503,-5.867 15.232,-9.321 -1.174,-4.045 -0.098,-9.995 0.909,-12.505 -8.412,5.608 -17.532,10.509 -25.918,16.144 z m 53.657,2.5 c -3.755,4.202 -9.302,6.615 -11.369,12.505 7.411,7.027 20.472,-8.088 11.369,-12.505 z m 20.916,0.228 c -0.291,-0.013 -0.315,-0.292 -0.683,-0.228 -2.872,3.798 -6.996,6.343 -8.184,11.821 7.074,0.502 10.9,-5.178 8.867,-11.593 z m -41.606,1.818 c -6.837,1.955 -15.436,4.117 -16.597,12.506 9.343,5.475 25.23,-4.63 16.597,-12.506 z m -12.05,17.734 c -6.488,2.076 -12.857,4.271 -15.006,10.687 7.397,4.74 19.256,-1.695 15.006,-10.687 z m 8.184,9.321 c 6.954,2.695 14.204,-1.125 13.87,-8.639 -6.936,-1.183 -11.487,3.773 -13.87,8.639 z m 29.785,-8.639 c -1.961,3.578 -7.68,4.593 -7.73,9.322 6.231,0.094 8.746,-3.531 9.775,-8.64 -0.89,-0.018 -1.418,-0.4 -2.045,-0.682 z m -59.114,6.139 c -0.147,-1.607 -1.961,-4.489 -3.637,-4.093 -5.372,1.272 -10.314,4.449 -12.959,8.867 3.272,8.643 17.293,2.801 16.596,-4.774 z m -23.416,0.683 c -1.167,-1.594 -2.965,-1.958 -5.457,-2.047 -5.5,-0.197 -10.85,3.372 -11.823,8.412 3.339,8.376 23.949,2.753 17.28,-6.365 z m -59.113,8.411 c 3.593,2.166 6.103,5.416 10.003,7.275 0.464,-1.278 1.649,-1.837 1.818,-3.41 -1.816,-3.32 -8.161,-8.634 -11.821,-3.865 z m 101.4,4.093 c 5.604,0.97 10.308,-0.694 10.458,-5.911 -4.957,-0.404 -8.423,2.637 -10.458,5.911 z m 16.598,3.182 c 5.354,0.398 10.183,-2.83 10.685,-7.275 -4.581,1.407 -8.25,3.724 -10.685,7.275 z m -36.149,1.366 c 4.777,3.573 14.818,1.701 13.868,-5.912 -6.5,-0.812 -11.512,1.822 -13.868,5.912 z m -53.884,3.182 c 1.624,-0.335 3.233,-1.939 3.182,-3.637 -0.149,-5.085 -11.812,-6.014 -14.551,-2.048 1.965,2.443 6.035,6.781 11.369,5.685 z m 47.29,-3.411 c -0.201,-6.882 -15.333,-1.206 -15.233,2.275 3.029,4.671 15.406,3.7 15.233,-2.275 z m -37.969,2.048 c 2.562,3.392 10.115,4.646 14.551,2.271 1.027,-2.532 0.019,-5.374 -1.364,-6.819 -5.855,0.057 -12.588,-0.765 -13.187,4.548 z m 62.067,5.455 c 5.208,0.646 10.455,-0.393 11.597,-4.547 -4.834,-0.354 -8.906,2.003 -11.597,4.547 z m -79.119,-2.046 c 1.023,1.176 4.063,2.303 6.139,3.184 -0.62,-2.352 -3.18,-3.924 -6.139,-3.184 z m 59.794,6.82 c 4.134,2.505 10.381,0.22 11.596,-3.637 -4.606,-1.161 -9.857,0.468 -11.596,3.637 z m -43.424,-0.226 c 1.786,1.852 5.697,1.578 7.502,3.411 1.775,-0.802 3.611,-1.544 3.865,-3.866 -1.518,-2.778 -10.646,-3.717 -11.367,0.455 z m 21.826,1.137 c 1.874,2.811 11.988,4.08 11.367,-1.82 -3.338,-1.92 -9.622,-0.688 -11.367,1.82 z"
   id="path1511" />
			<path
   fill-rule="evenodd"
   clip-rule="evenodd"
   fill="#ffffff"
   d="m 2214.944,3590.962 c -0.508,2.296 -1.898,3.711 -3.183,5.229 -5.136,-0.852 -0.779,-7.566 3.183,-5.229 z"
   id="path1513" />
			<path
   fill-rule="evenodd"
   clip-rule="evenodd"
   fill="#ffffff"
   d="m 2207.67,3601.875 c -0.959,2.226 -1.898,4.47 -3.412,6.139 -5.045,-1.121 -0.648,-9.432 3.412,-6.139 z"
   id="path1515" />
			<path
   fill-rule="evenodd"
   clip-rule="evenodd"
   fill="#ffffff"
   d="m 2232.906,3602.558 c 0.354,2.856 -1.217,3.786 -2.047,5.456 -6.04,-0.828 -2.799,-10.395 2.047,-5.456 z"
   id="path1517" />
			<path
   fill-rule="evenodd"
   clip-rule="evenodd"
   fill="#ffffff"
   d="m 2226.768,3612.334 c -0.152,3.127 -1.77,6.769 -4.32,6.821 -5.677,0.118 -1.556,-11.456 4.32,-6.821 z"
   id="path1519" />
			<path
   fill-rule="evenodd"
   clip-rule="evenodd"
   fill="#ffffff"
   d="m 2200.848,3612.561 c -0.88,2.304 -1.896,4.47 -3.409,6.141 -5.04,-1.115 -0.642,-9.427 3.409,-6.141 z"
   id="path1521" />
			<path
   fill-rule="evenodd"
   clip-rule="evenodd"
   fill="#ffffff"
   d="m 2246.774,3616.427 c 1.207,4.599 -3.035,5.562 -3.409,9.321 -6.964,-1.019 -3.735,-14.959 3.409,-9.321 z"
   id="path1523" />
			<path
   fill-rule="evenodd"
   clip-rule="evenodd"
   fill="#ffffff"
   d="m 2218.81,3625.066 c 0.502,5.58 -5.021,5.136 -5.23,10.004 -5.816,-2.444 -1.958,-13.412 5.23,-10.004 z"
   id="path1525" />
			<path
   fill-rule="evenodd"
   clip-rule="evenodd"
   fill="#ffffff"
   d="m 2192.892,3625.066 c -1.113,3.814 -3.941,5.911 -6.594,8.185 -3.254,-4.104 1.4,-9.66 6.594,-8.185 z"
   id="path1527" />
			<path
   fill-rule="evenodd"
   clip-rule="evenodd"
   fill="#ffffff"
   d="m 2241.546,3628.476 c -1.48,3.675 -3.614,6.696 -4.774,10.687 -3.57,-1.146 -6.102,-4.898 -4.548,-9.32 1.228,-3.499 6.896,-4.273 9.322,-1.367 z"
   id="path1529" />
			<path
   fill-rule="evenodd"
   clip-rule="evenodd"
   fill="#ffffff"
   d="m 2211.988,3642.801 c -0.123,1.462 -1.781,2.014 -2.729,3.182 -1.95,2.41 -3.281,5.808 -5.683,7.731 -7.133,-4.259 1.485,-15.902 8.412,-10.913 z"
   id="path1531" />
			<path
   fill-rule="evenodd"
   clip-rule="evenodd"
   fill="#ffffff"
   d="m 2182.205,3643.027 c 0.229,0.912 -1.079,1.6 -1.819,2.501 -2.059,2.506 -4.194,6.218 -7.503,7.503 -4.865,-5.521 1.992,-13.84 9.322,-10.004 z"
   id="path1533" />
			<path
   fill-rule="evenodd"
   clip-rule="evenodd"
   fill="#ffffff"
   d="m 2236.771,3644.163 c -2.558,3.736 -5.975,6.607 -5.912,12.96 -12.957,0.364 -3.275,-20.867 5.912,-12.96 z"
   id="path1535" />
			<path
   fill-rule="evenodd"
   clip-rule="evenodd"
   fill="#ffffff"
   d="m 2155.604,3645.756 c -1.964,3.266 -3.667,6.791 -8.411,7.275 1.314,-3.914 2.81,-7.647 8.411,-7.275 z"
   id="path1537" />
			<path
   fill-rule="evenodd"
   clip-rule="evenodd"
   fill="#ffffff"
   d="m 2132.868,3649.166 c -1.804,2.971 -4.608,4.939 -7.048,7.275 -0.765,-4.63 2.409,-7.292 7.048,-7.275 z"
   id="path1539" />
			<path
   fill-rule="evenodd"
   clip-rule="evenodd"
   fill="#ffffff"
   d="m 2024.418,3702.822 c -5.354,-5.966 -7.781,-20.666 -5.227,-32.285 1.017,-4.631 1.15,-7.965 7.047,-7.275 2.327,0.273 5.277,1.686 8.186,2.501 2.717,0.762 5.543,1.588 8.185,2.274 5.511,1.432 12.429,1.908 16.598,4.547 7.766,4.918 11.818,26.945 6.366,37.059 -0.93,1.721 -3.014,4.305 -4.776,4.549 -1.925,0.265 -7.544,-1.885 -9.549,-2.503 -9.516,-2.928 -17.027,-6.208 -26.83,-8.867 z"
   id="path1541" />
			<path
   fill-rule="evenodd"
   clip-rule="evenodd"
   fill="#ffffff"
   d="m 2202.212,3664.854 c -5.062,2.744 -8.285,7.326 -12.05,11.369 -4.061,-7.364 4.844,-16.006 12.05,-11.369 z"
   id="path1543" />
			<path
   fill-rule="evenodd"
   clip-rule="evenodd"
   fill="#ffffff"
   d="m 2172.883,3666.218 c -5.146,1.597 -6.226,7.264 -11.367,8.866 -0.703,-7.083 5.246,-11.545 11.367,-8.866 z"
   id="path1545" />
			<path
   fill-rule="evenodd"
   clip-rule="evenodd"
   fill="#ffffff"
   d="m 2144.918,3667.81 c -2.216,3.77 -4.443,7.531 -8.185,9.775 -4.64,-4.661 1.58,-10.697 8.185,-9.775 z"
   id="path1547" />
			<path
   fill-rule="evenodd"
   clip-rule="evenodd"
   fill="#ffffff"
   d="m 2121.046,3670.311 c -1.368,2.875 -3.41,5.077 -7.275,5.456 0.405,-3.839 3.195,-5.292 7.275,-5.456 z"
   id="path1549" />
			<path
   fill-rule="evenodd"
   clip-rule="evenodd"
   fill="#ffffff"
   d="m 2108.541,3687.135 c 3.329,-0.32 7.292,1.799 10.913,2.729 6.151,1.578 14.917,3.548 21.145,5.456 3.229,0.99 6.848,1.905 9.094,4.093 4.488,4.369 6.636,13.35 7.049,21.827 0.413,8.504 0.137,19.693 -6.594,21.599 -3.58,1.013 -7.862,-1.23 -10.913,-2.273 -7.487,-2.564 -13.424,-4.267 -20.688,-6.595 -3.525,-1.129 -7.259,-1.772 -9.776,-3.638 -6.226,-4.608 -8.623,-23.209 -6.14,-35.013 0.817,-3.894 1.861,-7.796 5.91,-8.185 z"
   id="path1551" />
			<path
   fill-rule="evenodd"
   clip-rule="evenodd"
   fill="#ffffff"
   d="m 2061.934,3728.968 c 0.352,1.642 -0.907,1.67 -0.682,3.183 -1.87,0.052 -2.779,-0.857 -2.729,-2.727 0.78,-0.427 2.358,-1.034 3.411,-0.456 z"
   id="path1553" />
			<path
   fill-rule="evenodd"
   clip-rule="evenodd"
   fill="#ffffff"
   d="m 2069.208,3736.244 c -1.328,-2.062 0.74,-3.914 1.365,-5.457 4.209,0.375 2.106,5.797 -1.365,5.457 z"
   id="path1555" />
			<path
   fill-rule="evenodd"
   clip-rule="evenodd"
   fill="#ffffff"
   d="m 2091.035,3736.017 c -1.631,2.386 -3.276,4.757 -7.276,4.774 -2.932,-4.202 4.183,-7.962 7.276,-4.774 z"
   id="path1557" />
			<path
   fill-rule="evenodd"
   clip-rule="evenodd"
   fill="#ffffff"
   d="m 2067.39,3753.977 c -1.448,-1.311 -1.307,-4.267 -0.228,-5.912 3.915,0.383 4.234,5.477 0.228,5.912 z"
   id="path1559" />
			<path
   fill-rule="evenodd"
   clip-rule="evenodd"
   fill="#ffffff"
   d="m 2081.713,3753.75 c 8.559,-1.85 -1.438,10.822 -3.182,4.775 -0.73,-2.528 1.248,-4.357 3.182,-4.775 z"
   id="path1561" />
			<path
   fill-rule="evenodd"
   clip-rule="evenodd"
   fill="#ffffff"
   d="m 2106.949,3759.207 c -3.085,2.447 -5.85,5.214 -9.776,6.82 -0.465,-2.253 -1.901,-3.69 -1.363,-5.911 0.984,-4.075 9.219,-4.094 11.139,-0.909 z"
   id="path1563" />
			<path
   fill-rule="evenodd"
   clip-rule="evenodd"
   fill="#ffffff"
   d="m 2158.332,3761.253 c -4.977,3.434 -10.965,5.858 -13.868,11.367 -12.058,-7.347 7.935,-22.052 13.868,-11.367 z"
   id="path1565" />
			<path
   fill-rule="evenodd"
   clip-rule="evenodd"
   fill="#ffffff"
   d="m 2132.414,3761.935 c -4.109,2.408 -9.363,3.672 -11.368,8.185 -1.979,-1.132 -4.001,-1.978 -4.092,-4.546 -0.219,-6.147 12.393,-10.197 15.46,-3.639 z"
   id="path1567" />
			<path
   fill-rule="evenodd"
   clip-rule="evenodd"
   fill="#ffffff"
   d="m 2075.119,3771.484 c 1.559,-6.041 12.433,-0.482 6.367,3.409 -3.756,0.498 -4.13,-2.387 -6.367,-3.409 z"
   id="path1569" />
			<path
   fill-rule="evenodd"
   clip-rule="evenodd"
   fill="#ffffff"
   d="m 2102.403,3777.851 c -1.026,3.686 -12.766,6.598 -11.368,-0.684 0.9,-4.685 10.098,-3.2 11.368,0.684 z"
   id="path1571" />
		</g>
	</g><g
   id="g7279"
   transform="matrix(0.16981262,0,0,0.16981262,-168.77965,-99.879368)">
		<g
   id="g7103">
			<path
   fill-rule="evenodd"
   clip-rule="evenodd"
   fill="#52c1dd"
   d="m 1159.769,801.843 c -21.826,-0.935 -39.883,-8.412 -56.827,-23.531 -15.248,-13.609 -24.777,-30.502 -28.338,-50.229 -5.15,-2.742 -10.513,-5.394 -15.712,-7.964 -3.475,-1.718 -7.069,-3.494 -10.574,-5.285 l -1.582,-0.809 -0.055,-1.775 c -0.11,-3.606 -0.212,-7.222 -0.314,-10.838 -0.25,-8.871 -0.509,-18.045 -0.897,-26.922 v -3.198 l 2.23,-0.596 c 4.243,-1.132 8.479,-2.271 12.714,-3.41 9.505,-2.557 19.322,-5.197 29.091,-7.716 17.899,-23.877 40.484,-35.815 70.985,-37.549 l 0.17,-0.005 h 7.842 l 0.1,0.007 c 18.165,1.213 34.392,7.19 48.228,17.765 12.439,9.504 21.913,21.114 28.187,34.536 1.194,-0.238 2.429,-0.467 3.746,-0.467 0.924,0 1.77,0.112 2.584,0.344 3.31,0.938 6.048,4.559 8.065,7.608 1.955,2.962 3.272,6.595 3.81,10.51 l 0.028,0.204 v 4.008 l -0.017,0.158 c -1.017,9.537 -4.462,16.514 -10.248,20.765 -1.497,22.526 -10.106,41.366 -26.291,57.553 -16.708,16.708 -35.867,25.485 -58.572,26.834 l -0.089,0.006 z"
   id="path7099" />
			<path
   fill="#ffffff"
   d="m 1168.399,625.021 c 19.535,1.305 34.631,8.004 46.604,17.154 11.9,9.092 21.889,20.943 28.238,35.523 1.874,-0.252 3.73,-0.837 5.519,-0.837 0.597,0 1.187,0.065 1.766,0.229 2.426,0.688 4.895,4.133 6.377,6.375 1.867,2.828 2.906,6.105 3.34,9.262 0,1.215 0,2.428 0,3.643 -0.951,8.918 -4.111,15.625 -10.172,19.432 -1.336,25.617 -11.912,43.486 -25.504,57.08 -13.598,13.598 -31.176,24.447 -56.625,25.959 -2.682,0 -5.363,0 -8.045,0 -24.314,-1.041 -41.406,-10.682 -54.955,-22.771 -13.482,-12.033 -24.051,-28.191 -27.627,-49.943 -9.008,-4.859 -18.453,-9.279 -27.631,-13.969 -0.387,-12.617 -0.668,-25.34 -1.213,-37.799 0,-0.254 0,-0.506 0,-0.76 14.26,-3.805 28.439,-7.691 42.809,-11.385 15.063,-20.461 35.764,-35.283 69.377,-37.193 2.58,0 5.16,0 7.742,0 m 0.201,-6.01 h -0.201 -7.742 -0.17 l -0.17,0.01 c -16.997,0.966 -31.491,5.034 -44.309,12.437 -10.624,6.134 -19.889,14.477 -28.271,25.465 -9.446,2.442 -18.919,4.99 -28.101,7.46 -4.235,1.14 -8.471,2.278 -12.713,3.41 l -4.46,1.19 v 4.616 0.76 0.132 l 0.01,0.131 c 0.387,8.852 0.645,18.013 0.895,26.871 0.102,3.619 0.204,7.238 0.315,10.85 l 0.109,3.551 3.163,1.616 c 3.522,1.8 7.125,3.58 10.609,5.303 4.751,2.349 9.639,4.765 14.36,7.249 3.88,19.783 13.634,36.758 29.022,50.492 17.251,15.394 36.452,23.34 58.7,24.292 l 0.128,0.006 h 0.128 8.045 0.178 l 0.178,-0.011 c 23.472,-1.395 43.267,-10.458 60.518,-27.709 16.399,-16.401 25.271,-35.442 27.066,-58.128 5.816,-4.805 9.289,-12.187 10.335,-21.995 l 0.034,-0.318 v -0.319 -3.643 -0.411 l -0.056,-0.406 c -0.599,-4.357 -2.078,-8.423 -4.278,-11.755 -2.305,-3.486 -5.494,-7.639 -9.753,-8.846 -1.072,-0.304 -2.217,-0.457 -3.405,-0.457 -0.704,0 -1.377,0.052 -2.021,0.131 -6.468,-12.991 -15.899,-24.272 -28.087,-33.584 -14.313,-10.939 -31.086,-17.122 -49.852,-18.375 l -0.2,-0.015 z"
   id="path7101" />
		</g>
		<g
   id="g7277">
			<g
   id="g7275">
				<g
   id="g7129">
					<g
   id="g7111">
						<path
   fill="#212044"
   d="m 996.544,860.837 c 0.176,-0.025 0.238,-0.42 0.217,-1 -0.697,-30.822 -1.262,-74.721 -1.213,-104.127 1.154,0.164 4.137,1.344 9.082,3.506 7.396,31.467 17.381,72.105 24,97.461 1.031,0.102 2.061,0.203 3.092,0.307 0.52,4.199 1.021,8.703 1.564,13.035 -1.969,0.367 -4.803,0.908 -6.943,1.334 -3.01,0.592 -6.652,1.336 -9.371,1.914 -0.676,-4.934 -1.27,-9.723 -1.92,-14.52 0.941,-0.287 1.883,-0.578 2.824,-0.861 0.178,-0.021 0.25,-0.373 0.125,-0.869 -0.635,-2.492 -1.893,-7.871 -2.592,-10.41 -0.148,-0.68 -0.352,-0.84 -0.533,-0.832 -3.686,0.293 -7.371,0.607 -11.053,0.932 0.318,4.029 0.496,9.176 0.799,13.023 1.105,0.035 2.211,0.072 3.318,0.109 0.672,4.82 1.396,9.973 2.037,14.938 -2.313,0.512 -5.258,1.178 -8.088,1.838 -1.963,0.461 -3.926,0.924 -5.656,1.342 -0.824,-5.543 -1.613,-10.926 -2.316,-16.152 0.875,-0.326 1.75,-0.646 2.627,-0.968 z m 5.498,-70.414 c 0.289,13.188 0.697,27.383 1.076,39.676 0.039,0.729 0.15,1.094 0.271,1.1 2.832,0.09 5.668,0.188 8.502,0.285 -2.754,-11.545 -6.158,-26.264 -9.529,-40.977 -0.107,-0.028 -0.215,-0.055 -0.32,-0.084 z"
   id="path7105" />
						<path
   fill="#212044"
   d="m 1038.521,855.827 c 0.119,-0.012 0.145,-0.316 0.107,-0.615 -2.73,-23.375 -5.424,-47.092 -8.08,-71.195 -1.283,-0.51 -2.566,-1.021 -3.848,-1.537 -0.521,-4.566 -0.953,-8.963 -1.449,-13.398 4.916,1.658 10.797,3.813 16.367,5.93 6.979,2.654 11.943,6.559 15.615,11.393 6.131,7.896 11.293,21.379 12.307,34.555 1.332,17.33 -1.615,29.945 -5.818,37.174 -2.906,5.539 -7.893,8.162 -12.004,8.828 -1.914,0.309 -4.826,0.645 -6.795,0.98 -2.605,0.441 -5.561,0.963 -7.875,1.385 -0.5,-4.084 -1.049,-8.635 -1.527,-12.586 1,-0.308 2,-0.613 3,-0.914 z m 10.039,-2.76 c 0.197,1.826 0.908,2.895 1.797,2.814 2.244,-0.203 4.662,-1.648 6.514,-6.477 2.219,-5.781 2.322,-16.336 1.543,-24.867 -1.248,-13.643 -3.338,-21.996 -7.424,-29.797 -2.668,-5.162 -5.494,-7.275 -7.275,-7.838 -0.859,-0.27 -1.504,-0.332 -1.922,-0.045 2.226,22.341 4.479,44.402 6.767,66.21 z"
   id="path7107" />
						<path
   fill="#212044"
   d="m 1111.099,807.999 c -1.783,6.291 -3.945,14.76 -5.969,22.182 -2.215,9.16 -4.74,21.158 -6.99,31.611 -0.572,0.264 -3.699,0.57 -8.102,1.061 -2.871,-11.221 -6.316,-24.65 -8.975,-36.59 -2.059,-9.008 -4.49,-19.33 -6.574,-28.652 -0.016,-0.236 -0.154,-0.395 -0.363,-0.568 -1.086,-0.4 -2.172,-0.801 -3.258,-1.201 -0.24,-3.371 -0.428,-6.967 -0.648,-10.102 2.492,0.885 6.201,2.195 9.104,3.209 4.049,1.42 8.84,2.977 12.426,4.221 0.105,2.84 0.16,6.08 0.27,9.021 -1.498,-0.332 -2.998,-0.664 -4.496,-0.998 0.799,4.824 2.752,15.678 3.482,19.396 1.426,7.375 2.838,15.158 4.545,23.535 0.141,0.004 0.283,0.008 0.424,0.012 1.016,-6.307 1.789,-11.416 2.535,-15.965 0.871,-5.484 3.188,-17.451 3.689,-22.203 0,-0.297 -0.076,-0.512 -0.209,-0.549 -1.285,-0.445 -2.572,-0.887 -3.857,-1.33 -0.139,-2.848 -0.154,-6.061 -0.223,-8.689 2.842,0.984 6.637,2.289 10.162,3.506 2.102,0.725 4.613,1.498 6.582,2.18 0.039,2.459 0.01,5.254 -0.09,7.756 -1.155,-0.28 -2.311,-0.562 -3.465,-0.843 z"
   id="path7109" />
					</g>
					<g
   id="g7119">
						<path
   fill="#212044"
   d="m 1119.903,854.356 c 0.102,0 0.203,-0.174 0.205,-0.348 0.107,-13.518 0.213,-26.994 0.316,-40.438 -0.934,-0.355 -1.865,-0.723 -2.795,-1.1 0.023,-2.457 0.049,-5.18 0.119,-7.523 1.801,0.736 4.348,1.707 6.467,2.439 1.508,0.645 10.412,3.262 11.58,3.438 2.053,0.502 3.813,0.879 4.971,1.111 0.199,4.422 0.348,8.969 0.447,13.432 -1.463,0.021 -3.229,0.064 -4.889,0.021 -0.266,-2 -0.529,-4.008 -0.793,-6.025 -0.102,-0.717 -0.301,-1.223 -1.002,-1.529 -0.701,-0.313 -2.154,-0.922 -5.244,-1.709 -0.1,-0.025 -0.348,-0.094 -0.498,-0.129 -0.02,5.086 -0.039,10.176 -0.057,15.27 1.553,0.162 2.959,0.369 4.365,0.49 0.303,0.041 0.605,-0.463 0.656,-1.398 0.104,-0.951 0.205,-1.9 0.307,-2.852 1.609,0.184 3.27,0.512 4.73,0.785 -0.051,2.434 -0.055,5.182 -0.055,7.928 -0.055,2.744 -0.057,5.494 -0.059,7.48 -1.467,-0.016 -3.135,0.031 -4.75,-0.08 -0.064,-1.047 -0.129,-2.098 -0.193,-3.148 -0.1,-1.186 -0.35,-1.682 -0.803,-1.727 -1.412,-0.219 -2.82,-0.445 -4.275,-0.609 -0.018,4.777 -0.037,9.557 -0.055,14.338 -0.01,1.541 0.348,1.783 2.623,1.793 2.023,0.01 3.291,-0.219 4,-0.443 0.508,-0.23 0.76,-0.613 0.965,-1.461 0.492,-2.055 0.984,-4.094 1.475,-6.119 1.719,0.473 3.441,1.076 4.961,1.582 -0.609,4.328 -1.219,8.764 -1.881,13.244 -2.588,0.059 -9.592,0.154 -16.641,0.549 -2.334,0.129 -4.869,0.383 -6.949,0.539 0.025,-2.473 0.1,-5.127 0.125,-7.512 0.875,-0.099 1.752,-0.195 2.627,-0.289 z"
   id="path7113" />
						<path
   fill="#212044"
   d="m 1148.966,854.411 c 0.152,-0.068 0.203,-0.145 0.203,-0.291 -0.023,-11.477 -0.043,-22.955 -0.064,-34.428 -0.979,-0.158 -1.959,-0.326 -2.938,-0.508 0,-2.068 0,-4.285 0.049,-6.273 2.832,0.453 6.789,0.906 9.74,1.104 3.867,8.193 10.234,21.885 14.602,31.43 0.084,-0.002 0.168,-0.002 0.254,-0.002 -0.049,-8.297 -0.047,-16.736 -0.148,-25.025 -1.221,0.006 -2.443,-0.004 -3.664,-0.029 0,-1.938 0,-4.236 0.051,-6.105 1.986,-0.043 4.379,-0.16 6.615,-0.342 1.777,-0.141 3.912,-0.436 5.432,-0.633 0,1.984 0,4.193 -0.104,6.264 -0.742,0.152 -1.488,0.297 -2.232,0.438 -0.102,0.012 -0.152,0.088 -0.152,0.377 -0.088,13.324 -0.176,26.643 -0.266,39.955 -1.016,0.707 -3.605,1.295 -6.145,1.25 -3.35,-5.795 -9.096,-16.055 -14.947,-28.637 -0.117,-0.008 -0.236,-0.014 -0.355,-0.02 -0.047,7.371 -0.043,14.307 -0.09,21.461 1.252,0.084 2.506,0.168 3.76,0.252 0,1.941 -0.051,4.17 -0.1,6.18 -2.135,-0.004 -4.826,-0.072 -7.264,-0.055 -1.625,0.01 -3.352,0.102 -4.773,0.121 0,-2.072 0,-4.287 0.049,-6.355 0.827,-0.047 1.657,-0.086 2.487,-0.129 z"
   id="path7115" />
						<path
   fill="#212044"
   d="m 1192.524,854.722 c 0.102,0.002 0.152,-0.156 0.152,-0.311 -0.02,-12.182 -0.037,-24.348 -0.055,-36.494 -1.908,0.383 -2.764,0.764 -3.469,1.043 -0.705,0.277 -0.855,0.912 -0.957,1.617 -0.318,2.521 -0.635,5.031 -0.955,7.529 -1.717,-0.021 -3.689,-0.039 -5.311,-0.107 0.203,-5.076 0.406,-10.16 0.609,-15.182 1.063,-0.164 3.031,-0.42 4.795,-0.771 1.316,-0.199 7.988,-1.779 9.824,-2.367 1.555,-0.383 7.936,-2.467 9.252,-3.096 1.914,-0.703 3.672,-1.404 4.645,-1.807 0.25,5.824 0.504,11.873 0.613,17.988 -1.574,0.664 -3.5,1.381 -5.236,2.1 -0.283,-2.699 -0.564,-5.381 -0.846,-8.045 -0.105,-0.912 -0.305,-1.367 -0.951,-1.354 -0.643,-0.076 -1.236,-0.063 -3.471,0.537 0.021,12.936 0.043,25.891 0.064,38.863 1.215,0.107 2.428,0.219 3.641,0.34 0.014,2.387 0.029,4.947 -0.01,7.334 -2.131,-0.186 -5.225,-0.5 -7.861,-0.664 -2.436,-0.156 -5.43,-0.238 -7.967,-0.355 0,-2.23 0,-4.379 0.047,-6.607 1.15,-0.064 2.297,-0.127 3.445,-0.191 z"
   id="path7117" />
					</g>
					<g
   id="g7127">
						<path
   fill="#212044"
   d="m 1227.808,837.253 c -0.197,7.438 0.592,10.744 1.93,13.418 1.092,2.211 2.627,3.273 4.725,3.355 2.217,0.088 3.598,-1.436 4.703,-3.533 1.506,-2.77 2.43,-8.717 2.732,-15.873 0.379,-8.879 0.932,-22.023 1.17,-30.914 0.01,-0.215 -0.117,-0.287 -0.244,-0.354 -1.533,0.389 -3.066,0.779 -4.6,1.166 0.102,-2.945 0.275,-6.127 0.371,-8.971 2.477,-0.881 5.947,-2.02 8.887,-3.084 2.805,-1.016 5.549,-2.131 7.949,-3.018 -0.18,3.189 -0.445,6.752 -0.633,10.049 -1.057,0.438 -2.113,0.875 -3.17,1.311 -0.596,10.459 -1.193,20.887 -1.795,31.275 -0.799,13.748 -3.424,22.174 -5.842,26.135 -2.447,4.078 -5.521,6.826 -10.977,6.176 -5.104,-0.598 -8.785,-2.617 -11.646,-7.055 -3.408,-4.918 -4.279,-12.117 -4.314,-18.789 -0.043,-8.986 -0.088,-17.977 -0.133,-26.967 0,-0.361 -0.068,-0.521 -0.334,-0.443 -0.969,0.197 -1.939,0.395 -2.91,0.594 -0.027,-2.375 -0.061,-5.018 -0.021,-7.418 2.553,-0.891 6.313,-2.105 9.264,-3.137 3.488,-1.215 7.309,-2.658 10.389,-3.748 -0.07,2.742 -0.15,5.887 -0.354,8.666 -1.496,0.51 -2.992,1.023 -4.488,1.533 -0.22,9.888 -0.439,19.761 -0.659,29.626 z"
   id="path7121" />
						<path
   fill="#212044"
   d="m 1259.649,798.116 c 0.285,-3.549 0.496,-6.965 0.707,-10.379 4.607,-1.836 10.211,-4.092 15.398,-6.119 3.857,-1.506 5.85,-2.309 9.602,-1.865 5.51,0.508 8.148,10.816 7.254,20.645 -1.172,12.84 -5.385,22.252 -10.197,26.885 -0.02,0.236 -0.041,0.475 -0.063,0.711 2.525,2.748 3.252,10.91 4.641,24.707 0.324,3.574 0.662,5.096 1.303,5.305 0.926,0.395 1.852,0.791 2.777,1.191 -0.404,4.074 -0.822,8.281 -1.244,12.484 -1.111,-0.213 -3.164,-0.59 -4.338,-0.801 -1.289,-0.238 -6.301,-0.836 -7.357,-1.014 -0.975,-6.496 -2.479,-22.5 -3.158,-28.881 -0.449,-4.178 -1.426,-5.729 -2.783,-5.648 -0.803,0.045 -1.307,0.205 -1.502,0.35 -0.576,7.07 -1.154,14.117 -1.734,21.139 1.064,0.223 2.127,0.447 3.191,0.67 -0.299,3.609 -0.67,7.336 -0.971,10.928 -2.289,-0.371 -5.461,-0.871 -8.396,-1.309 -2.465,-0.371 -5.234,-0.646 -7.406,-0.951 0.219,-3.35 0.436,-6.707 0.646,-9.945 1.006,-0.051 2.01,-0.104 3.014,-0.15 0.059,0.004 0.137,-0.238 0.152,-0.484 1.348,-19.289 2.678,-38.725 3.99,-58.316 -1.174,0.283 -2.35,0.564 -3.526,0.847 z m 11.918,26.35 c 0.24,0.098 0.678,0.041 1.494,-0.061 4.203,-0.521 7.316,-7.262 8.096,-16.539 0.859,-10.268 -1.455,-16.92 -4.928,-15.766 -1.049,0.342 -1.713,0.689 -2.127,1.084 -0.839,10.483 -1.685,20.909 -2.535,31.282 z"
   id="path7123" />
						<path
   fill="#212044"
   d="m 1298.093,859.493 c 0.119,0.012 0.27,-0.289 0.303,-0.607 2.564,-24.727 5.09,-49.891 7.58,-75.537 -1.229,0.328 -2.457,0.654 -3.686,0.979 0.426,-4.479 0.896,-9.455 1.373,-13.83 2.449,-1.051 5.891,-2.551 8.734,-3.816 2.055,-0.865 13.879,-6.305 15.395,-7.07 2.705,-1.283 5.014,-2.406 6.531,-3.146 -0.926,11.176 -1.967,22.695 -3.063,33.949 -1.916,1.119 -4.234,2.506 -6.4,3.645 0.152,-4.555 0.303,-9.117 0.455,-13.688 0.043,-1.615 -0.1,-2.625 -0.971,-2.654 -0.871,-0.033 -2.68,-0.041 -6.715,1.445 -0.129,0.049 -0.455,0.168 -0.65,0.238 -1.123,11.041 -2.254,21.984 -3.391,32.834 1.971,-0.514 3.73,-0.824 5.51,-1.314 0.379,-0.066 0.889,-1.387 1.182,-3.549 0.365,-2.242 0.727,-4.49 1.09,-6.742 2.053,-0.668 4.127,-0.992 5.949,-1.256 -0.711,6 -1.443,12.701 -2.176,19.359 -0.797,6.662 -1.533,13.271 -2.068,18.025 -1.791,0.223 -3.852,0.623 -5.807,0.662 0.178,-2.352 0.352,-4.705 0.529,-7.064 0.168,-2.646 -0.027,-3.684 -0.584,-3.639 -1.713,-0.027 -3.428,-0.051 -5.223,0.105 -1.07,10.076 -2.145,20.074 -3.227,29.994 -0.348,3.193 0.016,3.742 2.695,4.07 2.383,0.295 3.934,-0.041 4.826,-0.467 0.656,-0.459 1.053,-1.309 1.514,-3.232 1.123,-4.711 2.244,-9.457 3.365,-14.24 1.961,0.945 3.877,2.285 5.566,3.467 -1.963,10.797 -3.939,21.564 -5.963,32.109 -2.984,-0.701 -11.037,-2.717 -19.18,-4.377 -2.693,-0.551 -5.639,-0.975 -8.041,-1.445 0.441,-4.299 0.973,-8.908 1.396,-13.082 1.052,-0.044 2.103,-0.085 3.152,-0.126 z"
   id="path7125" />
					</g>
				</g>
				<g
   id="g7147">
					<path
   fill="#52c1dd"
   d="m 1074.052,875.944 c 0,2.441 0.01,4.883 0.012,7.324 -1.113,0.07 -2.229,0.143 -3.344,0.217 0.014,7.27 0.023,14.541 0.037,21.813 1.115,-0.018 2.23,-0.035 3.346,-0.053 0,2.441 0.01,4.881 0.012,7.324 -4.461,0 -8.924,0 -13.387,0 0,-2.367 -0.01,-4.732 -0.01,-7.098 1.115,-0.021 2.23,-0.041 3.346,-0.061 -0.01,-5.113 -0.014,-10.225 -0.021,-15.338 -2.225,3.891 -4.449,7.723 -6.674,11.49 -2.234,-3.637 -4.467,-7.203 -6.697,-10.697 0,4.934 0.01,9.865 0.012,14.797 1.115,-0.021 2.229,-0.043 3.344,-0.064 0,2.322 0,4.646 0.01,6.971 -4.463,0 -8.924,0 -13.387,0 0,-2.23 0,-4.463 0,-6.693 1.115,-0.025 2.23,-0.049 3.346,-0.074 0,-6.766 0,-13.531 -0.01,-20.297 -1.113,0.096 -2.227,0.193 -3.34,0.291 0,-2.232 0,-4.463 0,-6.693 3.369,-0.371 6.738,-0.727 10.109,-1.068 2.197,3.381 4.396,6.836 6.596,10.363 2.193,-3.811 4.385,-7.684 6.576,-11.607 3.372,-0.3 6.747,-0.581 10.122,-0.847 z"
   id="path7131" />
					<path
   fill="#52c1dd"
   d="m 1089.878,905.021 c 1.115,-0.016 2.232,-0.029 3.348,-0.043 0,2.529 0.01,5.061 0.012,7.592 -4.461,0 -8.924,0 -13.387,0 0,-2.471 -0.01,-4.941 -0.014,-7.412 1.117,-0.016 2.23,-0.033 3.348,-0.049 -0.014,-7.461 -0.027,-14.92 -0.041,-22.379 -1.115,0.063 -2.23,0.127 -3.346,0.191 0,-2.471 -0.01,-4.941 -0.012,-7.412 4.459,-0.326 8.92,-0.625 13.385,-0.896 0,2.531 0.01,5.063 0.014,7.592 -1.117,0.055 -2.232,0.111 -3.348,0.168 0.014,7.546 0.027,15.097 0.041,22.648 z"
   id="path7133" />
					<path
   fill="#52c1dd"
   d="m 1132.116,872.964 c 0,2.641 0.01,5.279 0.01,7.92 -1.117,0.023 -2.234,0.045 -3.352,0.07 0.012,10.537 0.021,21.076 0.033,31.615 -2.23,0 -4.461,0 -6.691,0 -4.361,-8.164 -8.725,-16.234 -13.09,-24.166 0.01,5.469 0.018,10.936 0.025,16.404 1.115,-0.01 2.232,-0.02 3.348,-0.029 0,2.598 0.01,5.193 0.012,7.791 -4.463,0 -8.926,0 -13.387,0 -0.01,-2.555 -0.01,-5.105 -0.014,-7.658 1.115,-0.014 2.232,-0.025 3.348,-0.037 -0.014,-7.693 -0.027,-15.387 -0.039,-23.082 -1.117,0.047 -2.232,0.096 -3.35,0.145 0,-2.553 -0.01,-5.105 -0.012,-7.658 3.348,-0.186 6.697,-0.354 10.045,-0.508 4.367,7.855 8.73,15.863 13.094,23.971 -0.01,-5.541 -0.014,-11.084 -0.021,-16.625 -1.115,0.031 -2.23,0.061 -3.348,0.094 0,-2.613 -0.01,-5.227 -0.012,-7.84 4.468,-0.163 8.936,-0.3 13.403,-0.407 z"
   id="path7135" />
					<path
   fill="#52c1dd"
   d="m 1147.976,904.595 c 1.115,-0.002 2.232,-0.004 3.348,-0.006 0,2.66 0,5.32 0,7.98 -4.463,0 -8.926,0 -13.387,0 0,-2.648 0,-5.299 -0.01,-7.947 1.115,-0.004 2.23,-0.008 3.348,-0.012 0,-7.957 -0.01,-15.914 -0.016,-23.871 -1.115,0.014 -2.232,0.029 -3.35,0.047 0,-2.648 0,-5.297 -0.01,-7.947 4.469,-0.082 8.938,-0.137 13.406,-0.164 0,2.658 0,5.318 0,7.979 -1.117,0.006 -2.234,0.012 -3.352,0.02 0.01,7.973 0.01,15.946 0.011,23.921 z"
   id="path7137" />
					<path
   fill="#52c1dd"
   d="m 1177.208,886.739 c 0,-0.662 0,-1.324 0,-1.986 0,-1.098 -0.326,-2.039 -0.98,-2.824 -0.652,-0.783 -1.443,-1.184 -2.369,-1.195 -2.232,-0.025 -4.467,-0.047 -6.699,-0.063 -0.928,-0.006 -1.717,0.379 -2.371,1.152 -0.656,0.775 -0.982,1.715 -0.98,2.818 0,5.318 0,10.639 0,15.957 0,1.104 0.326,2.045 0.979,2.824 0.654,0.779 1.443,1.168 2.367,1.17 2.232,0.004 4.465,0.01 6.695,0.018 0.926,0.002 1.715,-0.383 2.369,-1.158 0.654,-0.771 0.98,-1.707 0.982,-2.805 0,-0.529 0,-1.059 0,-1.59 -2.232,-0.014 -4.463,-0.025 -6.695,-0.035 0,-2.654 0,-5.311 0,-7.967 4.465,0.029 8.93,0.072 13.396,0.133 0,3.168 -0.01,6.334 -0.01,9.502 0,1.66 -0.266,3.203 -0.793,4.635 -0.527,1.432 -1.246,2.684 -2.156,3.76 -0.91,1.072 -1.979,1.922 -3.205,2.547 -1.229,0.623 -2.529,0.936 -3.896,0.938 -2.23,0 -4.463,0 -6.693,0 -1.404,0 -2.711,-0.314 -3.922,-0.941 -1.211,-0.627 -2.27,-1.484 -3.178,-2.564 -0.908,-1.086 -1.625,-2.348 -2.152,-3.793 -0.527,-1.445 -0.789,-3.002 -0.789,-4.676 0,-5.322 0,-10.645 0,-15.965 0,-1.635 0.262,-3.184 0.789,-4.648 0.527,-1.463 1.244,-2.736 2.154,-3.818 0.91,-1.08 1.973,-1.934 3.186,-2.553 1.211,-0.623 2.52,-0.928 3.926,-0.916 2.234,0.021 4.469,0.047 6.703,0.08 1.371,0.021 2.672,0.357 3.9,1.004 1.228,0.647 2.299,1.52 3.207,2.613 0.906,1.094 1.623,2.373 2.15,3.836 0.525,1.463 0.785,3.006 0.785,4.625 0,0.66 0,1.32 0,1.98 -2.233,-0.036 -4.468,-0.067 -6.7,-0.095 z"
   id="path7139" />
					<path
   fill="#52c1dd"
   d="m 1206.604,873.771 c 1.371,0.063 2.672,0.43 3.898,1.096 1.225,0.666 2.295,1.545 3.199,2.631 0.908,1.088 1.621,2.348 2.146,3.775 0.523,1.428 0.785,2.926 0.781,4.492 -0.01,5.105 -0.018,10.211 -0.025,15.316 0,1.605 -0.27,3.094 -0.797,4.477 -0.529,1.385 -1.248,2.594 -2.158,3.633 -0.908,1.041 -1.98,1.863 -3.207,2.469 -1.23,0.604 -2.529,0.91 -3.898,0.91 -2.232,0 -4.463,0 -6.693,0 -1.404,0 -2.709,-0.307 -3.92,-0.926 -1.209,-0.617 -2.27,-1.461 -3.176,-2.531 -0.906,-1.07 -1.625,-2.32 -2.146,-3.75 -0.525,-1.432 -0.787,-2.969 -0.785,-4.623 0.01,-5.258 0.012,-10.516 0.018,-15.773 0,-1.615 0.268,-3.141 0.795,-4.572 0.527,-1.43 1.248,-2.668 2.16,-3.709 0.91,-1.039 1.971,-1.848 3.184,-2.424 1.215,-0.574 2.523,-0.83 3.926,-0.775 2.234,0.086 4.466,0.182 6.698,0.284 z m 3.331,11.751 c 0,-1.068 -0.324,-1.992 -0.977,-2.77 -0.65,-0.781 -1.441,-1.188 -2.365,-1.223 -2.232,-0.082 -4.465,-0.156 -6.697,-0.229 -0.928,-0.029 -1.715,0.33 -2.371,1.074 -0.654,0.746 -0.982,1.664 -0.984,2.746 -0.01,5.229 -0.014,10.455 -0.021,15.684 0,1.084 0.326,2.01 0.977,2.781 0.654,0.77 1.441,1.158 2.367,1.164 2.23,0.018 4.463,0.037 6.693,0.057 0.924,0.008 1.713,-0.361 2.369,-1.109 0.654,-0.746 0.982,-1.654 0.984,-2.721 0.01,-5.151 0.017,-10.303 0.025,-15.454 z"
   id="path7141" />
					<path
   fill="#52c1dd"
   d="m 1245.765,901.685 c -0.01,3.627 -0.012,7.256 -0.018,10.885 -7.809,0 -15.617,0 -23.426,0 0,-2.531 0.01,-5.063 0.014,-7.592 1.115,0.014 2.23,0.027 3.346,0.041 0.014,-7.551 0.027,-15.1 0.041,-22.65 -1.115,-0.057 -2.23,-0.113 -3.346,-0.166 0,-2.531 0.01,-5.061 0.012,-7.592 4.463,0.27 8.926,0.568 13.385,0.895 0,2.473 -0.01,4.941 -0.012,7.414 -1.115,-0.064 -2.23,-0.129 -3.346,-0.191 -0.014,7.459 -0.027,14.92 -0.041,22.381 2.23,0.031 4.463,0.064 6.693,0.098 0,-1.227 0,-2.455 0.01,-3.682 2.231,0.049 4.461,0.102 6.692,0.159 z"
   id="path7143" />
					<path
   fill="#52c1dd"
   d="m 1274.958,879.103 c 0,3.346 0,6.693 0,10.041 -2.225,-0.172 -4.453,-0.34 -6.68,-0.504 0,-1.139 0,-2.277 0,-3.416 -2.227,-0.186 -4.455,-0.367 -6.682,-0.541 0,2.326 0,4.648 -0.01,6.973 2.229,0.131 4.457,0.266 6.684,0.404 0,2.279 0,4.557 0,6.836 -2.229,-0.092 -4.457,-0.182 -6.688,-0.27 0,2.324 0,4.646 -0.01,6.971 1.115,0.021 2.23,0.045 3.346,0.066 0,2.303 0,4.604 -0.01,6.906 -4.463,0 -8.926,0 -13.387,0 0,-2.387 0.01,-4.771 0.01,-7.158 1.115,0.02 2.23,0.039 3.346,0.061 0.01,-7.098 0.018,-14.195 0.027,-21.293 -1.113,-0.08 -2.229,-0.162 -3.342,-0.24 0,-2.385 0.01,-4.771 0.01,-7.158 7.8,0.689 15.591,1.46 23.376,2.322 z"
   id="path7145" />
				</g>
				<g
   id="g7165">
					<path
   fill="#212044"
   d="m 1057.306,963.749 c -1.807,0.873 -4.164,1.311 -7.074,1.311 -3.795,0 -6.781,-1.115 -8.955,-3.348 -2.174,-2.23 -3.262,-5.205 -3.262,-8.92 0,-3.957 1.223,-7.166 3.668,-9.629 2.443,-2.461 5.615,-3.693 9.516,-3.693 2.416,0 4.451,0.307 6.107,0.916 v 5.365 c -1.656,-0.988 -3.543,-1.482 -5.658,-1.482 -2.324,0 -4.201,0.73 -5.625,2.191 -1.428,1.461 -2.141,3.439 -2.141,5.936 0,2.393 0.674,4.299 2.02,5.719 1.346,1.422 3.158,2.131 5.436,2.131 2.174,0 4.162,-0.527 5.969,-1.586 v 5.089 z"
   id="path7149" />
					<path
   fill="#212044"
   d="m 1090.454,964.628 h -5.592 v -10.076 h -10.248 v 10.076 h -5.572 v -24.742 h 5.572 v 9.869 h 10.248 v -9.869 h 5.592 z"
   id="path7151" />
					<path
   fill="#212044"
   d="m 1118.372,964.628 h -14.838 v -24.742 h 14.268 v 4.537 h -8.693 v 5.504 h 8.09 v 4.521 h -8.09 v 5.66 h 9.264 v 4.52 z"
   id="path7153" />
					<path
   fill="#212044"
   d="m 1157.956,964.628 h -5.504 v -14.805 c 0,-1.598 0.068,-3.363 0.207,-5.297 h -0.139 c -0.287,1.52 -0.545,2.611 -0.775,3.279 l -5.799,16.822 h -4.555 l -5.902,-16.65 c -0.16,-0.449 -0.42,-1.598 -0.775,-3.451 h -0.154 c 0.148,2.439 0.223,4.58 0.223,6.42 v 13.682 h -5.021 v -24.742 h 8.162 l 5.057,14.666 c 0.4,1.174 0.695,2.354 0.879,3.537 h 0.104 c 0.311,-1.369 0.639,-2.559 0.984,-3.572 l 5.055,-14.631 h 7.955 v 24.742 z"
   id="path7155" />
					<path
   fill="#212044"
   d="m 1193.261,964.628 h -5.625 l -10.197,-15.545 c -0.598,-0.91 -1.014,-1.596 -1.244,-2.055 h -0.068 c 0.092,0.875 0.139,2.209 0.139,4.004 v 13.596 h -5.264 v -24.742 h 6.006 l 9.816,15.063 c 0.449,0.68 0.863,1.352 1.244,2.02 h 0.068 c -0.094,-0.576 -0.139,-1.709 -0.139,-3.398 v -13.684 h 5.264 z"
   id="path7157" />
					<path
   fill="#212044"
   d="m 1211.913,964.628 h -5.572 v -24.742 h 5.572 z"
   id="path7159" />
					<path
   fill="#212044"
   d="m 1242.335,944.423 h -7.057 v 20.205 h -5.592 v -20.205 h -7.021 v -4.537 h 19.67 z"
   id="path7161" />
					<path
   fill="#212044"
   d="m 1270.894,964.628 h -19.93 v -3.209 l 12.684,-16.996 h -11.77 v -4.537 h 18.98 v 3.123 l -12.406,17.1 h 12.441 v 4.519 z"
   id="path7163" />
				</g>
				<g
   id="g7191">
					<path
   fill="#212044"
   d="m 1076.292,647.646 -2.889,-2.439 c 0.883,-0.152 1.691,-0.443 2.43,-0.873 0.738,-0.428 1.371,-0.953 1.9,-1.58 0.311,-0.367 0.549,-0.715 0.713,-1.045 0.166,-0.33 0.268,-0.637 0.305,-0.92 0.037,-0.281 0.016,-0.535 -0.068,-0.76 -0.084,-0.225 -0.219,-0.416 -0.404,-0.574 -0.254,-0.215 -0.541,-0.332 -0.861,-0.355 -0.32,-0.023 -0.67,0.02 -1.049,0.125 -0.381,0.107 -0.793,0.268 -1.24,0.479 -0.445,0.211 -0.918,0.445 -1.416,0.707 -1.273,0.654 -2.426,0.975 -3.453,0.957 -1.027,-0.018 -1.971,-0.389 -2.832,-1.117 -0.674,-0.568 -1.139,-1.193 -1.395,-1.873 -0.256,-0.68 -0.342,-1.385 -0.262,-2.117 0.082,-0.73 0.307,-1.465 0.68,-2.203 0.369,-0.738 0.844,-1.451 1.426,-2.137 0.568,-0.674 1.113,-1.238 1.635,-1.689 0.52,-0.451 1.051,-0.826 1.59,-1.123 l 2.699,2.281 c -0.332,0.088 -0.664,0.213 -0.996,0.371 -0.33,0.16 -0.646,0.344 -0.951,0.551 -0.305,0.207 -0.588,0.43 -0.85,0.666 -0.262,0.238 -0.494,0.477 -0.697,0.717 -0.281,0.332 -0.504,0.66 -0.668,0.984 -0.166,0.324 -0.271,0.627 -0.314,0.91 -0.043,0.283 -0.027,0.543 0.045,0.779 0.074,0.238 0.209,0.441 0.408,0.607 0.217,0.184 0.459,0.291 0.727,0.32 0.268,0.031 0.568,0.006 0.898,-0.074 0.332,-0.082 0.699,-0.211 1.1,-0.387 0.402,-0.176 0.842,-0.389 1.318,-0.635 0.654,-0.334 1.277,-0.605 1.869,-0.811 0.592,-0.207 1.164,-0.328 1.721,-0.363 0.557,-0.037 1.098,0.033 1.623,0.211 0.527,0.176 1.053,0.486 1.576,0.928 0.723,0.609 1.213,1.26 1.471,1.947 0.26,0.689 0.344,1.396 0.252,2.121 -0.094,0.727 -0.338,1.457 -0.73,2.191 -0.395,0.734 -0.883,1.449 -1.467,2.141 -0.602,0.711 -1.23,1.334 -1.893,1.873 -0.664,0.541 -1.312,0.943 -1.951,1.209 z"
   id="path7167" />
					<path
   fill="#212044"
   d="m 1096.571,627.185 c -0.537,1.264 -1.557,2.553 -3.057,3.863 -1.957,1.711 -3.998,2.482 -6.127,2.311 -2.125,-0.172 -4.027,-1.215 -5.701,-3.129 -1.783,-2.041 -2.6,-4.248 -2.447,-6.617 0.15,-2.371 1.23,-4.436 3.242,-6.193 1.246,-1.088 2.434,-1.85 3.561,-2.281 l 2.42,2.768 c -1.301,0.236 -2.496,0.832 -3.588,1.785 -1.197,1.047 -1.836,2.268 -1.912,3.664 -0.078,1.396 0.445,2.738 1.572,4.025 1.078,1.232 2.283,1.914 3.617,2.039 1.334,0.127 2.59,-0.324 3.764,-1.35 1.121,-0.98 1.908,-2.15 2.363,-3.51 z"
   id="path7169" />
					<path
   fill="#212044"
   d="m 1113.651,616.94 -3.275,1.98 -3.57,-5.904 -6.008,3.631 3.57,5.904 -3.266,1.975 -8.766,-14.5 3.266,-1.975 3.496,5.783 6.008,-3.629 -3.496,-5.785 3.275,-1.98 z"
   id="path7171" />
					<path
   fill="#212044"
   d="m 1134.478,591.005 1.18,17.488 -4.008,1.352 -6.143,-9.398 c -0.324,-0.49 -0.611,-1.063 -0.867,-1.717 l -0.045,0.018 c 0.18,0.752 0.287,1.387 0.318,1.898 l 0.746,11.223 -4.176,1.41 -9.641,-14.629 3.951,-1.334 5.871,9.928 c 0.25,0.422 0.527,1.01 0.834,1.764 l 0.066,-0.021 c -0.164,-0.586 -0.268,-1.248 -0.311,-1.99 l -0.686,-11.631 3.875,-1.309 6.271,9.893 c 0.23,0.363 0.51,0.91 0.838,1.639 l 0.045,-0.016 c -0.168,-0.6 -0.291,-1.223 -0.369,-1.871 l -1.4,-11.463 z"
   id="path7173" />
					<path
   fill="#212044"
   d="m 1158.13,605.042 -4.129,0.504 -1.652,-3.598 -5.98,0.729 -0.73,3.887 -4.105,0.5 4.074,-17.566 4.494,-0.547 z m -7.002,-5.896 -2.496,-5.434 c -0.184,-0.406 -0.34,-0.898 -0.465,-1.479 l -0.094,0.012 c 0.02,0.498 -0.018,0.998 -0.115,1.502 l -1.135,5.924 z"
   id="path7175" />
					<path
   fill="#212044"
   d="m 1176.661,605.806 -4.377,-0.219 -2.414,-4.486 c -0.18,-0.34 -0.354,-0.645 -0.521,-0.914 -0.167,-0.269 -0.34,-0.5 -0.516,-0.693 -0.176,-0.195 -0.361,-0.346 -0.557,-0.455 -0.197,-0.107 -0.412,-0.168 -0.648,-0.18 l -1.027,-0.051 -0.324,6.479 -3.811,-0.191 0.846,-16.922 6.043,0.301 c 4.107,0.207 6.084,1.844 5.93,4.912 -0.029,0.59 -0.146,1.131 -0.354,1.621 -0.205,0.49 -0.484,0.928 -0.834,1.313 -0.352,0.385 -0.768,0.711 -1.25,0.979 -0.482,0.268 -1.016,0.469 -1.598,0.605 v 0.049 c 0.25,0.09 0.486,0.23 0.713,0.42 0.229,0.188 0.445,0.406 0.654,0.652 0.209,0.248 0.406,0.512 0.594,0.793 0.188,0.283 0.355,0.557 0.508,0.824 z m -9.68,-14.588 -0.236,4.709 1.652,0.084 c 0.818,0.041 1.486,-0.162 2.006,-0.609 0.527,-0.455 0.809,-1.037 0.844,-1.744 0.076,-1.479 -0.771,-2.264 -2.543,-2.354 z"
   id="path7177" />
					<path
   fill="#212044"
   d="m 1192.364,609.11 -13.34,-2.883 0.465,-2.146 10.945,-9.545 -7.877,-1.699 0.656,-3.039 12.705,2.744 -0.451,2.09 -10.777,9.652 8.328,1.799 z"
   id="path7179" />
					<path
   fill="#212044"
   d="m 1206.358,614.212 -9.441,-3.564 5.984,-15.852 3.57,1.348 -4.891,12.955 5.871,2.217 z"
   id="path7181" />
					<path
   fill="#212044"
   d="m 1213.942,618.081 -3.391,-1.752 7.775,-15.055 3.391,1.75 z"
   id="path7183" />
					<path
   fill="#212044"
   d="m 1229.749,627.487 c -1.357,-0.209 -2.857,-0.879 -4.498,-2.012 -2.139,-1.475 -3.389,-3.264 -3.746,-5.367 -0.357,-2.105 0.186,-4.203 1.631,-6.297 1.537,-2.232 3.475,-3.564 5.811,-4.002 2.334,-0.438 4.602,0.102 6.801,1.619 1.361,0.939 2.391,1.902 3.086,2.891 l -2.086,3.023 c -0.549,-1.201 -1.42,-2.213 -2.613,-3.037 -1.311,-0.902 -2.65,-1.221 -4.021,-0.951 -1.373,0.27 -2.545,1.107 -3.516,2.514 -0.932,1.35 -1.293,2.686 -1.086,4.01 0.205,1.324 0.951,2.43 2.234,3.314 1.227,0.846 2.553,1.32 3.982,1.426 z"
   id="path7185" />
					<path
   fill="#212044"
   d="m 1243.89,641.522 -2.729,-2.686 4.842,-4.918 -5,-4.924 -4.842,4.916 -2.721,-2.678 11.891,-12.072 2.719,2.678 -4.742,4.814 5,4.926 4.744,-4.814 2.727,2.686 z"
   id="path7187" />
					<path
   fill="#212044"
   d="m 1265.896,647.831 -2.824,-3.92 -11.227,8.09 -2.238,-3.105 11.227,-8.09 -2.813,-3.902 2.521,-1.816 7.875,10.928 z"
   id="path7189" />
				</g>
				<g
   id="g7263">
					<path
   fill-rule="evenodd"
   clip-rule="evenodd"
   fill="#1e0f49"
   d="m 1161.013,621.743 c 2.678,0 5.355,0 8.033,0 20.273,1.352 35.939,8.307 48.363,17.801 12.348,9.434 22.713,21.732 29.301,36.863 2.594,-0.348 5.156,-1.313 7.563,-0.631 2.516,0.715 5.08,4.289 6.617,6.617 1.938,2.934 3.014,6.334 3.465,9.609 0,1.262 0,2.521 0,3.779 -0.986,9.256 -4.266,16.215 -10.555,20.166 -1.387,26.584 -12.361,45.127 -26.467,59.232 -14.111,14.111 -32.352,25.371 -58.76,26.938 -2.783,0 -5.566,0 -8.348,0 -25.232,-1.082 -42.969,-11.082 -57.027,-23.629 -13.992,-12.488 -24.959,-29.256 -28.672,-51.828 -9.348,-5.043 -19.148,-9.629 -28.672,-14.494 -0.4,-13.094 -0.693,-26.297 -1.26,-39.227 0,-0.264 0,-0.523 0,-0.787 14.799,-3.949 29.512,-7.98 44.426,-11.814 15.629,-21.232 37.11,-36.614 71.993,-38.595 z m -2.994,6.457 c -19.785,1.148 -34.779,7.943 -46.787,17.486 -12.059,9.586 -21.143,22.438 -26.623,37.652 21.879,6.057 43.764,12.107 65.691,18.115 0.695,-2.207 5.41,-5.105 6.932,-1.732 -1.428,0.725 -2.66,1.645 -3.781,2.678 1.934,0.51 3.422,0.811 5.041,1.26 1.486,0.414 3.225,1.477 4.883,1.42 2.344,-0.084 3.209,-2.229 4.727,-3.15 1.514,-0.922 3.695,-1.283 5.355,-0.316 6.855,-2.387 13.777,-4.707 20.637,-7.088 -1.225,-1.121 -2.881,-2.676 -2.361,-5.357 0.713,-3.688 6.045,-5.986 9.766,-3.623 -2.361,2.102 -4.846,4.92 -5.355,8.348 4.102,-1.57 8.473,-2.867 12.604,-4.41 -0.68,-4.984 5.641,-4.85 6.143,-8.191 0.445,-2.947 -2.531,-4.947 -1.416,-8.664 0.807,-1.029 2.672,-1.004 3.781,-1.732 1.762,-2.42 -0.822,-5.305 -0.158,-8.035 3.223,-0.553 4.104,-4.232 3.465,-7.719 1.084,-0.311 2.004,0.369 2.994,-0.158 -1.219,-3.559 -3.76,-5.797 -7.404,-6.93 0.029,0.941 0.486,2.506 -0.158,3.148 -1.6,-0.531 -3.582,-2.371 -3.623,-4.41 -0.023,-1.137 0.535,-1.57 0.787,-2.363 -13.933,-9.602 -31.685,-17.588 -55.14,-16.229 z m 67.109,30.877 c -0.486,1.402 -1.111,3.016 -2.049,4.412 -0.857,1.281 -2.395,2.473 -2.678,3.623 -0.428,1.748 0.416,3.471 0.475,5.514 -3.672,2.109 -3.449,8.018 -3.152,13.705 2.715,-0.697 5.143,-1.684 7.719,-2.521 0.965,-3.518 -0.516,-6.803 -1.26,-9.607 0.865,0.023 1.697,0.018 2.363,-0.158 1.963,-1.367 0.838,-5.328 0.314,-7.404 0.527,-0.576 1.828,-0.377 2.68,-0.629 2.02,-3.066 -0.254,-8.656 -4.412,-6.935 z m -140.992,6.303 c -10.301,2.93 -20.658,5.807 -30.561,9.137 7.75,2.121 15.295,4.449 23.156,6.459 1.221,-6.448 4.25,-11.084 7.405,-15.596 z m 153.595,8.349 c -0.887,-1.949 -1.918,-5.121 -3.939,-6.461 -0.447,3.213 0.447,7.198 3.939,6.461 z m -4.724,1.889 c 0.611,-0.385 0.764,-1.229 1.258,-1.732 -0.471,-2.363 -1.904,-3.768 -3.307,-5.197 -1.064,2.386 -1.273,6.841 2.049,6.929 z m -184.473,1.735 c -0.205,11.441 1.066,21.408 1.102,32.609 8.385,4.33 17.807,9.135 27.568,12.604 2.834,1.006 7.666,3.25 10.871,2.203 5.488,-1.791 5.34,-13.623 10.398,-14.965 6.088,-1.617 8.725,5.518 10.396,9.609 1.568,3.848 2.965,9.705 5.197,12.604 2.146,2.787 6.068,4.225 9.924,5.828 11.824,4.92 23.666,7.047 37.809,9.453 -0.158,-13.072 0.277,-26.047 0,-38.754 -37.744,-10.516 -75.174,-21.342 -113.109,-31.664 -0.183,0.025 -0.169,0.248 -0.156,0.473 z m 184.315,0 c -2.574,0.209 -3.502,2.066 -3.309,5.041 1.617,-0.482 3.068,-1.131 4.725,-1.576 -0.168,-1.46 -0.942,-2.313 -1.416,-3.465 z m 5.197,2.205 c 0.361,-0.428 1.342,-0.232 1.576,-0.787 -0.309,-0.27 -0.881,-0.275 -1.262,-0.473 0.018,0.445 -0.625,1.041 -0.314,1.26 z m 20.48,23.787 c 1.072,-2.74 2.207,-6.27 2.047,-9.453 -0.328,-6.492 -4.32,-13.764 -9.453,-14.178 -1.514,-0.121 -4.146,0.803 -5.984,1.262 -5.703,1.422 -11.316,3.498 -16.227,5.199 -21.518,7.455 -43.646,14.541 -63.172,22.684 -0.293,11.994 -0.105,24.471 -0.158,36.705 18.166,-10.447 39.387,-24.156 58.289,-35.76 4.625,-2.84 10.129,-5.689 14.809,-8.822 1.631,-1.092 3.17,-2.5 4.883,-2.992 4.779,-1.373 8.91,1.662 9.768,5.199 0.518,2.143 -0.246,5.111 0.473,6.615 2.13,-0.729 3.612,-3.621 4.725,-6.459 z m -20.007,0.314 c -1,0.682 -2.053,1.309 -3.15,1.891 -0.602,1.92 -0.855,4.188 -1.576,5.986 4.657,2.826 7.06,-4.607 4.726,-7.877 z m 6.775,6.303 c 0.764,-1.25 2.342,-4.664 0,-5.355 -0.227,1.681 -2.592,4.583 0,5.355 z m -23.316,3.939 c 3.637,2.143 7.393,-1.367 7.404,-4.727 -2.352,1.69 -5.094,2.993 -7.404,4.727 z m -117.678,56.87 c 3.658,-3.939 7.23,2.584 11.027,2.834 1.91,0.127 3.604,-1.033 5.041,-0.945 2.695,0.166 3.33,2.414 6.145,3.152 2.693,0.705 6.242,0.029 7.088,-2.363 1.721,-4.871 -4.641,-8.006 -8.664,-6.145 -1.189,0.551 -1.27,2.479 -3.15,2.678 -1.863,0.197 -4.607,-1.654 -4.254,-3.938 0.242,-1.568 2.619,-2.652 4.254,-2.836 2.973,-0.334 4.932,0.729 6.93,1.576 1.293,0.545 3.627,1.992 4.729,1.889 1.533,-0.141 2.596,-2.738 4.566,-3.465 4.533,-1.672 9.041,3.766 13.391,1.732 2.676,-1.25 3.236,-4.525 6.459,-4.568 -0.412,-0.732 -1.496,-1.334 -1.889,-2.363 -1.592,-4.139 1.697,-7.369 4.41,-8.664 -15.584,-2.469 -29.928,-5.518 -41.904,-11.342 -1.434,0.719 -1.979,2.324 -3.623,2.836 -1.584,-0.896 -0.975,-4.178 0.314,-4.883 -7.217,-4.756 -6.514,-17.432 -12.916,-23.002 -4.611,2.816 -5.082,10.518 -10.398,12.918 -3.082,1.395 -7.477,1.844 -11.5,0.314 3.778,19.065 12.711,32.977 23.944,44.585 z m 111.219,-40.014 c 6.41,1.17 9.354,-6.908 6.301,-11.816 -4.771,1.32 -6.672,5.51 -7.877,10.398 1.283,-0.285 0.796,1.199 1.576,1.418 z m 17.169,-11.817 c -1.662,2.605 -4.191,5.135 -3.938,9.137 5.337,1.514 7.302,-6.594 3.938,-9.137 z m -29.929,6.774 c -1.188,0.736 -5.953,3.02 -6.301,4.098 -0.426,1.316 0.629,3.424 1.416,3.936 3.105,2.027 7.125,-1.6 8.98,-3.621 2.256,-2.457 3.58,-5.262 2.992,-8.664 -0.105,0 -0.209,0 -0.314,0 -2.133,1.284 -3.842,2.434 -6.773,4.251 z m 23.787,9.295 c -2.771,2.006 -5.334,4.223 -5.197,9.137 4.332,-0.174 7.304,-5.04 5.197,-9.137 z m -21.738,10.082 c 5.074,3.715 10.844,-1.764 10.08,-8.35 -5.643,-2.322 -8.274,4.305 -10.08,8.35 z m -7.721,-8.822 c -4.127,2.148 -13.221,6.697 -8.508,12.447 7.135,0.451 11.867,-2.828 11.186,-10.713 -1.112,-0.357 -1.582,-1.357 -2.678,-1.734 z m -31.35,12.289 c 2.582,0.201 4.098,1.469 4.885,3.465 -5.092,1.58 -9.846,3.494 -11.5,8.508 1.131,1.969 3.275,3.719 5.828,3.465 1.514,-0.148 5.756,-2.281 7.246,-4.254 1.469,-1.939 1.412,-5.184 0.316,-7.246 2.59,-3.08 7.277,-4.064 10.555,-6.459 -0.814,-2.803 -0.068,-6.926 0.629,-8.664 -5.83,3.884 -12.148,7.28 -17.959,11.185 z m 37.18,1.732 c -2.604,2.912 -6.445,4.584 -7.879,8.664 5.135,4.869 14.186,-5.603 7.879,-8.664 z m 14.492,0.158 c -0.201,-0.01 -0.219,-0.203 -0.473,-0.158 -1.99,2.631 -4.848,4.395 -5.672,8.191 4.903,0.348 7.553,-3.587 6.145,-8.033 z m -28.83,1.26 c -4.736,1.354 -10.695,2.854 -11.498,8.664 6.473,3.795 17.482,-3.207 11.498,-8.664 z m -8.348,12.287 c -4.496,1.439 -8.91,2.959 -10.398,7.404 5.125,3.286 13.342,-1.173 10.398,-7.404 z m 5.67,6.459 c 4.818,1.867 9.842,-0.779 9.611,-5.986 -4.806,-0.821 -7.958,2.613 -9.611,5.986 z m 20.639,-5.986 c -1.359,2.48 -5.322,3.182 -5.357,6.459 4.318,0.066 6.061,-2.445 6.773,-5.986 -0.617,-0.012 -0.982,-0.278 -1.416,-0.473 z m -40.961,4.254 c -0.102,-1.113 -1.357,-3.111 -2.52,-2.836 -3.723,0.881 -7.146,3.082 -8.979,6.145 2.267,5.988 11.982,1.939 11.499,-3.309 z m -16.225,0.472 c -0.809,-1.104 -2.055,-1.355 -3.781,-1.418 -3.811,-0.137 -7.518,2.336 -8.191,5.828 2.314,5.805 16.594,1.909 11.972,-4.41 z m -40.957,5.828 c 2.488,1.502 4.229,3.752 6.93,5.041 0.322,-0.885 1.143,-1.273 1.26,-2.363 -1.26,-2.301 -5.654,-5.982 -8.19,-2.678 z m 70.258,2.836 c 3.885,0.672 7.143,-0.48 7.246,-4.096 -3.433,-0.279 -5.836,1.829 -7.246,4.096 z m 11.502,2.205 c 3.709,0.275 7.055,-1.961 7.402,-5.041 -3.173,0.975 -5.716,2.581 -7.402,5.041 z m -25.049,0.948 c 3.311,2.475 10.268,1.178 9.609,-4.098 -4.503,-0.562 -7.976,1.262 -9.609,4.098 z m -37.336,2.205 c 1.125,-0.232 2.24,-1.344 2.205,-2.521 -0.104,-3.523 -8.186,-4.166 -10.082,-1.418 1.362,1.691 4.182,4.697 7.877,3.939 z m 32.768,-2.365 c -0.141,-4.768 -10.625,-0.834 -10.557,1.576 2.1,3.238 10.676,2.564 10.557,-1.576 z m -26.309,1.42 c 1.775,2.35 7.01,3.219 10.082,1.572 0.713,-1.754 0.014,-3.723 -0.945,-4.725 -4.056,0.041 -8.722,-0.529 -9.137,3.153 z m 43.006,3.779 c 3.609,0.447 7.244,-0.271 8.035,-3.15 -3.349,-0.245 -6.171,1.388 -8.035,3.15 z m -54.82,-1.418 c 0.709,0.816 2.814,1.596 4.252,2.207 -0.428,-1.631 -2.203,-2.719 -4.252,-2.207 z m 41.43,4.726 c 2.865,1.736 7.193,0.152 8.035,-2.52 -3.192,-0.804 -6.83,0.325 -8.035,2.52 z m -30.088,-0.158 c 1.238,1.283 3.947,1.094 5.197,2.363 1.23,-0.555 2.504,-1.068 2.68,-2.678 -1.053,-1.923 -7.377,-2.575 -7.877,0.315 z m 15.123,0.789 c 1.299,1.947 8.307,2.826 7.875,-1.262 -2.313,-1.33 -6.666,-0.476 -7.875,1.262 z"
   id="path7193" />
					<path
   fill-rule="evenodd"
   clip-rule="evenodd"
   fill="#1e0f49"
   d="m 1191.415,633.872 c -0.352,1.59 -1.314,2.57 -2.205,3.623 -3.559,-0.59 -0.539,-5.242 2.205,-3.623 z"
   id="path7195" />
					<path
   fill-rule="evenodd"
   clip-rule="evenodd"
   fill="#1e0f49"
   d="m 1186.376,641.435 c -0.666,1.541 -1.316,3.096 -2.365,4.252 -3.496,-0.776 -0.448,-6.536 2.365,-4.252 z"
   id="path7197" />
					<path
   fill-rule="evenodd"
   clip-rule="evenodd"
   fill="#1e0f49"
   d="m 1203.862,641.907 c 0.244,1.979 -0.844,2.623 -1.418,3.779 -4.185,-0.574 -1.941,-7.201 1.418,-3.779 z"
   id="path7199" />
					<path
   fill-rule="evenodd"
   clip-rule="evenodd"
   fill="#1e0f49"
   d="m 1199.608,648.681 c -0.105,2.166 -1.227,4.689 -2.994,4.727 -3.933,0.081 -1.076,-7.938 2.994,-4.727 z"
   id="path7201" />
					<path
   fill-rule="evenodd"
   clip-rule="evenodd"
   fill="#1e0f49"
   d="m 1181.647,648.837 c -0.607,1.598 -1.313,3.098 -2.361,4.256 -3.49,-0.772 -0.445,-6.531 2.361,-4.256 z"
   id="path7203" />
					<path
   fill-rule="evenodd"
   clip-rule="evenodd"
   fill="#1e0f49"
   d="m 1213.472,651.517 c 0.836,3.186 -2.104,3.854 -2.363,6.459 -4.825,-0.707 -2.588,-10.366 2.363,-6.459 z"
   id="path7205" />
					<path
   fill-rule="evenodd"
   clip-rule="evenodd"
   fill="#1e0f49"
   d="m 1194.093,657.503 c 0.35,3.867 -3.477,3.559 -3.623,6.932 -4.03,-1.694 -1.356,-9.293 3.623,-6.932 z"
   id="path7207" />
					<path
   fill-rule="evenodd"
   clip-rule="evenodd"
   fill="#1e0f49"
   d="m 1176.136,657.503 c -0.771,2.643 -2.73,4.096 -4.568,5.67 -2.256,-2.842 0.968,-6.694 4.568,-5.67 z"
   id="path7209" />
					<path
   fill-rule="evenodd"
   clip-rule="evenodd"
   fill="#1e0f49"
   d="m 1209.847,659.864 c -1.023,2.547 -2.504,4.641 -3.307,7.404 -2.475,-0.793 -4.229,-3.393 -3.152,-6.457 0.851,-2.423 4.779,-2.958 6.459,-0.947 z"
   id="path7211" />
					<path
   fill-rule="evenodd"
   clip-rule="evenodd"
   fill="#1e0f49"
   d="m 1189.368,669.79 c -0.086,1.014 -1.234,1.396 -1.891,2.205 -1.352,1.67 -2.273,4.025 -3.938,5.357 -4.942,-2.951 1.028,-11.019 5.829,-7.562 z"
   id="path7213" />
					<path
   fill-rule="evenodd"
   clip-rule="evenodd"
   fill="#1e0f49"
   d="m 1168.731,669.948 c 0.158,0.631 -0.748,1.107 -1.262,1.732 -1.426,1.736 -2.906,4.309 -5.197,5.199 -3.371,-3.825 1.381,-9.589 6.459,-6.931 z"
   id="path7215" />
					<path
   fill-rule="evenodd"
   clip-rule="evenodd"
   fill="#1e0f49"
   d="m 1206.54,670.735 c -1.771,2.588 -4.141,4.578 -4.096,8.979 -8.978,0.254 -2.271,-14.459 4.096,-8.979 z"
   id="path7217" />
					<path
   fill-rule="evenodd"
   clip-rule="evenodd"
   fill="#1e0f49"
   d="m 1150.3,671.839 c -1.361,2.262 -2.541,4.705 -5.828,5.041 0.91,-2.713 1.947,-5.299 5.828,-5.041 z"
   id="path7219" />
					<path
   fill-rule="evenodd"
   clip-rule="evenodd"
   fill="#1e0f49"
   d="m 1134.546,674.202 c -1.25,2.057 -3.193,3.422 -4.883,5.039 -0.531,-3.207 1.668,-5.051 4.883,-5.039 z"
   id="path7221" />
					<g
   id="g7227">
						<path
   fill-rule="evenodd"
   clip-rule="evenodd"
   fill="#1e0f49"
   d="m 1084.354,718.233 c -1.015,0 -3.443,-0.825 -4.894,-1.318 -0.466,-0.158 -0.868,-0.295 -1.162,-0.386 -2.782,-0.856 -5.354,-1.771 -7.842,-2.654 -3.274,-1.163 -6.658,-2.364 -10.476,-3.414 -3.387,-4.069 -4.846,-13.673 -3.183,-21.229 l 0.171,-0.809 c 0.562,-2.7 0.808,-3.479 2.704,-3.479 0.265,0 0.554,0.019 0.87,0.056 0.868,0.102 1.956,0.491 3.107,0.903 0.781,0.279 1.588,0.568 2.407,0.798 l 1.441,0.408 c 1.431,0.406 2.875,0.817 4.249,1.173 1.228,0.319 2.561,0.573 3.85,0.818 2.723,0.519 5.538,1.055 7.355,2.204 4.63,2.933 7.738,17.47 4.053,24.307 -0.679,1.257 -1.913,2.529 -2.539,2.616 -0.032,0.004 -0.07,0.006 -0.111,0.006 z"
   id="path7223" />
						<path
   fill="#1c1d3c"
   d="m 1059.672,685.984 v 0 c 0.222,0 0.475,0.016 0.748,0.048 0.751,0.088 1.785,0.458 2.879,0.85 0.797,0.286 1.622,0.581 2.474,0.819 l 1.439,0.408 c 1.417,0.402 2.883,0.819 4.271,1.179 1.262,0.328 2.612,0.585 3.917,0.834 2.627,0.5 5.344,1.017 6.993,2.061 4.228,2.678 7.105,16.608 3.695,22.935 -0.533,0.986 -1.407,1.887 -1.792,2.075 -0.896,-0.035 -3.415,-0.892 -4.503,-1.262 -0.477,-0.162 -0.889,-0.302 -1.191,-0.395 -2.76,-0.85 -5.322,-1.76 -7.799,-2.64 -3.199,-1.137 -6.501,-2.311 -10.222,-3.348 -3.015,-3.937 -4.313,-13.082 -2.77,-20.095 0.062,-0.28 0.118,-0.554 0.173,-0.818 0.553,-2.651 0.661,-2.651 1.688,-2.651 m 0,-2.079 c -3.116,0 -3.249,2.178 -3.89,5.104 -1.771,8.051 -0.09,18.236 3.619,22.371 6.793,1.842 11.998,4.113 18.59,6.143 1.311,0.405 4.843,1.75 6.362,1.75 0.093,0 0.178,-0.005 0.255,-0.016 1.221,-0.17 2.666,-1.959 3.311,-3.152 3.777,-7.008 0.969,-22.27 -4.412,-25.678 -2.889,-1.828 -7.682,-2.158 -11.5,-3.15 -1.83,-0.475 -3.789,-1.047 -5.67,-1.576 -2.016,-0.564 -4.061,-1.543 -5.674,-1.732 -0.36,-0.043 -0.689,-0.064 -0.991,-0.064 z"
   id="path7225" />
					</g>
					<path
   fill-rule="evenodd"
   clip-rule="evenodd"
   fill="#1e0f49"
   d="m 1182.595,685.071 c -3.508,1.9 -5.742,5.076 -8.35,7.877 -2.814,-5.101 3.356,-11.09 8.35,-7.877 z"
   id="path7229" />
					<path
   fill-rule="evenodd"
   clip-rule="evenodd"
   fill="#1e0f49"
   d="m 1162.272,686.017 c -3.566,1.105 -4.314,5.033 -7.877,6.143 -0.488,-4.909 3.635,-7.999 7.877,-6.143 z"
   id="path7231" />
					<path
   fill-rule="evenodd"
   clip-rule="evenodd"
   fill="#1e0f49"
   d="m 1142.896,687.12 c -1.535,2.611 -3.078,5.217 -5.672,6.771 -3.215,-3.228 1.095,-7.412 5.672,-6.771 z"
   id="path7233" />
					<path
   fill-rule="evenodd"
   clip-rule="evenodd"
   fill="#1e0f49"
   d="m 1126.354,688.853 c -0.947,1.992 -2.363,3.518 -5.041,3.781 0.282,-2.66 2.213,-3.668 5.041,-3.781 z"
   id="path7235" />
					<g
   id="g7241">
						<path
   fill-rule="evenodd"
   clip-rule="evenodd"
   fill="#1e0f49"
   d="m 1145.165,738.244 c -1.445,0 -3.071,-0.631 -4.506,-1.188 -0.482,-0.187 -0.941,-0.364 -1.367,-0.51 -3.33,-1.141 -6.172,-2.021 -9.181,-2.953 -1.667,-0.517 -3.36,-1.041 -5.172,-1.621 -0.644,-0.207 -1.297,-0.391 -1.943,-0.571 -1.743,-0.489 -3.389,-0.951 -4.528,-1.796 -3.604,-2.669 -5.622,-14.816 -3.856,-23.211 0.646,-3.076 1.315,-4.671 3.179,-4.852 0.125,-0.012 0.253,-0.018 0.383,-0.018 1.255,0 2.769,0.534 4.234,1.051 0.848,0.3 1.726,0.609 2.585,0.83 1.31,0.336 2.789,0.697 4.335,1.075 3.424,0.836 7.306,1.784 10.272,2.693 l 0.696,0.21 c 1.951,0.587 3.968,1.192 5.184,2.377 2.543,2.476 4.251,7.869 4.57,14.429 0.152,3.132 0.617,12.662 -3.813,13.916 -0.326,0.093 -0.686,0.139 -1.072,0.139 z"
   id="path7237" />
						<path
   fill="#1c1d3c"
   d="m 1118.174,702.565 v 0 c 1.076,0 2.505,0.504 3.888,0.991 0.87,0.307 1.769,0.624 2.673,0.856 1.313,0.337 2.795,0.699 4.346,1.077 3.411,0.834 7.276,1.778 10.213,2.678 l 0.702,0.213 c 1.831,0.55 3.725,1.119 4.758,2.125 2.324,2.263 3.955,7.525 4.257,13.735 0.383,7.854 -0.646,12.183 -3.058,12.865 -0.232,0.065 -0.498,0.099 -0.789,0.099 -1.25,0 -2.78,-0.594 -4.13,-1.117 -0.496,-0.192 -0.969,-0.375 -1.405,-0.524 -3.345,-1.146 -6.195,-2.028 -9.211,-2.963 -1.664,-0.515 -3.354,-1.038 -5.163,-1.618 -0.668,-0.214 -1.334,-0.401 -1.979,-0.582 -1.648,-0.463 -3.205,-0.899 -4.191,-1.631 -3.283,-2.431 -5.124,-14.236 -3.457,-22.162 0.626,-2.98 1.155,-3.923 2.26,-4.029 0.094,-0.009 0.19,-0.013 0.286,-0.013 m -10e-4,-2.079 c -0.163,0 -0.324,0.007 -0.483,0.022 -2.807,0.271 -3.529,2.975 -4.096,5.672 -1.721,8.178 -0.059,21.066 4.254,24.26 1.744,1.293 4.33,1.738 6.773,2.521 5.033,1.613 9.146,2.791 14.334,4.568 1.741,0.595 4.06,1.754 6.208,1.754 0.461,0 0.916,-0.054 1.354,-0.178 4.664,-1.32 4.855,-9.074 4.568,-14.967 -0.285,-5.873 -1.773,-12.096 -4.883,-15.123 -1.557,-1.516 -4.064,-2.15 -6.301,-2.836 -4.316,-1.322 -10.389,-2.688 -14.652,-3.781 -2.333,-0.599 -4.874,-1.912 -7.076,-1.912 z"
   id="path7239" />
					</g>
					<path
   fill-rule="evenodd"
   clip-rule="evenodd"
   fill="#1e0f49"
   d="m 1085.397,729.495 c 0.242,1.139 -0.629,1.158 -0.473,2.205 -1.295,0.035 -1.926,-0.594 -1.891,-1.889 0.542,-0.294 1.634,-0.716 2.364,-0.316 z"
   id="path7243" />
					<path
   fill-rule="evenodd"
   clip-rule="evenodd"
   fill="#1e0f49"
   d="m 1090.438,734.538 c -0.922,-1.43 0.512,-2.713 0.945,-3.781 2.917,0.26 1.458,4.015 -0.945,3.781 z"
   id="path7245" />
					<path
   fill-rule="evenodd"
   clip-rule="evenodd"
   fill="#1e0f49"
   d="m 1105.562,734.38 c -1.131,1.652 -2.271,3.295 -5.043,3.307 -2.03,-2.911 2.898,-5.516 5.043,-3.307 z"
   id="path7247" />
					<path
   fill-rule="evenodd"
   clip-rule="evenodd"
   fill="#1e0f49"
   d="m 1089.177,746.823 c -1.002,-0.908 -0.904,-2.955 -0.156,-4.096 2.712,0.266 2.933,3.795 0.156,4.096 z"
   id="path7249" />
					<path
   fill-rule="evenodd"
   clip-rule="evenodd"
   fill="#1e0f49"
   d="m 1099.103,746.667 c 5.93,-1.281 -0.998,7.498 -2.205,3.309 -0.506,-1.752 0.865,-3.02 2.205,-3.309 z"
   id="path7251" />
					<path
   fill-rule="evenodd"
   clip-rule="evenodd"
   fill="#1e0f49"
   d="m 1116.587,750.448 c -2.137,1.695 -4.053,3.613 -6.773,4.727 -0.322,-1.563 -1.316,-2.559 -0.943,-4.098 0.681,-2.822 6.386,-2.836 7.716,-0.629 z"
   id="path7253" />
					<path
   fill-rule="evenodd"
   clip-rule="evenodd"
   fill="#1e0f49"
   d="m 1152.19,751.866 c -3.449,2.379 -7.598,4.059 -9.609,7.875 -8.355,-5.09 5.498,-15.279 9.609,-7.875 z"
   id="path7255" />
					<path
   fill-rule="evenodd"
   clip-rule="evenodd"
   fill="#1e0f49"
   d="m 1134.231,752.337 c -2.848,1.67 -6.488,2.545 -7.877,5.672 -1.371,-0.783 -2.771,-1.369 -2.836,-3.15 -0.15,-4.258 8.588,-7.065 10.713,-2.522 z"
   id="path7257" />
					<path
   fill-rule="evenodd"
   clip-rule="evenodd"
   fill="#1e0f49"
   d="m 1094.534,758.954 c 1.08,-4.186 8.613,-0.334 4.41,2.363 -2.601,0.344 -2.861,-1.654 -4.41,-2.363 z"
   id="path7259" />
					<path
   fill-rule="evenodd"
   clip-rule="evenodd"
   fill="#1e0f49"
   d="m 1113.438,763.366 c -0.713,2.553 -8.846,4.572 -7.877,-0.475 0.624,-3.245 6.997,-2.216 7.877,0.475 z"
   id="path7261" />
				</g>
				<g
   id="g7273">
					<g
   id="g7269">
						<path
   fill-rule="evenodd"
   clip-rule="evenodd"
   fill="#52c1dd"
   d="m 1309.22,907.835 c -6.002,2.855 -2.1,12.627 -7.35,16.217 -2.811,1.926 -6.111,0.752 -9.684,0.773 -3.512,0.021 -7.029,0.016 -10.445,0.75 l -0.037,5.227 c 0.121,0.055 0.25,0.107 0.396,0.162 5.813,-0.121 11.797,-1.109 17.273,0.414 -1.053,4.1 -5.998,7.414 -1.193,12.691 2.578,0.666 4.785,0.771 7.854,-1.82 3.914,-3.307 8.031,-15.143 9.057,-19.617 0.791,-3.467 2.447,-18.754 -5.871,-14.797 z"
   id="path7265" />
						<path
   fill-rule="evenodd"
   clip-rule="evenodd"
   fill="#52c1dd"
   d="m 1082.052,924.669 c -1,0.025 -1.986,0.01 -2.949,-0.074 -1.057,-0.094 -3.326,-1.184 -4.842,-1.316 -2.932,-0.258 -6.139,0.518 -9.291,0.512 -16.316,-0.021 -29.275,0.084 -46.326,0.201 -3.797,0.027 -16.102,-2.201 -18.713,-0.023 -0.813,0.678 -2.814,4.629 -0.143,7.457 1.08,1.145 5.814,1.072 9.029,0.801 23.496,-2.002 44.852,-1.932 66.352,-1.617 2.156,-1.184 4.369,-1.57 6.854,-1.713 z m -2.43,2.412 c -1.391,0.707 -2.496,0.004 -3.795,0.258 -0.217,-0.977 5.268,-0.115 3.795,-0.258 z"
   id="path7267" />
					</g>
					
						<rect
   x="1079.556"
   y="925.23602"
   transform="matrix(1,0.0071,-0.0071,1,6.6331,-8.3882)"
   fill-rule="evenodd"
   clip-rule="evenodd"
   fill="#52c1dd"
   width="203.82401"
   height="4.414"
   id="rect7271" />
				</g>
			</g>
		</g>
	</g>
</svg>
