<?xml version="1.0" encoding="UTF-8" standalone="no"?>
<svg
   xmlns:dc="http://purl.org/dc/elements/1.1/"
   xmlns:cc="http://creativecommons.org/ns#"
   xmlns:rdf="http://www.w3.org/1999/02/22-rdf-syntax-ns#"
   xmlns:svg="http://www.w3.org/2000/svg"
   xmlns="http://www.w3.org/2000/svg"
   xmlns:sodipodi="http://sodipodi.sourceforge.net/DTD/sodipodi-0.dtd"
   xmlns:inkscape="http://www.inkscape.org/namespaces/inkscape"
   width="64"
   height="64"
   viewBox="0 0 16.933332 16.933334"
   version="1.1"
   id="svg1599"
   inkscape:version="1.0.1 (3bc2e813f5, 2020-09-07)"
   sodipodi:docname="spielcenter_chemnitz_logo.svg">
  <defs
     id="defs1593" />
  <sodipodi:namedview
     id="base"
     pagecolor="#ffffff"
     bordercolor="#666666"
     borderopacity="1.0"
     inkscape:pageopacity="0.0"
     inkscape:pageshadow="2"
     inkscape:zoom="0.35"
     inkscape:cx="400"
     inkscape:cy="560"
     inkscape:document-units="px"
     inkscape:current-layer="layer1"
     inkscape:document-rotation="0"
     showgrid="false"
     units="px"
     inkscape:pagecheckerboard="true"
     inkscape:window-width="1920"
     inkscape:window-height="1017"
     inkscape:window-x="-8"
     inkscape:window-y="-8"
     inkscape:window-maximized="1" />
  <metadata
     id="metadata1596">
    <rdf:RDF>
      <cc:Work
         rdf:about="">
        <dc:format>image/svg+xml</dc:format>
        <dc:type
           rdf:resource="http://purl.org/dc/dcmitype/StillImage" />
        <dc:title></dc:title>
      </cc:Work>
    </rdf:RDF>
  </metadata>
  <g
     inkscape:label="Ebene 1"
     inkscape:groupmode="layer"
     id="layer1">
    <g
       id="g2226"
       transform="matrix(0.125,0,0,0.125,-16.251976,-8.3296983)">
      <g
         id="g330"
         transform="matrix(1.1370376,0,0,1.1370376,97.323137,277.56716)">
        <rect
           x="96.397003"
           y="-108.738"
           transform="matrix(0.7071,-0.7071,0.7071,0.7071,104.8551,41.9858)"
           width="13.425"
           height="6.3189998"
           id="rect320" />
        <rect
           x="67.077003"
           y="-108.738"
           transform="matrix(-0.7071,-0.7071,0.7071,-0.7071,200.6218,-128.0565)"
           width="13.425"
           height="6.3189998"
           id="rect322" />
        <rect
           x="81.093002"
           y="-156.354"
           width="15.035"
           height="6.3179998"
           id="rect324" />
        <rect
           x="57.397999"
           y="-138.112"
           transform="matrix(-0.2594,0.9658,-0.9658,-0.2594,-49.2194,-232.1645)"
           width="14.014"
           height="6.3179998"
           id="rect326" />
        <rect
           x="106.013"
           y="-138.274"
           transform="matrix(0.2594,0.9658,-0.9658,0.2594,-46.7892,-209.2128)"
           width="14.014"
           height="6.3179998"
           id="rect328" />
      </g>
      <g
         id="g380"
         transform="matrix(1.1370376,0,0,1.1370376,97.323137,277.56716)">
        <path
           d="m 88.323,-66.368 c -7.745,0 -15.121,-0.676 -21.92,-2.009 -7.078,-1.39 -13.347,-4.283 -18.633,-8.598 -5.301,-4.32 -9.544,-10.504 -12.613,-18.38 -3.008,-7.733 -4.532,-18.022 -4.532,-30.582 0,-12.562 1.524,-22.852 4.532,-30.581 3.065,-7.872 7.31,-14.055 12.613,-18.383 5.287,-4.314 11.556,-7.206 18.632,-8.598 6.798,-1.333 14.171,-2.009 21.921,-2.009 7.749,0 15.122,0.676 21.916,2.008 7.079,1.393 13.347,4.284 18.634,8.599 5.306,4.333 9.549,10.518 12.61,18.383 3.012,7.727 4.537,18.015 4.537,30.581 0,12.563 -1.525,22.853 -4.537,30.582 -3.063,7.87 -7.308,14.054 -12.612,18.381 -5.284,4.313 -11.553,7.206 -18.632,8.596 -6.798,1.334 -14.172,2.01 -21.916,2.01 z m 0,-113.364 c -7.376,0 -14.378,0.639 -20.809,1.9 -6.133,1.206 -11.549,3.698 -16.093,7.407 -4.521,3.69 -8.185,9.073 -10.881,16.002 -2.748,7.059 -4.14,16.643 -4.14,28.486 0,11.841 1.392,21.425 4.14,28.489 2.699,6.931 6.361,12.313 10.879,15.998 4.546,3.708 9.961,6.199 16.096,7.405 6.434,1.262 13.435,1.901 20.808,1.901 7.371,0 14.372,-0.639 20.804,-1.901 6.136,-1.207 11.551,-3.696 16.094,-7.403 4.523,-3.69 8.183,-9.073 10.882,-16.001 2.75,-7.06 4.143,-16.645 4.143,-28.488 0,-11.844 -1.394,-21.429 -4.143,-28.486 -2.698,-6.925 -6.358,-12.31 -10.882,-16.006 -4.542,-3.706 -9.958,-6.197 -16.094,-7.405 -6.428,-1.259 -13.428,-1.898 -20.804,-1.898 z"
           id="path378" />
      </g>
      <g
         id="g386"
         transform="matrix(1.1370376,0,0,1.1370376,97.323137,277.56716)">
        <g
           id="g384">
          <path
             fill="#e85416"
             d="m 108.021,-136.518 c -9.052,0 -16.415,-7.364 -16.415,-16.415 0,-9.05 7.363,-16.412 16.415,-16.412 9.048,0 16.412,7.362 16.412,16.412 10e-4,9.052 -7.363,16.415 -16.412,16.415 z m 0,-27.677 c -6.211,0 -11.265,5.054 -11.265,11.262 0,6.21 5.054,11.265 11.265,11.265 6.209,0 11.26,-5.055 11.26,-11.265 0,-6.208 -5.051,-11.262 -11.26,-11.262 z"
             id="path382" />
        </g>
      </g>
      <g
         id="g390"
         transform="matrix(1.1370376,0,0,1.1370376,97.323137,277.56716)">
        <path
           fill="#e3127f"
           d="m 57.724,-100.287 c -9.054,0 -16.415,-7.364 -16.415,-16.413 0,-9.05 7.361,-16.414 16.415,-16.414 9.047,0 16.411,7.364 16.411,16.414 -0.001,9.049 -7.364,16.413 -16.411,16.413 z m 0,-27.677 c -6.213,0 -11.266,5.053 -11.266,11.264 0,6.208 5.052,11.264 11.266,11.264 6.207,0 11.26,-5.056 11.26,-11.264 -10e-4,-6.211 -5.053,-11.264 -11.26,-11.264 z"
           id="path388" />
      </g>
      <g
         id="g394"
         transform="matrix(1.1370376,0,0,1.1370376,97.323137,277.56716)">
        <path
           fill="#52c1dd"
           d="m 88.787,-76.597 c -9.049,0 -16.412,-7.364 -16.412,-16.413 0,-9.051 7.363,-16.414 16.412,-16.414 9.052,0 16.415,7.363 16.415,16.414 0,9.049 -7.363,16.413 -16.415,16.413 z m 0,-27.677 c -6.209,0 -11.263,5.053 -11.263,11.264 0,6.208 5.054,11.264 11.263,11.264 6.211,0 11.263,-5.056 11.263,-11.264 0,-6.211 -5.052,-11.264 -11.263,-11.264 z"
           id="path392" />
      </g>
      <g
         id="g398"
         transform="matrix(1.1370376,0,0,1.1370376,97.323137,277.56716)">
        <path
           fill="#9e75b2"
           d="m 119.171,-100.287 c -9.05,0 -16.413,-7.364 -16.413,-16.413 0,-9.05 7.363,-16.414 16.413,-16.414 9.052,0 16.415,7.364 16.415,16.414 0,9.049 -7.362,16.413 -16.415,16.413 z m 0,-27.677 c -6.209,0 -11.263,5.053 -11.263,11.264 0,6.208 5.054,11.264 11.263,11.264 6.211,0 11.263,-5.056 11.263,-11.264 0,-6.211 -5.052,-11.264 -11.263,-11.264 z"
           id="path396" />
      </g>
      <g
         id="g404"
         transform="matrix(1.1370376,0,0,1.1370376,97.323137,277.56716)">
        <g
           id="g402">
          <path
             fill="#bacf10"
             d="m 68.357,-136.517 c -9.05,0 -16.414,-7.364 -16.414,-16.415 0,-9.051 7.363,-16.413 16.414,-16.413 9.049,0 16.413,7.363 16.413,16.413 0,9.05 -7.364,16.415 -16.413,16.415 z m 0,-27.677 c -6.211,0 -11.264,5.053 -11.264,11.262 0,6.209 5.053,11.264 11.264,11.264 6.209,0 11.26,-5.055 11.26,-11.264 0,-6.209 -5.051,-11.262 -11.26,-11.262 z"
             id="path400" />
        </g>
      </g>
    </g>
  </g>
</svg>
